<svg width="100" height="60" viewBox="0 0 100 60" fill="none" xmlns="http://www.w3.org/2000/svg">
<g opacity="0.4">
<mask id="path-1-outside-1_27_315" maskUnits="userSpaceOnUse" x="-1" y="-1" width="102" height="62" fill="black">
<rect fill="white" x="-1" y="-1" width="102" height="62"/>
<path d="M25.3213 59.12C20.5213 59.12 16.2546 57.9733 12.5213 55.68C8.84125 53.3867 5.93458 50.08 3.80125 45.76C1.66792 41.44 0.601251 36.1867 0.601251 30C0.601251 23.8133 1.66792 18.56 3.80125 14.24C5.93458 9.92 8.84125 6.61333 12.5213 4.32C16.2546 2.02666 20.5213 0.879996 25.3213 0.879996C30.0679 0.879996 34.2813 2.02666 37.9613 4.32C41.6946 6.61333 44.6279 9.92 46.7613 14.24C48.8946 18.56 49.9613 23.8133 49.9613 30C49.9613 36.1867 48.8946 41.44 46.7613 45.76C44.6279 50.08 41.6946 53.3867 37.9613 55.68C34.2813 57.9733 30.0679 59.12 25.3213 59.12ZM25.3213 46.16C27.0279 46.16 28.5213 45.6267 29.8013 44.56C31.1346 43.4933 32.1746 41.7867 32.9213 39.44C33.6679 37.04 34.0413 33.8933 34.0413 30C34.0413 26.0533 33.6679 22.9067 32.9213 20.56C32.1746 18.2133 31.1346 16.5067 29.8013 15.44C28.5213 14.3733 27.0279 13.84 25.3213 13.84C23.6146 13.84 22.0946 14.3733 20.7613 15.44C19.4813 16.5067 18.4413 18.2133 17.6413 20.56C16.8946 22.9067 16.5213 26.0533 16.5213 30C16.5213 33.8933 16.8946 37.04 17.6413 39.44C18.4413 41.7867 19.4813 43.4933 20.7613 44.56C22.0946 45.6267 23.6146 46.16 25.3213 46.16ZM56.1 58V48.08L77.06 28.48C78.5533 27.0933 79.6467 25.8667 80.34 24.8C81.0867 23.7333 81.5667 22.7733 81.78 21.92C82.0467 21.0133 82.18 20.1867 82.18 19.44C82.18 17.6267 81.5667 16.2133 80.34 15.2C79.1667 14.1867 77.38 13.68 74.98 13.68C72.9533 13.68 71.06 14.1333 69.3 15.04C67.54 15.9467 66.1 17.3067 64.98 19.12L53.22 12.56C55.3 9.04 58.3133 6.21333 62.26 4.08C66.2067 1.94666 70.9267 0.879996 76.42 0.879996C80.74 0.879996 84.5267 1.57333 87.78 2.96C91.0333 4.34666 93.5667 6.32 95.38 8.88C97.2467 11.44 98.18 14.4533 98.18 17.92C98.18 19.7333 97.94 21.5467 97.46 23.36C96.98 25.12 96.0467 27.0133 94.66 29.04C93.3267 31.0133 91.3267 33.2267 88.66 35.68L72.02 51.04L69.38 45.44H99.7V58H56.1Z"/>
</mask>
<path d="M12.5213 55.68L12.2568 56.1044L12.2595 56.106L12.5213 55.68ZM3.80125 45.76L3.35294 45.9814L3.80125 45.76ZM3.80125 14.24L3.35294 14.0186L3.80125 14.24ZM12.5213 4.32L12.2595 3.89395L12.2568 3.89566L12.5213 4.32ZM37.9613 4.32L37.6968 4.74435L37.6995 4.74604L37.9613 4.32ZM46.7613 14.24L46.3129 14.4614L46.7613 14.24ZM46.7613 45.76L46.3129 45.5386L46.7613 45.76ZM37.9613 55.68L37.6995 55.254L37.6968 55.2557L37.9613 55.68ZM29.8013 44.56L29.4888 44.1695L29.4812 44.1759L29.8013 44.56ZM32.9213 39.44L33.3977 39.5916L33.3987 39.5885L32.9213 39.44ZM32.9213 20.56L32.4448 20.7116L32.9213 20.56ZM29.8013 15.44L29.4811 15.8242L29.4889 15.8304L29.8013 15.44ZM20.7613 15.44L20.4488 15.0495L20.4412 15.0559L20.7613 15.44ZM17.6413 20.56L17.1679 20.3986L17.1648 20.4084L17.6413 20.56ZM17.6413 39.44L17.1637 39.5886L17.168 39.6013L17.6413 39.44ZM20.7613 44.56L20.4411 44.9442L20.4489 44.9504L20.7613 44.56ZM25.3213 58.62C24.7639 58.62 24.2143 58.6043 23.6723 58.5729L23.6145 59.5712C24.1762 59.6038 24.7451 59.62 25.3213 59.62V58.62ZM20.4057 58.1769C19.3127 57.9711 18.2542 57.6937 17.2297 57.345L16.9074 58.2916C17.9779 58.656 19.0823 58.9453 20.2206 59.1596L20.4057 58.1769ZM14.2121 56.0608C13.7272 55.8103 13.2509 55.5414 12.783 55.254L12.2595 56.106C12.7483 56.4063 13.2462 56.6874 13.7531 56.9493L14.2121 56.0608ZM12.7857 55.2557C12.3219 54.9666 11.8707 54.6611 11.4321 54.3392L10.8404 55.1454C11.2995 55.4823 11.7716 55.802 12.2568 56.1043L12.7857 55.2557ZM8.95295 52.2117C8.19142 51.4515 7.47749 50.6273 6.81124 49.7387L6.01118 50.3386C6.70514 51.2641 7.45019 52.1245 8.24643 52.9194L8.95295 52.2117ZM5.01893 46.9919C4.7522 46.5215 4.49573 46.0371 4.24957 45.5386L3.35294 45.9814C3.60731 46.4965 3.87267 46.9978 4.14905 47.4852L5.01893 46.9919ZM4.24957 45.5386C3.95954 44.9513 3.68942 44.346 3.43927 43.7226L2.51121 44.0951C2.7707 44.7417 3.05126 45.3705 3.35294 45.9814L4.24957 45.5386ZM2.2189 39.9294C1.90639 38.6795 1.65911 37.3704 1.47746 36.0017L0.486149 36.1332C0.672432 37.5368 0.92651 38.8831 1.24876 40.172L2.2189 39.9294ZM1.14038 32.0082C1.1143 31.3506 1.10125 30.6811 1.10125 30H0.10125C0.10125 30.6939 0.114546 31.3765 0.141165 32.0478L1.14038 32.0082ZM1.10125 30C1.10125 29.3188 1.1143 28.6494 1.14038 27.9918L0.141165 27.9522C0.114546 28.6235 0.10125 29.3061 0.10125 30H1.10125ZM1.47746 23.9983C1.65911 22.6296 1.90639 21.3205 2.2189 20.0706L1.24876 19.828C0.92651 21.1169 0.672432 22.4632 0.486149 23.8668L1.47746 23.9983ZM3.43927 16.2774C3.68942 15.654 3.95954 15.0487 4.24957 14.4614L3.35294 14.0186C3.05126 14.6295 2.7707 15.2583 2.51121 15.9049L3.43927 16.2774ZM4.24957 14.4614C4.49573 13.9629 4.7522 13.4785 5.01894 13.0081L4.14905 12.5148C3.87267 13.0022 3.60731 13.5035 3.35294 14.0186L4.24957 14.4614ZM6.81124 10.2613C7.47749 9.37274 8.19142 8.54852 8.95295 7.78826L8.24643 7.08056C7.45019 7.87547 6.70514 8.73586 6.01118 9.66137L6.81124 10.2613ZM11.4321 5.66075C11.8707 5.33886 12.3219 5.03339 12.7857 4.74434L12.2568 3.89566C11.7716 4.19803 11.2995 4.51767 10.8404 4.8546L11.4321 5.66075ZM12.783 4.74604C13.2509 4.45861 13.7272 4.18966 14.2121 3.93916L13.7531 3.05073C13.2462 3.31262 12.7483 3.5937 12.2595 3.89396L12.783 4.74604ZM17.2297 2.65504C18.2542 2.30627 19.3127 2.02889 20.4057 1.82309L20.2206 0.840362C19.0823 1.0547 17.9779 1.34397 16.9074 1.70839L17.2297 2.65504ZM23.6723 1.42711C24.2143 1.39571 24.7639 1.38 25.3213 1.38V0.379996C24.7451 0.379996 24.1762 0.396245 23.6145 0.428783L23.6723 1.42711ZM25.3213 1.38C25.8721 1.38 26.4153 1.39571 26.9508 1.42708L27.0093 0.428794C26.4538 0.396248 25.8911 0.379996 25.3213 0.379996V1.38ZM30.1783 1.82299C31.2578 2.02877 32.3029 2.30614 33.3139 2.65489L33.64 1.70956C32.5825 1.34476 31.491 1.0552 30.3656 0.840674L30.1783 1.82299ZM36.2895 3.9384C36.767 4.18862 37.2361 4.45726 37.6968 4.74434L38.2257 3.89566C37.744 3.59549 37.2533 3.31447 36.7536 3.05262L36.2895 3.9384ZM37.6995 4.74604C38.1678 5.03366 38.623 5.33751 39.0653 5.6576L39.6516 4.84749C39.1887 4.51253 38.7125 4.19469 38.223 3.89396L37.6995 4.74604ZM41.5691 7.77805C42.3396 8.538 43.0607 9.3619 43.7324 10.2501L44.53 9.64693C43.83 8.72125 43.0771 7.86085 42.2713 7.06609L41.5691 7.77805ZM45.5395 13.0028C45.808 13.4749 46.0659 13.961 46.3129 14.4614L47.2096 14.0186C46.9541 13.5012 46.6871 12.9978 46.4087 12.5084L45.5395 13.0028ZM46.3129 14.4614C46.603 15.0487 46.8731 15.654 47.1232 16.2774L48.0513 15.9049C47.7918 15.2583 47.5112 14.6295 47.2096 14.0186L46.3129 14.4614ZM48.3436 20.0706C48.6561 21.3205 48.9034 22.6296 49.085 23.9983L50.0764 23.8668C49.8901 22.4632 49.636 21.1169 49.3137 19.828L48.3436 20.0706ZM49.4221 27.9918C49.4482 28.6494 49.4613 29.3188 49.4613 30H50.4613C50.4613 29.3061 50.448 28.6235 50.4213 27.9522L49.4221 27.9918ZM49.4613 30C49.4613 30.6811 49.4482 31.3506 49.4221 32.0082L50.4213 32.0478C50.448 31.3765 50.4613 30.6939 50.4613 30H49.4613ZM49.085 36.0017C48.9034 37.3704 48.6561 38.6795 48.3436 39.9294L49.3137 40.172C49.636 38.8831 49.8901 37.5368 50.0764 36.1332L49.085 36.0017ZM47.1232 43.7226C46.8731 44.346 46.603 44.9513 46.3129 45.5386L47.2096 45.9814C47.5112 45.3705 47.7918 44.7417 48.0513 44.0951L47.1232 43.7226ZM46.3129 45.5386C46.0659 46.0389 45.808 46.5251 45.5395 46.9972L46.4087 47.4916C46.6871 47.0022 46.9541 46.4988 47.2096 45.9814L46.3129 45.5386ZM43.7324 49.7499C43.0607 50.6381 42.3396 51.462 41.5691 52.2219L42.2713 52.9339C43.0771 52.1391 43.83 51.2787 44.53 50.3531L43.7324 49.7499ZM39.0653 54.3424C38.623 54.6625 38.1678 54.9663 37.6995 55.254L38.223 56.106C38.7125 55.8053 39.1887 55.4875 39.6516 55.1525L39.0653 54.3424ZM37.6968 55.2557C37.2361 55.5427 36.767 55.8114 36.2895 56.0616L36.7536 56.9474C37.2533 56.6855 37.744 56.4045 38.2257 56.1043L37.6968 55.2557ZM33.3139 57.3451C32.3029 57.6939 31.2578 57.9712 30.1783 58.177L30.3656 59.1593C31.491 58.9448 32.5825 58.6552 33.64 58.2904L33.3139 57.3451ZM26.9508 58.5729C26.4153 58.6043 25.8721 58.62 25.3213 58.62V59.62C25.8911 59.62 26.4538 59.6038 27.0093 59.5712L26.9508 58.5729ZM25.3213 45.66C24.9266 45.66 24.5443 45.6296 24.1742 45.5694L24.0136 46.5564C24.4391 46.6256 24.8751 46.66 25.3213 46.66V45.66ZM22.0259 44.8155C21.6993 44.6313 21.3819 44.4162 21.0736 44.1696L20.4489 44.9504C20.7973 45.2292 21.1592 45.4747 21.5346 45.6865L22.0259 44.8155ZM21.0813 44.1759C20.7391 43.8907 20.4119 43.5529 20.1003 43.1603L19.317 43.7819C19.6669 44.2228 20.0413 44.6109 20.4412 44.9441L21.0813 44.1759ZM18.645 40.6561C18.4582 40.2271 18.2813 39.768 18.1145 39.2787L17.168 39.6013C17.3428 40.1141 17.5294 40.5989 17.7281 41.0552L18.645 40.6561ZM18.1187 39.2915C17.9053 38.6057 17.7222 37.8532 17.5701 37.033L16.5869 37.2153C16.7451 38.0687 16.9372 38.8601 17.1638 39.5885L18.1187 39.2915ZM17.0715 32.3625C17.038 31.6094 17.0213 30.8219 17.0213 30H16.0213C16.0213 30.8355 16.0383 31.6378 16.0725 32.4069L17.0715 32.3625ZM17.0213 30C17.0213 29.1761 17.0377 28.3884 17.0704 27.6367L16.0713 27.5932C16.0379 28.3606 16.0213 29.163 16.0213 30H17.0213ZM17.5642 22.9656C17.7173 22.1401 17.9021 21.3891 18.1177 20.7116L17.1648 20.4084C16.9347 21.1314 16.7405 21.9234 16.5809 22.7833L17.5642 22.9656ZM18.1145 20.7213C18.2813 20.232 18.4582 19.7729 18.645 19.3439L17.7281 18.9448C17.5294 19.4011 17.3428 19.8859 17.168 20.3987L18.1145 20.7213ZM20.1003 16.8397C20.4119 16.4471 20.7391 16.1093 21.0813 15.8241L20.4412 15.0559C20.0413 15.3891 19.6669 15.7772 19.317 16.2181L20.1003 16.8397ZM21.0736 15.8304C21.3819 15.5838 21.6993 15.3687 22.0259 15.1845L21.5346 14.3135C21.1592 14.5253 20.7973 14.7708 20.4489 15.0496L21.0736 15.8304ZM24.1742 14.4306C24.5443 14.3704 24.9266 14.34 25.3213 14.34V13.34C24.8751 13.34 24.4391 13.3744 24.0136 13.4436L24.1742 14.4306ZM25.3213 14.34C25.7117 14.34 26.0882 14.3697 26.451 14.4286L26.6111 13.4415C26.1927 13.3736 25.7626 13.34 25.3213 13.34V14.34ZM28.5573 15.1765C28.8761 15.3609 29.1841 15.5765 29.4812 15.8241L30.1213 15.0559C29.7824 14.7734 29.4279 14.5248 29.058 14.3109L28.5573 15.1765ZM29.4889 15.8304C29.8406 16.1118 30.1732 16.4439 30.4861 16.8287L31.262 16.1977C30.9077 15.7622 30.5252 15.3788 30.1136 15.0496L29.4889 15.8304ZM31.9373 19.3271C32.1189 19.7579 32.2881 20.2193 32.4448 20.7116L33.3977 20.4084C33.2327 19.8899 33.0532 19.3999 32.8587 18.9386L31.9373 19.3271ZM32.4448 20.7116C32.6604 21.3891 32.8452 22.1401 32.9983 22.9656L33.9816 22.7833C33.8221 21.9234 33.6278 21.1314 33.3977 20.4084L32.4448 20.7116ZM33.4921 27.6367C33.5249 28.3884 33.5413 29.1761 33.5413 30H34.5413C34.5413 29.163 34.5246 28.3606 34.4912 27.5932L33.4921 27.6367ZM33.5413 30C33.5413 30.8219 33.5245 31.6094 33.491 32.3625L34.49 32.4069C34.5242 31.6378 34.5413 30.8355 34.5413 30H33.5413ZM32.9924 37.033C32.8403 37.8532 32.6572 38.6057 32.4438 39.2915L33.3987 39.5885C33.6253 38.8601 33.8174 38.0687 33.9756 37.2153L32.9924 37.033ZM32.4448 39.2884C32.2881 39.7807 32.1189 40.2421 31.9373 40.6729L32.8587 41.0614C33.0532 40.6001 33.2327 40.1101 33.3977 39.5916L32.4448 39.2884ZM30.4861 43.1713C30.1732 43.5561 29.8406 43.8882 29.4889 44.1696L30.1136 44.9504C30.5252 44.6212 30.9077 44.2378 31.262 43.8023L30.4861 43.1713ZM29.4812 44.1759C29.1841 44.4235 28.8761 44.6391 28.5573 44.8235L29.058 45.6891C29.4279 45.4752 29.7824 45.2266 30.1213 44.9441L29.4812 44.1759ZM26.451 45.5714C26.0882 45.6303 25.7117 45.66 25.3213 45.66V46.66C25.7626 46.66 26.1927 46.6264 26.6111 46.5585L26.451 45.5714ZM12.5213 55.68L11.9923 56.5287L11.9978 56.5321L12.5213 55.68ZM3.80125 45.76L2.90462 46.2028L3.80125 45.76ZM3.80125 14.24L2.90462 13.7972V13.7972L3.80125 14.24ZM12.5213 4.32L11.9978 3.46791L11.9924 3.47131L12.5213 4.32ZM37.9613 4.32L37.4324 5.1687L37.4378 5.17208L37.9613 4.32ZM46.7613 14.24L45.8646 14.6828L46.7613 14.24ZM46.7613 45.76L45.8646 45.3172H45.8646L46.7613 45.76ZM37.9613 55.68L37.4378 54.8279L37.4324 54.8313L37.9613 55.68ZM29.8013 44.56L29.1766 43.7791L29.1687 43.7854L29.1611 43.7918L29.8013 44.56ZM32.9213 39.44L33.8742 39.7432L33.8761 39.7371L32.9213 39.44ZM32.9213 20.56L31.9683 20.8632L32.9213 20.56ZM29.8013 15.44L29.1611 16.2082L29.1687 16.2146L29.1766 16.2209L29.8013 15.44ZM20.7613 15.44L20.1366 14.6591L20.1287 14.6654L20.1211 14.6718L20.7613 15.44ZM17.6413 20.56L16.6947 20.2373L16.6914 20.247L16.6883 20.2568L17.6413 20.56ZM17.6413 39.44L16.6864 39.7371L16.6904 39.7499L16.6947 39.7627L17.6413 39.44ZM20.7613 44.56L20.1211 45.3282L20.1287 45.3346L20.1366 45.3409L20.7613 44.56ZM25.3213 58.12C24.7733 58.12 24.2334 58.1045 23.7013 58.0737L23.5856 60.0704C24.1572 60.1035 24.7357 60.12 25.3213 60.12V58.12ZM20.4982 57.6855C19.4279 57.484 18.3923 57.2126 17.3909 56.8716L16.7463 58.7649C17.8397 59.1372 18.9672 59.4324 20.1281 59.651L20.4982 57.6855ZM14.4416 55.6166C13.9678 55.3718 13.5021 55.1089 13.0447 54.8279L11.9978 56.5321C12.4971 56.8388 13.0056 57.1259 13.5235 57.3935L14.4416 55.6166ZM13.0501 54.8313C12.597 54.5489 12.1563 54.2505 11.728 53.9362L10.5446 55.5485C11.0139 55.8929 11.4965 56.2197 11.9924 56.5287L13.0501 54.8313ZM9.30621 51.8579C8.56203 51.115 7.86366 50.3088 7.21128 49.4388L5.61114 50.6386C6.31896 51.5826 7.07958 52.461 7.89317 53.2733L9.30621 51.8579ZM5.45388 46.7453C5.19196 46.2834 4.93994 45.8074 4.69788 45.3172L2.90462 46.2028C3.1631 46.7262 3.43291 47.2359 3.71411 47.7318L5.45388 46.7453ZM4.69788 45.3172C4.41368 44.7417 4.14878 44.1482 3.9033 43.5364L2.04718 44.2813C2.31134 44.9396 2.59712 45.5801 2.90462 46.2028L4.69788 45.3172ZM2.70397 39.8082C2.39633 38.5777 2.15246 37.2872 1.97311 35.9359L-0.00950623 36.199C0.17909 37.62 0.436571 38.9849 0.763693 40.2933L2.70397 39.8082ZM1.63999 31.9884C1.61418 31.3376 1.60125 30.6748 1.60125 30H-0.39875C-0.39875 30.7003 -0.385332 31.3895 -0.358444 32.0676L1.63999 31.9884ZM1.60125 30C1.60125 29.3252 1.61418 28.6624 1.63999 28.0116L-0.358444 27.9324C-0.385332 28.6105 -0.39875 29.2997 -0.39875 30H1.60125ZM1.97311 24.0641C2.15246 22.7128 2.39633 21.4223 2.70397 20.1918L0.763693 19.7067C0.436571 21.0151 0.17909 22.38 -0.00950432 23.801L1.97311 24.0641ZM3.9033 16.4636C4.14878 15.8518 4.41368 15.2583 4.69788 14.6828L2.90462 13.7972C2.59712 14.4199 2.31134 15.0604 2.04718 15.7187L3.9033 16.4636ZM4.69788 14.6828C4.93994 14.1926 5.19196 13.7166 5.45388 13.2547L3.71411 12.2682C3.43291 12.7641 3.1631 13.2738 2.90462 13.7972L4.69788 14.6828ZM7.21128 10.5612C7.86366 9.69118 8.56203 8.88504 9.30621 8.1421L7.89317 6.72671C7.07958 7.53895 6.31896 8.41743 5.61114 9.36142L7.21128 10.5612ZM11.728 6.06383C12.1563 5.74946 12.597 5.45108 13.0501 5.16869L11.9924 3.47131C11.4965 3.78034 11.0139 4.10708 10.5446 4.45152L11.728 6.06383ZM13.0447 5.17208C13.5021 4.89106 13.9678 4.62818 14.4416 4.38337L13.5235 2.60652C13.0056 2.8741 12.4971 3.16125 11.9978 3.46792L13.0447 5.17208ZM17.3909 3.12836C18.3923 2.78742 19.4279 2.51598 20.4982 2.31446L20.1281 0.348997C18.9672 0.567599 17.8397 0.862824 16.7463 1.23507L17.3909 3.12836ZM23.7013 1.92627C24.2334 1.89545 24.7733 1.88 25.3213 1.88V-0.120004C24.7357 -0.120004 24.1572 -0.10349 23.5856 -0.0703793L23.7013 1.92627ZM25.3213 1.88C25.8626 1.88 26.396 1.89543 26.9215 1.92623L27.0385 -0.0703497C26.4731 -0.10348 25.9006 -0.120004 25.3213 -0.120004V1.88ZM30.0847 2.31414C31.1412 2.51555 32.1631 2.78682 33.1509 3.12756L33.8031 1.23689C32.7223 0.864079 31.6075 0.568422 30.4592 0.349519L30.0847 2.31414ZM36.0574 4.38129C36.5239 4.6257 36.9822 4.88814 37.4324 5.16869L38.4902 3.47131C37.998 3.1646 37.4965 2.87739 36.9856 2.60973L36.0574 4.38129ZM37.4378 5.17208C37.8954 5.45314 38.3401 5.74999 38.7721 6.06265L39.9447 4.44243C39.4716 4.10005 38.9849 3.77521 38.4847 3.46792L37.4378 5.17208ZM41.218 8.13403C41.9708 8.87657 42.6761 9.68222 43.3336 10.5517L44.9288 9.34535C44.2146 8.40093 43.4459 7.52228 42.6224 6.7101L41.218 8.13403ZM45.1049 13.2501C45.3685 13.7134 45.6217 14.191 45.8646 14.6828L47.6579 13.7972C47.3982 13.2713 47.1267 12.7593 46.8433 12.2611L45.1049 13.2501ZM45.8646 14.6828C46.1488 15.2583 46.4137 15.8518 46.6592 16.4636L48.5153 15.7187C48.2512 15.0604 47.9654 14.4199 47.6579 13.7972L45.8646 14.6828ZM47.8585 20.1918C48.1662 21.4223 48.41 22.7128 48.5894 24.0641L50.572 23.801C50.3834 22.38 50.1259 21.0151 49.7988 19.7067L47.8585 20.1918ZM48.9225 28.0116C48.9483 28.6624 48.9613 29.3252 48.9613 30H50.9613C50.9613 29.2997 50.9478 28.6105 50.9209 27.9324L48.9225 28.0116ZM48.9613 30C48.9613 30.6748 48.9483 31.3376 48.9225 31.9884L50.9209 32.0676C50.9478 31.3895 50.9613 30.7003 50.9613 30H48.9613ZM48.5894 35.9359C48.41 37.2872 48.1662 38.5777 47.8585 39.8082L49.7988 40.2933C50.1259 38.9849 50.3834 37.62 50.572 36.199L48.5894 35.9359ZM46.6592 43.5364C46.4137 44.1481 46.1488 44.7417 45.8646 45.3172L47.6579 46.2028C47.9654 45.5801 48.2512 44.9396 48.5153 44.2813L46.6592 43.5364ZM45.8646 45.3172C45.6217 45.809 45.3685 46.2866 45.1049 46.7499L46.8433 47.7389C47.1267 47.2407 47.3982 46.7287 47.6579 46.2028L45.8646 45.3172ZM43.3336 49.4483C42.6761 50.3178 41.9708 51.1234 41.218 51.866L42.6224 53.2899C43.4459 52.4777 44.2146 51.5991 44.9288 50.6546L43.3336 49.4483ZM38.7721 53.9373C38.3401 54.25 37.8954 54.5469 37.4378 54.8279L38.4847 56.5321C38.9849 56.2248 39.4716 55.9 39.9447 55.5576L38.7721 53.9373ZM37.4324 54.8313C36.9822 55.1119 36.5239 55.3743 36.0574 55.6187L36.9856 57.3903C37.4965 57.1226 37.998 56.8354 38.4902 56.5287L37.4324 54.8313ZM33.1509 56.8724C32.1631 57.2132 31.1412 57.4845 30.0847 57.6859L30.4592 59.6505C31.6075 59.4316 32.7223 59.1359 33.8031 58.7631L33.1509 56.8724ZM26.9215 58.0738C26.396 58.1046 25.8626 58.12 25.3213 58.12V60.12C25.9006 60.12 26.4731 60.1035 27.0385 60.0703L26.9215 58.0738ZM25.3213 45.16C24.9523 45.16 24.597 45.1316 24.2545 45.0759L23.9333 47.0499C24.3864 47.1237 24.8493 47.16 25.3213 47.16V45.16ZM22.2715 44.38C21.9694 44.2095 21.6741 44.0097 21.3859 43.7791L20.1366 45.3409C20.505 45.6357 20.8891 45.8965 21.2889 46.122L22.2715 44.38ZM21.4014 43.7918C21.088 43.5306 20.7844 43.218 20.492 42.8495L18.9254 44.0927C19.2944 44.5578 19.6924 44.971 20.1211 45.3282L21.4014 43.7918ZM19.1034 40.4566C18.9226 40.0412 18.7506 39.595 18.5878 39.1173L16.6947 39.7627C16.8736 40.2872 17.065 40.7848 17.2696 41.2548L19.1034 40.4566ZM18.5961 39.1429C18.3894 38.4785 18.2108 37.7454 18.0617 36.9418L16.0953 37.3065C16.2566 38.1765 16.4531 38.9872 16.6864 39.7371L18.5961 39.1429ZM17.571 32.3402C17.5379 31.5952 17.5213 30.8152 17.5213 30H15.5213C15.5213 30.8422 15.5384 31.652 15.573 32.4291L17.571 32.3402ZM17.5213 30C17.5213 29.1827 17.5375 28.4023 17.5699 27.6584L15.5718 27.5714C15.538 28.3468 15.5213 29.1564 15.5213 30H17.5213ZM18.0558 23.0568C18.2057 22.2484 18.3858 21.518 18.5942 20.8632L16.6883 20.2568C16.451 21.0025 16.252 21.815 16.0893 22.6921L18.0558 23.0568ZM18.5878 20.8827C18.7506 20.405 18.9226 19.9588 19.1034 19.5434L17.2696 18.7452C17.065 19.2152 16.8736 19.7128 16.6947 20.2373L18.5878 20.8827ZM20.492 17.1505C20.7844 16.782 21.088 16.4694 21.4014 16.2082L20.1211 14.6718C19.6924 15.029 19.2944 15.4422 18.9254 15.9073L20.492 17.1505ZM21.3859 16.2209C21.6741 15.9903 21.9694 15.7905 22.2715 15.62L21.2889 13.878C20.8891 14.1035 20.505 14.3643 20.1366 14.6591L21.3859 16.2209ZM24.2545 14.9241C24.597 14.8684 24.9523 14.84 25.3213 14.84V12.84C24.8493 12.84 24.3864 12.8763 23.9333 12.9501L24.2545 14.9241ZM25.3213 14.84C25.6863 14.84 26.0359 14.8678 26.3709 14.9221L26.6912 12.9479C26.245 12.8756 25.7881 12.84 25.3213 12.84V14.84ZM28.307 15.6093C28.6002 15.7789 28.8849 15.9781 29.1611 16.2082L30.4414 14.6718C30.0815 14.3718 29.7038 14.1068 29.3083 13.878L28.307 15.6093ZM29.1766 16.2209C29.4983 16.4783 29.8059 16.7847 30.0982 17.1441L31.6499 15.8822C31.275 15.4213 30.8675 15.0123 30.4259 14.6591L29.1766 16.2209ZM31.4765 19.5213C31.6517 19.9369 31.8158 20.384 31.9683 20.8632L33.8742 20.2568C33.705 19.7252 33.5203 19.2209 33.3195 18.7444L31.4765 19.5213ZM31.9683 20.8632C32.1767 21.518 32.3568 22.2484 32.5067 23.0568L34.4732 22.6921C34.3105 21.815 34.1115 21.0025 33.8742 20.2568L31.9683 20.8632ZM32.9926 27.6584C33.025 28.4023 33.0413 29.1827 33.0413 30H35.0413C35.0413 29.1564 35.0245 28.3468 34.9907 27.5714L32.9926 27.6584ZM33.0413 30C33.0413 30.8152 33.0246 31.5952 32.9915 32.3402L34.9895 32.4291C35.0241 31.652 35.0413 30.8422 35.0413 30H33.0413ZM32.5008 36.9418C32.3517 37.7454 32.1731 38.4785 31.9664 39.1429L33.8761 39.7371C34.1094 38.9872 34.3059 38.1765 34.4672 37.3065L32.5008 36.9418ZM31.9683 39.1368C31.8158 39.616 31.6517 40.0631 31.4765 40.4787L33.3195 41.2556C33.5203 40.7791 33.705 40.2748 33.8742 39.7432L31.9683 39.1368ZM30.0982 42.8559C29.8059 43.2153 29.4983 43.5217 29.1766 43.7791L30.4259 45.3409C30.8675 44.9877 31.275 44.5787 31.6499 44.1178L30.0982 42.8559ZM29.1611 43.7918C28.8849 44.0219 28.6002 44.2211 28.307 44.3907L29.3083 46.122C29.7038 45.8932 30.0815 45.6282 30.4414 45.3282L29.1611 43.7918ZM26.3709 45.0779C26.0359 45.1322 25.6863 45.16 25.3213 45.16V47.16C25.7881 47.16 26.245 47.1244 26.6912 47.0521L26.3709 45.0779ZM56.1 58H55.6V58.5H56.1V58ZM56.1 48.08L55.7585 47.7148L55.6 47.863V48.08H56.1ZM77.06 28.48L76.7198 28.1136L76.7185 28.1148L77.06 28.48ZM80.34 24.8L79.9304 24.5133L79.9255 24.5203L79.9208 24.5275L80.34 24.8ZM81.78 21.92L81.3003 21.7789L81.2974 21.7888L81.2949 21.7987L81.78 21.92ZM80.34 15.2L80.0131 15.5785L80.0216 15.5855L80.34 15.2ZM69.3 15.04L69.529 15.4845L69.3 15.04ZM64.98 19.12L64.7364 19.5567L65.1541 19.7896L65.4054 19.3827L64.98 19.12ZM53.22 12.56L52.7895 12.3056L52.5288 12.7469L52.9764 12.9967L53.22 12.56ZM62.26 4.08L62.4978 4.51985L62.26 4.08ZM87.78 2.96L87.5839 3.41996H87.584L87.78 2.96ZM95.38 8.88L94.9719 9.16903L94.976 9.17459L95.38 8.88ZM97.46 23.36L97.9424 23.4916L97.9434 23.4879L97.46 23.36ZM94.66 29.04L94.2473 28.7577L94.2457 28.7601L94.66 29.04ZM88.66 35.68L88.3215 35.312L88.3209 35.3126L88.66 35.68ZM72.02 51.04L71.5677 51.2532L71.8584 51.8697L72.3591 51.4074L72.02 51.04ZM69.38 45.44V44.94H68.5915L68.9277 45.6532L69.38 45.44ZM99.7 45.44H100.2V44.94H99.7V45.44ZM99.7 58V58.5H100.2V58H99.7ZM56.6 58V55.52H55.6V58H56.6ZM56.6 50.56V48.08H55.6V50.56H56.6ZM56.4415 48.4452L57.7515 47.2202L57.0685 46.4898L55.7585 47.7148L56.4415 48.4452ZM60.3715 44.7702L62.9915 42.3202L62.3085 41.5898L59.6885 44.0398L60.3715 44.7702ZM65.6115 39.8702L68.2315 37.4202L67.5485 36.6898L64.9285 39.1398L65.6115 39.8702ZM70.8515 34.9702L73.4715 32.5202L72.7885 31.7898L70.1685 34.2398L70.8515 34.9702ZM76.0915 30.0702L77.4015 28.8452L76.7185 28.1148L75.4085 29.3398L76.0915 30.0702ZM77.4002 28.8464C77.7189 28.5504 78.0202 28.2612 78.304 27.9786L77.5983 27.27C77.3235 27.5437 77.0307 27.8249 76.7198 28.1136L77.4002 28.8464ZM80.0027 26.1103C80.2894 25.7527 80.5419 25.4068 80.7592 25.0725L79.9208 24.5275C79.7243 24.8297 79.4919 25.1487 79.2225 25.4846L80.0027 26.1103ZM80.7496 25.0867C80.9156 24.8496 81.0695 24.6166 81.2111 24.3878L80.3607 23.8616C80.2299 24.0731 80.0865 24.2903 79.9304 24.5133L80.7496 25.0867ZM81.9915 22.8746C82.1055 22.5909 82.1971 22.313 82.2651 22.0413L81.2949 21.7987C81.2393 22.0212 81.1626 22.2554 81.0636 22.5017L81.9915 22.8746ZM82.2597 22.0611C82.323 21.8458 82.3793 21.6341 82.4285 21.4261L81.4553 21.196C81.4105 21.3856 81.3589 21.5799 81.3003 21.7789L82.2597 22.0611ZM82.6481 20.115C82.6693 19.885 82.68 19.66 82.68 19.44H81.68C81.68 19.6275 81.6709 19.8219 81.6523 20.0233L82.6481 20.115ZM82.68 19.44C82.68 18.9956 82.6453 18.5697 82.5747 18.1631L81.5894 18.3343C81.6494 18.6793 81.68 19.0476 81.68 19.44H82.68ZM81.5661 15.7631C81.3067 15.4158 81.0036 15.0997 80.6584 14.8145L80.0216 15.5855C80.3081 15.8222 80.5554 16.0809 80.765 16.3615L81.5661 15.7631ZM80.6668 14.8216C80.2837 14.4908 79.8459 14.2122 79.3566 13.9841L78.9341 14.8905C79.3474 15.0831 79.706 15.3131 80.0132 15.5784L80.6668 14.8216ZM76.4494 13.2484C75.9845 13.2026 75.4946 13.18 74.98 13.18V14.18C75.4655 14.18 75.9225 14.2014 76.3514 14.2436L76.4494 13.2484ZM74.98 13.18C74.4631 13.18 73.9538 13.2084 73.4522 13.2655L73.5652 14.2591C74.0283 14.2064 74.4999 14.18 74.98 14.18V13.18ZM70.4732 13.9754C69.9967 14.1527 69.5293 14.3594 69.071 14.5955L69.529 15.4845C69.9524 15.2664 70.3833 15.0758 70.8219 14.9127L70.4732 13.9754ZM69.071 14.5955C68.6013 14.8375 68.1529 15.1106 67.7261 15.4147L68.3064 16.2291C68.6939 15.953 69.1013 15.7048 69.529 15.4845L69.071 14.5955ZM65.4535 17.5776C65.1338 17.9778 64.8342 18.4045 64.5546 18.8573L65.4054 19.3827C65.6648 18.9627 65.9414 18.5691 66.2349 18.2016L65.4535 17.5776ZM65.2236 18.6833L63.7536 17.8633L63.2664 18.7367L64.7364 19.5567L65.2236 18.6833ZM60.8136 16.2233L57.8736 14.5833L57.3864 15.4567L60.3264 17.0967L60.8136 16.2233ZM54.9336 12.9433L53.4636 12.1233L52.9764 12.9967L54.4464 13.8167L54.9336 12.9433ZM53.6505 12.8144C53.9111 12.3732 54.1868 11.9433 54.4774 11.5245L53.6559 10.9544C53.3513 11.3932 53.0625 11.8436 52.7895 12.3056L53.6505 12.8144ZM56.403 9.14387C57.0938 8.40684 57.8434 7.71243 58.6521 7.06072L58.0246 6.2821C57.1806 6.96222 56.3968 7.68817 55.6733 8.46L56.403 9.14387ZM61.1636 5.29016C61.5953 5.02408 62.04 4.7673 62.4978 4.51985L62.0222 3.64014C61.5482 3.89639 61.0871 4.16263 60.6389 4.43891L61.1636 5.29016ZM62.4978 4.51985C63.0205 4.23731 63.5572 3.97378 64.1081 3.72928L63.7025 2.81525C63.1282 3.07014 62.5681 3.3451 62.0222 3.64014L62.4978 4.51985ZM67.4894 2.51703C68.6143 2.20103 69.7887 1.95059 71.0128 1.7661L70.8637 0.777268C69.6009 0.967591 68.3859 1.22648 67.2189 1.55429L67.4894 2.51703ZM74.6092 1.42038C75.2027 1.39347 75.8063 1.38 76.42 1.38V0.379996C75.7917 0.379996 75.173 0.393789 74.5639 0.421406L74.6092 1.42038ZM76.42 1.38C77.4042 1.38 78.3592 1.41643 79.2852 1.48914L79.3635 0.492205C78.41 0.417343 77.4288 0.379996 76.42 0.379996V1.38ZM84.9035 2.47283C85.8359 2.7399 86.7293 3.05569 87.5839 3.41996L87.9761 2.50004C87.0819 2.11891 86.1494 1.78947 85.1789 1.51149L84.9035 2.47283ZM87.584 3.41996C88.336 3.7405 89.0472 4.09246 89.718 4.47562L90.214 3.6073C89.5079 3.20394 88.7618 2.83494 87.9761 2.50004L87.584 3.41996ZM93.4634 7.35312C94.0133 7.9202 94.5161 8.52544 94.972 9.16901L95.788 8.59099C95.3025 7.90553 94.7669 7.2608 94.1813 6.65697L93.4634 7.35312ZM94.976 9.17459C95.4373 9.80725 95.8391 10.4679 96.1818 11.1567L97.0771 10.7113C96.709 9.97139 96.2779 9.26272 95.784 8.58541L94.976 9.17459ZM97.5257 15.5876C97.6284 16.3383 97.68 17.1156 97.68 17.92H98.68C98.68 17.0728 98.6257 16.2501 98.5165 15.4521L97.5257 15.5876ZM97.68 17.92C97.68 18.3671 97.665 18.8142 97.6351 19.2613L98.6329 19.3281C98.6643 18.8587 98.68 18.3894 98.68 17.92H97.68ZM97.2807 21.9223C97.1936 22.3587 97.0923 22.7952 96.9766 23.2321L97.9434 23.4879C98.0642 23.0315 98.1702 22.5748 98.2613 22.1179L97.2807 21.9223ZM96.9776 23.2284C96.8489 23.7003 96.6857 24.1842 96.4874 24.6804L97.416 25.0516C97.6273 24.523 97.8029 24.0029 97.9424 23.4916L96.9776 23.2284ZM95.0924 27.4449C94.8334 27.8752 94.5518 28.3127 94.2473 28.7577L95.0727 29.3223C95.3873 28.8625 95.6795 28.4086 95.9492 27.9607L95.0924 27.4449ZM94.2457 28.7601C93.8649 29.3236 93.4267 29.9098 92.9303 30.5186L93.7053 31.1505C94.218 30.5218 94.6745 29.9116 95.0743 29.3199L94.2457 28.7601ZM89.9329 33.7784C89.4267 34.2782 88.8896 34.7894 88.3215 35.312L88.9985 36.048C89.5746 35.518 90.1202 34.9987 90.6355 34.49L89.9329 33.7784ZM88.3209 35.3126L86.9342 36.5926L87.6125 37.3274L88.9991 36.0474L88.3209 35.3126ZM84.1609 39.1526L81.3875 41.7126L82.0658 42.4474L84.8391 39.8874L84.1609 39.1526ZM78.6142 44.2726L75.8409 46.8326L76.5191 47.5674L79.2925 45.0074L78.6142 44.2726ZM73.0675 49.3926L71.6809 50.6726L72.3591 51.4074L73.7458 50.1274L73.0675 49.3926ZM72.4723 50.8268L71.8123 49.4268L70.9077 49.8532L71.5677 51.2532L72.4723 50.8268ZM70.4923 46.6268L69.8323 45.2268L68.9277 45.6532L69.5877 47.0532L70.4923 46.6268ZM69.38 45.94H71.275V44.94H69.38V45.94ZM75.065 45.94H78.855V44.94H75.065V45.94ZM82.645 45.94H86.435V44.94H82.645V45.94ZM90.225 45.94H94.015V44.94H90.225V45.94ZM97.805 45.94H99.7V44.94H97.805V45.94ZM99.2 45.44V47.01H100.2V45.44H99.2ZM99.2 50.15V53.29H100.2V50.15H99.2ZM99.2 56.43V58H100.2V56.43H99.2ZM99.7 57.5H97.52V58.5H99.7V57.5ZM93.16 57.5H88.8V58.5H93.16V57.5ZM84.44 57.5H80.08V58.5H84.44V57.5ZM75.72 57.5H71.36V58.5H75.72V57.5ZM67 57.5H62.64V58.5H67V57.5ZM58.28 57.5H56.1V58.5H58.28V57.5ZM56.1 58H55.1V59H56.1V58ZM56.1 48.08L55.417 47.3496L55.1 47.646V48.08H56.1ZM77.06 28.48L76.3795 27.7472L76.377 27.7496L77.06 28.48ZM80.34 24.8L79.5208 24.2265L79.5109 24.2406L79.5016 24.255L80.34 24.8ZM81.78 21.92L80.8206 21.6378L80.8148 21.6575L80.8099 21.6775L81.78 21.92ZM80.34 15.2L79.6864 15.9568L79.6947 15.964L79.7031 15.971L80.34 15.2ZM69.3 15.04L69.7579 15.929H69.758L69.3 15.04ZM64.98 19.12L64.4928 19.9933L65.3282 20.4593L65.8308 19.6455L64.98 19.12ZM53.22 12.56L52.3591 12.0513L51.8375 12.9339L52.7328 13.4333L53.22 12.56ZM62.26 4.08L62.7355 4.9597L62.26 4.08ZM87.78 2.96L87.3879 3.87992V3.87992L87.78 2.96ZM95.38 8.88L94.5639 9.45807L94.572 9.46917L95.38 8.88ZM97.46 23.36L98.4248 23.6231L98.4267 23.6159L97.46 23.36ZM94.66 29.04L93.8347 28.4753L93.8314 28.4801L94.66 29.04ZM88.66 35.68L87.9829 34.9441L87.9817 34.9452L88.66 35.68ZM72.02 51.04L71.1155 51.4664L71.6967 52.6993L72.6983 51.7748L72.02 51.04ZM69.38 45.44V44.44H67.803L68.4755 45.8664L69.38 45.44ZM99.7 45.44H100.7V44.44H99.7V45.44ZM99.7 58V59H100.7V58H99.7ZM57.1 58V55.52H55.1V58H57.1ZM57.1 50.56V48.08H55.1V50.56H57.1ZM56.783 48.8104L58.093 47.5854L56.727 46.1246L55.417 47.3496L56.783 48.8104ZM60.713 45.1354L63.333 42.6854L61.967 41.2246L59.347 43.6746L60.713 45.1354ZM65.953 40.2354L68.573 37.7854L67.207 36.3246L64.587 38.7746L65.953 40.2354ZM71.193 35.3354L73.813 32.8854L72.447 31.4246L69.827 33.8746L71.193 35.3354ZM76.433 30.4354L77.743 29.2104L76.377 27.7496L75.067 28.9746L76.433 30.4354ZM77.7404 29.2128C78.0631 28.9132 78.3686 28.6199 78.6568 28.3329L77.2455 26.9157C76.9752 27.1849 76.6866 27.4621 76.3795 27.7472L77.7404 29.2128ZM80.3927 26.4231C80.6881 26.0547 80.9507 25.6953 81.1784 25.345L79.5016 24.255C79.3155 24.5412 79.0932 24.8467 78.8325 25.1718L80.3927 26.4231ZM81.1592 25.3735C81.3302 25.1292 81.4893 24.8884 81.6363 24.6509L79.9356 23.5984C79.8101 23.8013 79.6719 24.0106 79.5208 24.2265L81.1592 25.3735ZM82.4555 23.0611C82.577 22.7586 82.676 22.459 82.7501 22.1625L80.8099 21.6775C80.7604 21.8753 80.6912 22.0877 80.5997 22.3152L82.4555 23.0611ZM82.7394 22.2022C82.8051 21.9787 82.8637 21.7584 82.9151 21.5411L80.9687 21.0809C80.9261 21.2613 80.8768 21.4469 80.8206 21.6378L82.7394 22.2022ZM83.146 20.1608C83.1685 19.9166 83.18 19.6762 83.18 19.44H81.18C81.18 19.6113 81.1716 19.7904 81.1544 19.9775L83.146 20.1608ZM83.18 19.44C83.18 18.9697 83.1433 18.515 83.0673 18.0775L81.0968 18.4199C81.1514 18.734 81.18 19.0735 81.18 19.44H83.18ZM81.9667 15.4639C81.6824 15.0832 81.3514 14.7384 80.9769 14.429L79.7031 15.971C79.9603 16.1834 80.1797 16.4135 80.3644 16.6608L81.9667 15.4639ZM80.9936 14.4432C80.5726 14.0796 80.0951 13.7767 79.5679 13.5309L78.7228 15.3436C79.0981 15.5186 79.4171 15.7242 79.6864 15.9568L80.9936 14.4432ZM76.4984 12.7508C76.0155 12.7033 75.5092 12.68 74.98 12.68V14.68C75.451 14.68 75.8915 14.7007 76.3024 14.7412L76.4984 12.7508ZM74.98 12.68C74.4448 12.68 73.9166 12.7094 73.3958 12.7687L73.6217 14.7559C74.0656 14.7054 74.5183 14.68 74.98 14.68V12.68ZM70.2989 13.5068C69.8034 13.6911 69.3177 13.906 68.842 14.151L69.758 15.929C70.1639 15.7199 70.5766 15.5374 70.9962 15.3813L70.2989 13.5068ZM68.842 14.151C68.3512 14.4039 67.8824 14.6893 67.436 15.0075L68.5966 16.6363C68.9644 16.3742 69.3513 16.1384 69.7579 15.929L68.842 14.151ZM65.0628 17.2655C64.73 17.6822 64.4189 18.1254 64.1292 18.5945L65.8308 19.6455C66.0801 19.2418 66.3451 18.8648 66.6256 18.5137L65.0628 17.2655ZM65.4672 18.2467L63.9972 17.4267L63.0228 19.1733L64.4928 19.9933L65.4672 18.2467ZM61.0572 15.7867L58.1171 14.1467L57.1428 15.8933L60.0828 17.5333L61.0572 15.7867ZM55.1772 12.5067L53.7072 11.6867L52.7328 13.4333L54.2028 14.2533L55.1772 12.5067ZM54.0809 13.0687C54.3355 12.638 54.6045 12.2183 54.8882 11.8096L53.2451 10.6693C52.9336 11.1182 52.6382 11.5788 52.3591 12.0513L54.0809 13.0687ZM56.7678 9.48581C57.4423 8.76617 58.1748 8.08754 58.9658 7.45003L57.7108 5.89279C56.8493 6.58711 56.0483 7.32884 55.3085 8.11807L56.7678 9.48581ZM61.426 5.71579C61.8494 5.45481 62.2859 5.20276 62.7355 4.9597L61.7845 3.20029C61.3023 3.46093 60.8329 3.73191 60.3765 4.01328L61.426 5.71579ZM62.7355 4.9597C63.2466 4.68342 63.7718 4.4256 64.311 4.18629L63.4996 2.35824C62.9136 2.61833 62.3419 2.89899 61.7845 3.20029L62.7355 4.9597ZM67.6246 2.9984C68.7285 2.6883 69.8825 2.44209 71.0873 2.26052L70.7892 0.282852C69.5071 0.47609 68.2717 0.739202 67.0837 1.07292L67.6246 2.9984ZM74.6319 1.91987C75.2176 1.89331 75.8136 1.88 76.42 1.88V-0.120004C75.7843 -0.120004 75.1581 -0.10605 74.5413 -0.0780802L74.6319 1.91987ZM76.42 1.88C77.3918 1.88 78.3338 1.91598 79.2461 1.9876L79.4026 -0.00626183C78.4354 -0.082201 77.4411 -0.120004 76.42 -0.120004V1.88ZM84.7658 2.9535C85.6792 3.21511 86.553 3.52408 87.3879 3.87992L88.1721 2.04008C87.2581 1.65052 86.3061 1.31426 85.3165 1.03082L84.7658 2.9535ZM87.3879 3.87992C88.1231 4.19328 88.8169 4.53672 89.47 4.90978L90.462 3.17313C89.7382 2.75968 88.9747 2.38215 88.1721 2.04007L87.3879 3.87992ZM93.1045 7.7012C93.6366 8.2499 94.123 8.8354 94.564 9.45802L96.196 8.30198C95.6956 7.59557 95.1436 6.9311 94.5403 6.30889L93.1045 7.7012ZM94.572 9.46917C95.017 10.0795 95.4042 10.7162 95.7342 11.3794L97.5248 10.4885C97.144 9.72313 96.6982 8.99046 96.188 8.29082L94.572 9.46917ZM97.0304 15.6554C97.1298 16.3823 97.18 17.137 97.18 17.92H99.18C99.18 17.0514 99.1243 16.206 99.0119 15.3843L97.0304 15.6554ZM97.18 17.92C97.18 18.3559 97.1654 18.7919 97.1363 19.2279L99.1318 19.3614C99.1639 18.881 99.18 18.4005 99.18 17.92H97.18ZM96.7903 21.8245C96.7053 22.2506 96.6063 22.6771 96.4933 23.1041L98.4267 23.6159C98.5501 23.1496 98.6585 22.6829 98.7517 22.2158L96.7903 21.8245ZM96.4952 23.0969C96.3719 23.5489 96.215 24.0149 96.0231 24.4949L97.8802 25.2372C98.098 24.6923 98.2799 24.1543 98.4248 23.6231L96.4952 23.0969ZM94.6641 27.187C94.4104 27.6084 94.134 28.0378 93.8347 28.4753L95.4853 29.6047C95.805 29.1374 96.1025 28.6754 96.3775 28.2186L94.6641 27.187ZM93.8314 28.4801C93.4601 29.0297 93.031 29.6038 92.5428 30.2026L94.0928 31.4665C94.6136 30.8278 95.0793 30.2055 95.4886 29.5999L93.8314 28.4801ZM89.5816 33.4226C89.0799 33.9179 88.5471 34.4251 87.9829 34.9441L89.3371 36.4159C89.9171 35.8823 90.467 35.3589 90.9868 34.8458L89.5816 33.4226ZM87.9817 34.9452L86.595 36.2252L87.9516 37.6948L89.3383 36.4148L87.9817 34.9452ZM83.8217 38.7852L81.0484 41.3452L82.4049 42.8148L85.1783 40.2548L83.8217 38.7852ZM78.2751 43.9052L75.5017 46.4652L76.8583 47.9348L79.6316 45.3748L78.2751 43.9052ZM72.7284 49.0252L71.3417 50.3052L72.6983 51.7748L74.0849 50.4948L72.7284 49.0252ZM72.9245 50.6136L72.2645 49.2136L70.4555 50.0664L71.1155 51.4664L72.9245 50.6136ZM70.9445 46.4136L70.2845 45.0136L68.4755 45.8664L69.1355 47.2664L70.9445 46.4136ZM69.38 46.44H71.275V44.44H69.38V46.44ZM75.065 46.44H78.855V44.44H75.065V46.44ZM82.645 46.44H86.435V44.44H82.645V46.44ZM90.225 46.44H94.015V44.44H90.225V46.44ZM97.805 46.44H99.7V44.44H97.805V46.44ZM98.7 45.44V47.01H100.7V45.44H98.7ZM98.7 50.15V53.29H100.7V50.15H98.7ZM98.7 56.43V58H100.7V56.43H98.7ZM99.7 57H97.52V59H99.7V57ZM93.16 57H88.8V59H93.16V57ZM84.44 57H80.08V59H84.44V57ZM75.72 57H71.36V59H75.72V57ZM67 57H62.64V59H67V57ZM58.28 57H56.1V59H58.28V57Z" fill="url(#paint0_linear_27_315)" mask="url(#path-1-outside-1_27_315)"/>
</g>
<defs>
<linearGradient id="paint0_linear_27_315" x1="253" y1="57.8" x2="187.138" y2="-100.241" gradientUnits="userSpaceOnUse">
<stop stop-color="white" stop-opacity="0"/>
<stop offset="1" stop-color="white"/>
</linearGradient>
</defs>
</svg>
