<svg width="110" height="60" viewBox="0 0 110 60" fill="none" xmlns="http://www.w3.org/2000/svg">
<g opacity="0.4">
<mask id="path-1-outside-1_27_317" maskUnits="userSpaceOnUse" x="-1" y="-1" width="112" height="62" fill="black">
<rect fill="white" x="-1" y="-1" width="112" height="62"/>
<path d="M25.3213 59.12C20.5213 59.12 16.2546 57.9733 12.5213 55.68C8.84125 53.3867 5.93458 50.08 3.80125 45.76C1.66792 41.44 0.601251 36.1867 0.601251 30C0.601251 23.8133 1.66792 18.56 3.80125 14.24C5.93458 9.92 8.84125 6.61333 12.5213 4.32C16.2546 2.02666 20.5213 0.879996 25.3213 0.879996C30.0679 0.879996 34.2813 2.02666 37.9613 4.32C41.6946 6.61333 44.6279 9.92 46.7613 14.24C48.8946 18.56 49.9613 23.8133 49.9613 30C49.9613 36.1867 48.8946 41.44 46.7613 45.76C44.6279 50.08 41.6946 53.3867 37.9613 55.68C34.2813 57.9733 30.0679 59.12 25.3213 59.12ZM25.3213 46.16C27.0279 46.16 28.5213 45.6267 29.8013 44.56C31.1346 43.4933 32.1746 41.7867 32.9213 39.44C33.6679 37.04 34.0413 33.8933 34.0413 30C34.0413 26.0533 33.6679 22.9067 32.9213 20.56C32.1746 18.2133 31.1346 16.5067 29.8013 15.44C28.5213 14.3733 27.0279 13.84 25.3213 13.84C23.6146 13.84 22.0946 14.3733 20.7613 15.44C19.4813 16.5067 18.4413 18.2133 17.6413 20.56C16.8946 22.9067 16.5213 26.0533 16.5213 30C16.5213 33.8933 16.8946 37.04 17.6413 39.44C18.4413 41.7867 19.4813 43.4933 20.7613 44.56C22.0946 45.6267 23.6146 46.16 25.3213 46.16ZM56.4069 47.28V36.96L81.5269 2H97.9269L73.5269 36.96L66.0069 34.72H109.767V47.28H56.4069ZM86.0069 58V47.28L86.4869 34.72V25.2H101.447V58H86.0069Z"/>
</mask>
<path d="M12.5213 55.68L12.2568 56.1044L12.2595 56.106L12.5213 55.68ZM3.80125 45.76L3.35294 45.9814L3.80125 45.76ZM3.80125 14.24L3.35294 14.0186L3.80125 14.24ZM12.5213 4.32L12.2595 3.89395L12.2568 3.89566L12.5213 4.32ZM37.9613 4.32L37.6968 4.74435L37.6995 4.74604L37.9613 4.32ZM46.7613 14.24L46.3129 14.4614L46.7613 14.24ZM46.7613 45.76L46.3129 45.5386L46.7613 45.76ZM37.9613 55.68L37.6995 55.254L37.6968 55.2557L37.9613 55.68ZM29.8013 44.56L29.4888 44.1695L29.4812 44.1759L29.8013 44.56ZM32.9213 39.44L33.3977 39.5916L33.3987 39.5885L32.9213 39.44ZM32.9213 20.56L32.4448 20.7116L32.9213 20.56ZM29.8013 15.44L29.4811 15.8242L29.4889 15.8304L29.8013 15.44ZM20.7613 15.44L20.4488 15.0495L20.4412 15.0559L20.7613 15.44ZM17.6413 20.56L17.1679 20.3986L17.1648 20.4084L17.6413 20.56ZM17.6413 39.44L17.1637 39.5886L17.168 39.6013L17.6413 39.44ZM20.7613 44.56L20.4411 44.9442L20.4489 44.9504L20.7613 44.56ZM25.3213 58.62C24.7639 58.62 24.2143 58.6043 23.6723 58.5729L23.6145 59.5712C24.1762 59.6038 24.7451 59.62 25.3213 59.62V58.62ZM20.4057 58.1769C19.3127 57.9711 18.2542 57.6937 17.2297 57.345L16.9074 58.2916C17.9779 58.656 19.0823 58.9453 20.2206 59.1596L20.4057 58.1769ZM14.2121 56.0608C13.7272 55.8103 13.2509 55.5414 12.783 55.254L12.2595 56.106C12.7483 56.4063 13.2462 56.6874 13.7531 56.9493L14.2121 56.0608ZM12.7857 55.2557C12.3219 54.9666 11.8707 54.6611 11.4321 54.3392L10.8404 55.1454C11.2995 55.4823 11.7716 55.802 12.2568 56.1043L12.7857 55.2557ZM8.95295 52.2117C8.19142 51.4515 7.47749 50.6273 6.81124 49.7387L6.01118 50.3386C6.70514 51.2641 7.45019 52.1245 8.24643 52.9194L8.95295 52.2117ZM5.01893 46.9919C4.7522 46.5215 4.49573 46.0371 4.24957 45.5386L3.35294 45.9814C3.60731 46.4965 3.87267 46.9978 4.14905 47.4852L5.01893 46.9919ZM4.24957 45.5386C3.95954 44.9513 3.68942 44.346 3.43927 43.7226L2.51121 44.0951C2.7707 44.7417 3.05126 45.3705 3.35294 45.9814L4.24957 45.5386ZM2.2189 39.9294C1.90639 38.6795 1.65911 37.3704 1.47746 36.0017L0.486149 36.1332C0.672432 37.5368 0.92651 38.8831 1.24876 40.172L2.2189 39.9294ZM1.14038 32.0082C1.1143 31.3506 1.10125 30.6811 1.10125 30H0.10125C0.10125 30.6939 0.114546 31.3765 0.141165 32.0478L1.14038 32.0082ZM1.10125 30C1.10125 29.3188 1.1143 28.6494 1.14038 27.9918L0.141165 27.9522C0.114546 28.6235 0.10125 29.3061 0.10125 30H1.10125ZM1.47746 23.9983C1.65911 22.6296 1.90639 21.3205 2.2189 20.0706L1.24876 19.828C0.92651 21.1169 0.672432 22.4632 0.486149 23.8668L1.47746 23.9983ZM3.43927 16.2774C3.68942 15.654 3.95954 15.0487 4.24957 14.4614L3.35294 14.0186C3.05126 14.6295 2.7707 15.2583 2.51121 15.9049L3.43927 16.2774ZM4.24957 14.4614C4.49573 13.9629 4.7522 13.4785 5.01894 13.0081L4.14905 12.5148C3.87267 13.0022 3.60731 13.5035 3.35294 14.0186L4.24957 14.4614ZM6.81124 10.2613C7.47749 9.37274 8.19142 8.54852 8.95295 7.78826L8.24643 7.08056C7.45019 7.87547 6.70514 8.73586 6.01118 9.66137L6.81124 10.2613ZM11.4321 5.66075C11.8707 5.33886 12.3219 5.03339 12.7857 4.74434L12.2568 3.89566C11.7716 4.19803 11.2995 4.51767 10.8404 4.8546L11.4321 5.66075ZM12.783 4.74604C13.2509 4.45861 13.7272 4.18966 14.2121 3.93916L13.7531 3.05073C13.2462 3.31262 12.7483 3.5937 12.2595 3.89396L12.783 4.74604ZM17.2297 2.65504C18.2542 2.30627 19.3127 2.02889 20.4057 1.82309L20.2206 0.840362C19.0823 1.0547 17.9779 1.34397 16.9074 1.70839L17.2297 2.65504ZM23.6723 1.42711C24.2143 1.39571 24.7639 1.38 25.3213 1.38V0.379996C24.7451 0.379996 24.1762 0.396245 23.6145 0.428783L23.6723 1.42711ZM25.3213 1.38C25.8721 1.38 26.4153 1.39571 26.9508 1.42708L27.0093 0.428794C26.4538 0.396248 25.8911 0.379996 25.3213 0.379996V1.38ZM30.1783 1.82299C31.2578 2.02877 32.3029 2.30614 33.3139 2.65489L33.64 1.70956C32.5825 1.34476 31.491 1.0552 30.3656 0.840674L30.1783 1.82299ZM36.2895 3.9384C36.767 4.18862 37.2361 4.45726 37.6968 4.74434L38.2257 3.89566C37.744 3.59549 37.2533 3.31447 36.7536 3.05262L36.2895 3.9384ZM37.6995 4.74604C38.1678 5.03366 38.623 5.33751 39.0653 5.6576L39.6516 4.84749C39.1887 4.51253 38.7125 4.19469 38.223 3.89396L37.6995 4.74604ZM41.5691 7.77805C42.3396 8.538 43.0607 9.3619 43.7324 10.2501L44.53 9.64693C43.83 8.72125 43.0771 7.86085 42.2713 7.06609L41.5691 7.77805ZM45.5395 13.0028C45.808 13.4749 46.0659 13.961 46.3129 14.4614L47.2096 14.0186C46.9541 13.5012 46.6871 12.9978 46.4087 12.5084L45.5395 13.0028ZM46.3129 14.4614C46.603 15.0487 46.8731 15.654 47.1232 16.2774L48.0513 15.9049C47.7918 15.2583 47.5112 14.6295 47.2096 14.0186L46.3129 14.4614ZM48.3436 20.0706C48.6561 21.3205 48.9034 22.6296 49.085 23.9983L50.0764 23.8668C49.8901 22.4632 49.636 21.1169 49.3137 19.828L48.3436 20.0706ZM49.4221 27.9918C49.4482 28.6494 49.4613 29.3188 49.4613 30H50.4613C50.4613 29.3061 50.448 28.6235 50.4213 27.9522L49.4221 27.9918ZM49.4613 30C49.4613 30.6811 49.4482 31.3506 49.4221 32.0082L50.4213 32.0478C50.448 31.3765 50.4613 30.6939 50.4613 30H49.4613ZM49.085 36.0017C48.9034 37.3704 48.6561 38.6795 48.3436 39.9294L49.3137 40.172C49.636 38.8831 49.8901 37.5368 50.0764 36.1332L49.085 36.0017ZM47.1232 43.7226C46.8731 44.346 46.603 44.9513 46.3129 45.5386L47.2096 45.9814C47.5112 45.3705 47.7918 44.7417 48.0513 44.0951L47.1232 43.7226ZM46.3129 45.5386C46.0659 46.0389 45.808 46.5251 45.5395 46.9972L46.4087 47.4916C46.6871 47.0022 46.9541 46.4988 47.2096 45.9814L46.3129 45.5386ZM43.7324 49.7499C43.0607 50.6381 42.3396 51.462 41.5691 52.2219L42.2713 52.9339C43.0771 52.1391 43.83 51.2787 44.53 50.3531L43.7324 49.7499ZM39.0653 54.3424C38.623 54.6625 38.1678 54.9663 37.6995 55.254L38.223 56.106C38.7125 55.8053 39.1887 55.4875 39.6516 55.1525L39.0653 54.3424ZM37.6968 55.2557C37.2361 55.5427 36.767 55.8114 36.2895 56.0616L36.7536 56.9474C37.2533 56.6855 37.744 56.4045 38.2257 56.1043L37.6968 55.2557ZM33.3139 57.3451C32.3029 57.6939 31.2578 57.9712 30.1783 58.177L30.3656 59.1593C31.491 58.9448 32.5825 58.6552 33.64 58.2904L33.3139 57.3451ZM26.9508 58.5729C26.4153 58.6043 25.8721 58.62 25.3213 58.62V59.62C25.8911 59.62 26.4538 59.6038 27.0093 59.5712L26.9508 58.5729ZM25.3213 45.66C24.9266 45.66 24.5443 45.6296 24.1742 45.5694L24.0136 46.5564C24.4391 46.6256 24.8751 46.66 25.3213 46.66V45.66ZM22.0259 44.8155C21.6993 44.6313 21.3819 44.4162 21.0736 44.1696L20.4489 44.9504C20.7973 45.2292 21.1592 45.4747 21.5346 45.6865L22.0259 44.8155ZM21.0813 44.1759C20.7391 43.8907 20.4119 43.5529 20.1003 43.1603L19.317 43.7819C19.6669 44.2228 20.0413 44.6109 20.4412 44.9441L21.0813 44.1759ZM18.645 40.6561C18.4582 40.2271 18.2813 39.768 18.1145 39.2787L17.168 39.6013C17.3428 40.1141 17.5294 40.5989 17.7281 41.0552L18.645 40.6561ZM18.1187 39.2915C17.9053 38.6057 17.7222 37.8532 17.5701 37.033L16.5869 37.2153C16.7451 38.0687 16.9372 38.8601 17.1638 39.5885L18.1187 39.2915ZM17.0715 32.3625C17.038 31.6094 17.0213 30.8219 17.0213 30H16.0213C16.0213 30.8355 16.0383 31.6378 16.0725 32.4069L17.0715 32.3625ZM17.0213 30C17.0213 29.1761 17.0377 28.3884 17.0704 27.6367L16.0713 27.5932C16.0379 28.3606 16.0213 29.163 16.0213 30H17.0213ZM17.5642 22.9656C17.7173 22.1401 17.9021 21.3891 18.1177 20.7116L17.1648 20.4084C16.9347 21.1314 16.7405 21.9234 16.5809 22.7833L17.5642 22.9656ZM18.1145 20.7213C18.2813 20.232 18.4582 19.7729 18.645 19.3439L17.7281 18.9448C17.5294 19.4011 17.3428 19.8859 17.168 20.3987L18.1145 20.7213ZM20.1003 16.8397C20.4119 16.4471 20.7391 16.1093 21.0813 15.8241L20.4412 15.0559C20.0413 15.3891 19.6669 15.7772 19.317 16.2181L20.1003 16.8397ZM21.0736 15.8304C21.3819 15.5838 21.6993 15.3687 22.0259 15.1845L21.5346 14.3135C21.1592 14.5253 20.7973 14.7708 20.4489 15.0496L21.0736 15.8304ZM24.1742 14.4306C24.5443 14.3704 24.9266 14.34 25.3213 14.34V13.34C24.8751 13.34 24.4391 13.3744 24.0136 13.4436L24.1742 14.4306ZM25.3213 14.34C25.7117 14.34 26.0882 14.3697 26.451 14.4286L26.6111 13.4415C26.1927 13.3736 25.7626 13.34 25.3213 13.34V14.34ZM28.5573 15.1765C28.8761 15.3609 29.1841 15.5765 29.4812 15.8241L30.1213 15.0559C29.7824 14.7734 29.4279 14.5248 29.058 14.3109L28.5573 15.1765ZM29.4889 15.8304C29.8406 16.1118 30.1732 16.4439 30.4861 16.8287L31.262 16.1977C30.9077 15.7622 30.5252 15.3788 30.1136 15.0496L29.4889 15.8304ZM31.9373 19.3271C32.1189 19.7579 32.2881 20.2193 32.4448 20.7116L33.3977 20.4084C33.2327 19.8899 33.0532 19.3999 32.8587 18.9386L31.9373 19.3271ZM32.4448 20.7116C32.6604 21.3891 32.8452 22.1401 32.9983 22.9656L33.9816 22.7833C33.8221 21.9234 33.6278 21.1314 33.3977 20.4084L32.4448 20.7116ZM33.4921 27.6367C33.5249 28.3884 33.5413 29.1761 33.5413 30H34.5413C34.5413 29.163 34.5246 28.3606 34.4912 27.5932L33.4921 27.6367ZM33.5413 30C33.5413 30.8219 33.5245 31.6094 33.491 32.3625L34.49 32.4069C34.5242 31.6378 34.5413 30.8355 34.5413 30H33.5413ZM32.9924 37.033C32.8403 37.8532 32.6572 38.6057 32.4438 39.2915L33.3987 39.5885C33.6253 38.8601 33.8174 38.0687 33.9756 37.2153L32.9924 37.033ZM32.4448 39.2884C32.2881 39.7807 32.1189 40.2421 31.9373 40.6729L32.8587 41.0614C33.0532 40.6001 33.2327 40.1101 33.3977 39.5916L32.4448 39.2884ZM30.4861 43.1713C30.1732 43.5561 29.8406 43.8882 29.4889 44.1696L30.1136 44.9504C30.5252 44.6212 30.9077 44.2378 31.262 43.8023L30.4861 43.1713ZM29.4812 44.1759C29.1841 44.4235 28.8761 44.6391 28.5573 44.8235L29.058 45.6891C29.4279 45.4752 29.7824 45.2266 30.1213 44.9441L29.4812 44.1759ZM26.451 45.5714C26.0882 45.6303 25.7117 45.66 25.3213 45.66V46.66C25.7626 46.66 26.1927 46.6264 26.6111 46.5585L26.451 45.5714ZM12.5213 55.68L11.9923 56.5287L11.9978 56.5321L12.5213 55.68ZM3.80125 45.76L2.90462 46.2028L3.80125 45.76ZM3.80125 14.24L2.90462 13.7972V13.7972L3.80125 14.24ZM12.5213 4.32L11.9978 3.46791L11.9924 3.47131L12.5213 4.32ZM37.9613 4.32L37.4324 5.1687L37.4378 5.17208L37.9613 4.32ZM46.7613 14.24L45.8646 14.6828L46.7613 14.24ZM46.7613 45.76L45.8646 45.3172H45.8646L46.7613 45.76ZM37.9613 55.68L37.4378 54.8279L37.4324 54.8313L37.9613 55.68ZM29.8013 44.56L29.1766 43.7791L29.1687 43.7854L29.1611 43.7918L29.8013 44.56ZM32.9213 39.44L33.8742 39.7432L33.8761 39.7371L32.9213 39.44ZM32.9213 20.56L31.9683 20.8632L32.9213 20.56ZM29.8013 15.44L29.1611 16.2082L29.1687 16.2146L29.1766 16.2209L29.8013 15.44ZM20.7613 15.44L20.1366 14.6591L20.1287 14.6654L20.1211 14.6718L20.7613 15.44ZM17.6413 20.56L16.6947 20.2373L16.6914 20.247L16.6883 20.2568L17.6413 20.56ZM17.6413 39.44L16.6864 39.7371L16.6904 39.7499L16.6947 39.7627L17.6413 39.44ZM20.7613 44.56L20.1211 45.3282L20.1287 45.3346L20.1366 45.3409L20.7613 44.56ZM25.3213 58.12C24.7733 58.12 24.2334 58.1045 23.7013 58.0737L23.5856 60.0704C24.1572 60.1035 24.7357 60.12 25.3213 60.12V58.12ZM20.4982 57.6855C19.4279 57.484 18.3923 57.2126 17.3909 56.8716L16.7463 58.7649C17.8397 59.1372 18.9672 59.4324 20.1281 59.651L20.4982 57.6855ZM14.4416 55.6166C13.9678 55.3718 13.5021 55.1089 13.0447 54.8279L11.9978 56.5321C12.4971 56.8388 13.0056 57.1259 13.5235 57.3935L14.4416 55.6166ZM13.0501 54.8313C12.597 54.5489 12.1563 54.2505 11.728 53.9362L10.5446 55.5485C11.0139 55.8929 11.4965 56.2197 11.9924 56.5287L13.0501 54.8313ZM9.30621 51.8579C8.56203 51.115 7.86366 50.3088 7.21128 49.4388L5.61114 50.6386C6.31896 51.5826 7.07958 52.461 7.89317 53.2733L9.30621 51.8579ZM5.45388 46.7453C5.19196 46.2834 4.93994 45.8074 4.69788 45.3172L2.90462 46.2028C3.1631 46.7262 3.43291 47.2359 3.71411 47.7318L5.45388 46.7453ZM4.69788 45.3172C4.41368 44.7417 4.14878 44.1482 3.9033 43.5364L2.04718 44.2813C2.31134 44.9396 2.59712 45.5801 2.90462 46.2028L4.69788 45.3172ZM2.70397 39.8082C2.39633 38.5777 2.15246 37.2872 1.97311 35.9359L-0.00950623 36.199C0.17909 37.62 0.436571 38.9849 0.763693 40.2933L2.70397 39.8082ZM1.63999 31.9884C1.61418 31.3376 1.60125 30.6748 1.60125 30H-0.39875C-0.39875 30.7003 -0.385332 31.3895 -0.358444 32.0676L1.63999 31.9884ZM1.60125 30C1.60125 29.3252 1.61418 28.6624 1.63999 28.0116L-0.358444 27.9324C-0.385332 28.6105 -0.39875 29.2997 -0.39875 30H1.60125ZM1.97311 24.0641C2.15246 22.7128 2.39633 21.4223 2.70397 20.1918L0.763693 19.7067C0.436571 21.0151 0.17909 22.38 -0.00950432 23.801L1.97311 24.0641ZM3.9033 16.4636C4.14878 15.8518 4.41368 15.2583 4.69788 14.6828L2.90462 13.7972C2.59712 14.4199 2.31134 15.0604 2.04718 15.7187L3.9033 16.4636ZM4.69788 14.6828C4.93994 14.1926 5.19196 13.7166 5.45388 13.2547L3.71411 12.2682C3.43291 12.7641 3.1631 13.2738 2.90462 13.7972L4.69788 14.6828ZM7.21128 10.5612C7.86366 9.69118 8.56203 8.88504 9.30621 8.1421L7.89317 6.72671C7.07958 7.53895 6.31896 8.41743 5.61114 9.36142L7.21128 10.5612ZM11.728 6.06383C12.1563 5.74946 12.597 5.45108 13.0501 5.16869L11.9924 3.47131C11.4965 3.78034 11.0139 4.10708 10.5446 4.45152L11.728 6.06383ZM13.0447 5.17208C13.5021 4.89106 13.9678 4.62818 14.4416 4.38337L13.5235 2.60652C13.0056 2.8741 12.4971 3.16125 11.9978 3.46792L13.0447 5.17208ZM17.3909 3.12836C18.3923 2.78742 19.4279 2.51598 20.4982 2.31446L20.1281 0.348997C18.9672 0.567599 17.8397 0.862824 16.7463 1.23507L17.3909 3.12836ZM23.7013 1.92627C24.2334 1.89545 24.7733 1.88 25.3213 1.88V-0.120004C24.7357 -0.120004 24.1572 -0.10349 23.5856 -0.0703793L23.7013 1.92627ZM25.3213 1.88C25.8626 1.88 26.396 1.89543 26.9215 1.92623L27.0385 -0.0703497C26.4731 -0.10348 25.9006 -0.120004 25.3213 -0.120004V1.88ZM30.0847 2.31414C31.1412 2.51555 32.1631 2.78682 33.1509 3.12756L33.8031 1.23689C32.7223 0.864079 31.6075 0.568422 30.4592 0.349519L30.0847 2.31414ZM36.0574 4.38129C36.5239 4.6257 36.9822 4.88814 37.4324 5.16869L38.4902 3.47131C37.998 3.1646 37.4965 2.87739 36.9856 2.60973L36.0574 4.38129ZM37.4378 5.17208C37.8954 5.45314 38.3401 5.74999 38.7721 6.06265L39.9447 4.44243C39.4716 4.10005 38.9849 3.77521 38.4847 3.46792L37.4378 5.17208ZM41.218 8.13403C41.9708 8.87657 42.6761 9.68222 43.3336 10.5517L44.9288 9.34535C44.2146 8.40093 43.4459 7.52228 42.6224 6.7101L41.218 8.13403ZM45.1049 13.2501C45.3685 13.7134 45.6217 14.191 45.8646 14.6828L47.6579 13.7972C47.3982 13.2713 47.1267 12.7593 46.8433 12.2611L45.1049 13.2501ZM45.8646 14.6828C46.1488 15.2583 46.4137 15.8518 46.6592 16.4636L48.5153 15.7187C48.2512 15.0604 47.9654 14.4199 47.6579 13.7972L45.8646 14.6828ZM47.8585 20.1918C48.1662 21.4223 48.41 22.7128 48.5894 24.0641L50.572 23.801C50.3834 22.38 50.1259 21.0151 49.7988 19.7067L47.8585 20.1918ZM48.9225 28.0116C48.9483 28.6624 48.9613 29.3252 48.9613 30H50.9613C50.9613 29.2997 50.9478 28.6105 50.9209 27.9324L48.9225 28.0116ZM48.9613 30C48.9613 30.6748 48.9483 31.3376 48.9225 31.9884L50.9209 32.0676C50.9478 31.3895 50.9613 30.7003 50.9613 30H48.9613ZM48.5894 35.9359C48.41 37.2872 48.1662 38.5777 47.8585 39.8082L49.7988 40.2933C50.1259 38.9849 50.3834 37.62 50.572 36.199L48.5894 35.9359ZM46.6592 43.5364C46.4137 44.1481 46.1488 44.7417 45.8646 45.3172L47.6579 46.2028C47.9654 45.5801 48.2512 44.9396 48.5153 44.2813L46.6592 43.5364ZM45.8646 45.3172C45.6217 45.809 45.3685 46.2866 45.1049 46.7499L46.8433 47.7389C47.1267 47.2407 47.3982 46.7287 47.6579 46.2028L45.8646 45.3172ZM43.3336 49.4483C42.6761 50.3178 41.9708 51.1234 41.218 51.866L42.6224 53.2899C43.4459 52.4777 44.2146 51.5991 44.9288 50.6546L43.3336 49.4483ZM38.7721 53.9373C38.3401 54.25 37.8954 54.5469 37.4378 54.8279L38.4847 56.5321C38.9849 56.2248 39.4716 55.9 39.9447 55.5576L38.7721 53.9373ZM37.4324 54.8313C36.9822 55.1119 36.5239 55.3743 36.0574 55.6187L36.9856 57.3903C37.4965 57.1226 37.998 56.8354 38.4902 56.5287L37.4324 54.8313ZM33.1509 56.8724C32.1631 57.2132 31.1412 57.4845 30.0847 57.6859L30.4592 59.6505C31.6075 59.4316 32.7223 59.1359 33.8031 58.7631L33.1509 56.8724ZM26.9215 58.0738C26.396 58.1046 25.8626 58.12 25.3213 58.12V60.12C25.9006 60.12 26.4731 60.1035 27.0385 60.0703L26.9215 58.0738ZM25.3213 45.16C24.9523 45.16 24.597 45.1316 24.2545 45.0759L23.9333 47.0499C24.3864 47.1237 24.8493 47.16 25.3213 47.16V45.16ZM22.2715 44.38C21.9694 44.2095 21.6741 44.0097 21.3859 43.7791L20.1366 45.3409C20.505 45.6357 20.8891 45.8965 21.2889 46.122L22.2715 44.38ZM21.4014 43.7918C21.088 43.5306 20.7844 43.218 20.492 42.8495L18.9254 44.0927C19.2944 44.5578 19.6924 44.971 20.1211 45.3282L21.4014 43.7918ZM19.1034 40.4566C18.9226 40.0412 18.7506 39.595 18.5878 39.1173L16.6947 39.7627C16.8736 40.2872 17.065 40.7848 17.2696 41.2548L19.1034 40.4566ZM18.5961 39.1429C18.3894 38.4785 18.2108 37.7454 18.0617 36.9418L16.0953 37.3065C16.2566 38.1765 16.4531 38.9872 16.6864 39.7371L18.5961 39.1429ZM17.571 32.3402C17.5379 31.5952 17.5213 30.8152 17.5213 30H15.5213C15.5213 30.8422 15.5384 31.652 15.573 32.4291L17.571 32.3402ZM17.5213 30C17.5213 29.1827 17.5375 28.4023 17.5699 27.6584L15.5718 27.5714C15.538 28.3468 15.5213 29.1564 15.5213 30H17.5213ZM18.0558 23.0568C18.2057 22.2484 18.3858 21.518 18.5942 20.8632L16.6883 20.2568C16.451 21.0025 16.252 21.815 16.0893 22.6921L18.0558 23.0568ZM18.5878 20.8827C18.7506 20.405 18.9226 19.9588 19.1034 19.5434L17.2696 18.7452C17.065 19.2152 16.8736 19.7128 16.6947 20.2373L18.5878 20.8827ZM20.492 17.1505C20.7844 16.782 21.088 16.4694 21.4014 16.2082L20.1211 14.6718C19.6924 15.029 19.2944 15.4422 18.9254 15.9073L20.492 17.1505ZM21.3859 16.2209C21.6741 15.9903 21.9694 15.7905 22.2715 15.62L21.2889 13.878C20.8891 14.1035 20.505 14.3643 20.1366 14.6591L21.3859 16.2209ZM24.2545 14.9241C24.597 14.8684 24.9523 14.84 25.3213 14.84V12.84C24.8493 12.84 24.3864 12.8763 23.9333 12.9501L24.2545 14.9241ZM25.3213 14.84C25.6863 14.84 26.0359 14.8678 26.3709 14.9221L26.6912 12.9479C26.245 12.8756 25.7881 12.84 25.3213 12.84V14.84ZM28.307 15.6093C28.6002 15.7789 28.8849 15.9781 29.1611 16.2082L30.4414 14.6718C30.0815 14.3718 29.7038 14.1068 29.3083 13.878L28.307 15.6093ZM29.1766 16.2209C29.4983 16.4783 29.8059 16.7847 30.0982 17.1441L31.6499 15.8822C31.275 15.4213 30.8675 15.0123 30.4259 14.6591L29.1766 16.2209ZM31.4765 19.5213C31.6517 19.9369 31.8158 20.384 31.9683 20.8632L33.8742 20.2568C33.705 19.7252 33.5203 19.2209 33.3195 18.7444L31.4765 19.5213ZM31.9683 20.8632C32.1767 21.518 32.3568 22.2484 32.5067 23.0568L34.4732 22.6921C34.3105 21.815 34.1115 21.0025 33.8742 20.2568L31.9683 20.8632ZM32.9926 27.6584C33.025 28.4023 33.0413 29.1827 33.0413 30H35.0413C35.0413 29.1564 35.0245 28.3468 34.9907 27.5714L32.9926 27.6584ZM33.0413 30C33.0413 30.8152 33.0246 31.5952 32.9915 32.3402L34.9895 32.4291C35.0241 31.652 35.0413 30.8422 35.0413 30H33.0413ZM32.5008 36.9418C32.3517 37.7454 32.1731 38.4785 31.9664 39.1429L33.8761 39.7371C34.1094 38.9872 34.3059 38.1765 34.4672 37.3065L32.5008 36.9418ZM31.9683 39.1368C31.8158 39.616 31.6517 40.0631 31.4765 40.4787L33.3195 41.2556C33.5203 40.7791 33.705 40.2748 33.8742 39.7432L31.9683 39.1368ZM30.0982 42.8559C29.8059 43.2153 29.4983 43.5217 29.1766 43.7791L30.4259 45.3409C30.8675 44.9877 31.275 44.5787 31.6499 44.1178L30.0982 42.8559ZM29.1611 43.7918C28.8849 44.0219 28.6002 44.2211 28.307 44.3907L29.3083 46.122C29.7038 45.8932 30.0815 45.6282 30.4414 45.3282L29.1611 43.7918ZM26.3709 45.0779C26.0359 45.1322 25.6863 45.16 25.3213 45.16V47.16C25.7881 47.16 26.245 47.1244 26.6912 47.0521L26.3709 45.0779ZM56.4069 47.28H55.9069V47.78H56.4069V47.28ZM56.4069 36.96L56.0008 36.6682L55.9069 36.799V36.96H56.4069ZM81.5269 2V1.5H81.2705L81.1208 1.70824L81.5269 2ZM97.9269 2L98.3369 2.28616L98.8856 1.5H97.9269V2ZM73.5269 36.96L73.3841 37.4392L73.7302 37.5423L73.9369 37.2462L73.5269 36.96ZM66.0069 34.72V34.22L65.8641 35.1992L66.0069 34.72ZM109.767 34.72H110.267V34.22H109.767V34.72ZM109.767 47.28V47.78H110.267V47.28H109.767ZM86.0069 58H85.5069V58.5H86.0069V58ZM86.0069 47.28L85.5072 47.2609L85.5069 47.2705V47.28H86.0069ZM86.4869 34.72L86.9865 34.7391L86.9869 34.7295V34.72H86.4869ZM86.4869 25.2V24.7H85.9869V25.2H86.4869ZM101.447 25.2H101.947V24.7H101.447V25.2ZM101.447 58V58.5H101.947V58H101.447ZM56.9069 47.28V44.7H55.9069V47.28H56.9069ZM56.9069 39.54V36.96H55.9069V39.54H56.9069ZM56.8129 37.2518L58.0689 35.5038L57.2568 34.9202L56.0008 36.6682L56.8129 37.2518ZM60.5809 32.0078L63.0929 28.5118L62.2808 27.9282L59.7688 31.4242L60.5809 32.0078ZM65.6049 25.0158L68.1169 21.5198L67.3048 20.9362L64.7928 24.4322L65.6049 25.0158ZM70.6289 18.0238L73.1409 14.5278L72.3288 13.9442L69.8168 17.4402L70.6289 18.0238ZM75.6529 11.0318L78.1649 7.53575L77.3528 6.95223L74.8408 10.4482L75.6529 11.0318ZM80.6769 4.03975L81.9329 2.29176L81.1208 1.70824L79.8648 3.45623L80.6769 4.03975ZM81.5269 2.5H83.5769V1.5H81.5269V2.5ZM87.6769 2.5H91.7769V1.5H87.6769V2.5ZM95.8769 2.5H97.9269V1.5H95.8769V2.5ZM97.5169 1.71383L96.2969 3.46183L97.1169 4.03416L98.3369 2.28616L97.5169 1.71383ZM93.8569 6.95783L91.4169 10.4538L92.2369 11.0262L94.6769 7.53016L93.8569 6.95783ZM88.9769 13.9498L86.5369 17.4458L87.3569 18.0182L89.7969 14.5222L88.9769 13.9498ZM84.0969 20.9418L81.6569 24.4378L82.4769 25.0102L84.9169 21.5142L84.0969 20.9418ZM79.2169 27.9338L76.7769 31.4298L77.5969 32.0022L80.0369 28.5062L79.2169 27.9338ZM74.3369 34.9258L73.1169 36.6738L73.9369 37.2462L75.1569 35.4982L74.3369 34.9258ZM73.6696 36.4808L71.7896 35.9208L71.5041 36.8792L73.3841 37.4392L73.6696 36.4808ZM68.0296 34.8008L66.1496 34.2408L65.8641 35.1992L67.7441 35.7592L68.0296 34.8008ZM66.0069 35.22H68.1949V34.22H66.0069V35.22ZM72.5709 35.22H76.9469V34.22H72.5709V35.22ZM81.3229 35.22H85.6989V34.22H81.3229V35.22ZM90.0749 35.22H94.4509V34.22H90.0749V35.22ZM98.8269 35.22H103.203V34.22H98.8269V35.22ZM107.579 35.22H109.767V34.22H107.579V35.22ZM109.267 34.72V36.29H110.267V34.72H109.267ZM109.267 39.43V42.57H110.267V39.43H109.267ZM109.267 45.71V47.28H110.267V45.71H109.267ZM109.767 46.78H107.861V47.78H109.767V46.78ZM104.05 46.78H100.238V47.78H104.05V46.78ZM96.4269 46.78H92.6154V47.78H96.4269V46.78ZM88.804 46.78H84.9926V47.78H88.804V46.78ZM81.1812 46.78H77.3697V47.78H81.1812V46.78ZM73.5583 46.78H69.7469V47.78H73.5583V46.78ZM65.9354 46.78H62.124V47.78H65.9354V46.78ZM58.3126 46.78H56.4069V47.78H58.3126V46.78ZM86.5069 58V55.32H85.5069V58H86.5069ZM86.5069 49.96V47.28H85.5069V49.96H86.5069ZM86.5065 47.2991L86.5665 45.7291L85.5672 45.6909L85.5072 47.2609L86.5065 47.2991ZM86.6865 42.5891L86.8065 39.4491L85.8072 39.4109L85.6872 42.5509L86.6865 42.5891ZM86.9265 36.3091L86.9865 34.7391L85.9872 34.7009L85.9272 36.2709L86.9265 36.3091ZM86.9869 34.72V32.34H85.9869V34.72H86.9869ZM86.9869 27.58V25.2H85.9869V27.58H86.9869ZM86.4869 25.7H88.3569V24.7H86.4869V25.7ZM92.0969 25.7H95.8369V24.7H92.0969V25.7ZM99.5769 25.7H101.447V24.7H99.5769V25.7ZM100.947 25.2V27.25H101.947V25.2H100.947ZM100.947 31.35V35.45H101.947V31.35H100.947ZM100.947 39.55V43.65H101.947V39.55H100.947ZM100.947 47.75V51.85H101.947V47.75H100.947ZM100.947 55.95V58H101.947V55.95H100.947ZM101.447 57.5H99.5169V58.5H101.447V57.5ZM95.6569 57.5H91.7969V58.5H95.6569V57.5ZM87.9369 57.5H86.0069V58.5H87.9369V57.5ZM56.4069 47.28H55.4069V48.28H56.4069V47.28ZM56.4069 36.96L55.5948 36.3765L55.4069 36.638V36.96H56.4069ZM81.5269 2V0.999996H81.014L80.7148 1.41648L81.5269 2ZM97.9269 2L98.7469 2.57232L99.8443 0.999996H97.9269V2ZM73.5269 36.96L73.2414 37.9184L73.9336 38.1246L74.3469 37.5323L73.5269 36.96ZM66.0069 34.72V33.72L65.7214 35.6784L66.0069 34.72ZM109.767 34.72H110.767V33.72H109.767V34.72ZM109.767 47.28V48.28H110.767V47.28H109.767ZM86.0069 58H85.0069V59H86.0069V58ZM86.0069 47.28L85.0076 47.2418L85.0069 47.2609V47.28H86.0069ZM86.4869 34.72L87.4861 34.7582L87.4869 34.7391V34.72H86.4869ZM86.4869 25.2V24.2H85.4869V25.2H86.4869ZM101.447 25.2H102.447V24.2H101.447V25.2ZM101.447 58V59H102.447V58H101.447ZM57.4069 47.28V44.7H55.4069V47.28H57.4069ZM57.4069 39.54V36.96H55.4069V39.54H57.4069ZM57.219 37.5435L58.475 35.7955L56.8508 34.6285L55.5948 36.3765L57.219 37.5435ZM60.987 32.2995L63.499 28.8035L61.8748 27.6365L59.3628 31.1325L60.987 32.2995ZM66.011 25.3075L68.523 21.8115L66.8988 20.6445L64.3868 24.1405L66.011 25.3075ZM71.035 18.3155L73.547 14.8195L71.9228 13.6525L69.4108 17.1485L71.035 18.3155ZM76.059 11.3235L78.571 7.82751L76.9468 6.66047L74.4348 10.1565L76.059 11.3235ZM81.083 4.33151L82.339 2.58352L80.7148 1.41648L79.4588 3.16447L81.083 4.33151ZM81.5269 3H83.5769V0.999996H81.5269V3ZM87.6769 3H91.7769V0.999996H87.6769V3ZM95.8769 3H97.9269V0.999996H95.8769V3ZM97.1068 1.42767L95.8868 3.17567L97.5269 4.32032L98.7469 2.57232L97.1068 1.42767ZM93.4468 6.67167L91.0069 10.1677L92.6469 11.3123L95.0869 7.81632L93.4468 6.67167ZM88.5668 13.6637L86.1268 17.1597L87.7669 18.3043L90.2069 14.8083L88.5668 13.6637ZM83.6869 20.6557L81.2468 24.1517L82.8869 25.2963L85.3269 21.8003L83.6869 20.6557ZM78.8068 27.6477L76.3669 31.1437L78.0069 32.2883L80.4469 28.7923L78.8068 27.6477ZM73.9268 34.6397L72.7068 36.3877L74.3469 37.5323L75.5669 35.7843L73.9268 34.6397ZM73.8123 36.0016L71.9324 35.4416L71.3614 37.3584L73.2414 37.9184L73.8123 36.0016ZM68.1723 34.3216L66.2924 33.7616L65.7214 35.6784L67.6014 36.2384L68.1723 34.3216ZM66.0069 35.72H68.1949V33.72H66.0069V35.72ZM72.5709 35.72H76.9469V33.72H72.5709V35.72ZM81.3229 35.72H85.6989V33.72H81.3229V35.72ZM90.0749 35.72H94.4509V33.72H90.0749V35.72ZM98.8269 35.72H103.203V33.72H98.8269V35.72ZM107.579 35.72H109.767V33.72H107.579V35.72ZM108.767 34.72V36.29H110.767V34.72H108.767ZM108.767 39.43V42.57H110.767V39.43H108.767ZM108.767 45.71V47.28H110.767V45.71H108.767ZM109.767 46.28H107.861V48.28H109.767V46.28ZM104.05 46.28H100.238V48.28H104.05V46.28ZM96.4269 46.28H92.6154V48.28H96.4269V46.28ZM88.804 46.28H84.9926V48.28H88.804V46.28ZM81.1812 46.28H77.3697V48.28H81.1812V46.28ZM73.5583 46.28H69.7469V48.28H73.5583V46.28ZM65.9354 46.28H62.124V48.28H65.9354V46.28ZM58.3126 46.28H56.4069V48.28H58.3126V46.28ZM87.0069 58V55.32H85.0069V58H87.0069ZM87.0069 49.96V47.28H85.0069V49.96H87.0069ZM87.0061 47.3182L87.0661 45.7482L85.0676 45.6718L85.0076 47.2418L87.0061 47.3182ZM87.1861 42.6082L87.3061 39.4682L85.3076 39.3918L85.1876 42.5318L87.1861 42.6082ZM87.4261 36.3282L87.4861 34.7582L85.4876 34.6818L85.4276 36.2518L87.4261 36.3282ZM87.4869 34.72V32.34H85.4869V34.72H87.4869ZM87.4869 27.58V25.2H85.4869V27.58H87.4869ZM86.4869 26.2H88.3569V24.2H86.4869V26.2ZM92.0969 26.2H95.8369V24.2H92.0969V26.2ZM99.5769 26.2H101.447V24.2H99.5769V26.2ZM100.447 25.2V27.25H102.447V25.2H100.447ZM100.447 31.35V35.45H102.447V31.35H100.447ZM100.447 39.55V43.65H102.447V39.55H100.447ZM100.447 47.75V51.85H102.447V47.75H100.447ZM100.447 55.95V58H102.447V55.95H100.447ZM101.447 57H99.5169V59H101.447V57ZM95.6569 57H91.7969V59H95.6569V57ZM87.9369 57H86.0069V59H87.9369V57Z" fill="url(#paint0_linear_27_317)" mask="url(#path-1-outside-1_27_317)"/>
</g>
<defs>
<linearGradient id="paint0_linear_27_317" x1="253" y1="57.8" x2="187.138" y2="-100.241" gradientUnits="userSpaceOnUse">
<stop stop-color="white" stop-opacity="0"/>
<stop offset="1" stop-color="white"/>
</linearGradient>
</defs>
</svg>
