<svg width="100" height="60" viewBox="0 0 100 60" fill="none" xmlns="http://www.w3.org/2000/svg">
<g opacity="0.4">
<mask id="path-1-outside-1_27_316" maskUnits="userSpaceOnUse" x="-1" y="-1" width="102" height="62" fill="black">
<rect fill="white" x="-1" y="-1" width="102" height="62"/>
<path d="M25.3213 59.12C20.5213 59.12 16.2546 57.9733 12.5213 55.68C8.84125 53.3867 5.93458 50.08 3.80125 45.76C1.66792 41.44 0.601251 36.1867 0.601251 30C0.601251 23.8133 1.66792 18.56 3.80125 14.24C5.93458 9.92 8.84125 6.61333 12.5213 4.32C16.2546 2.02666 20.5213 0.879996 25.3213 0.879996C30.0679 0.879996 34.2813 2.02666 37.9613 4.32C41.6946 6.61333 44.6279 9.92 46.7613 14.24C48.8946 18.56 49.9613 23.8133 49.9613 30C49.9613 36.1867 48.8946 41.44 46.7613 45.76C44.6279 50.08 41.6946 53.3867 37.9613 55.68C34.2813 57.9733 30.0679 59.12 25.3213 59.12ZM25.3213 46.16C27.0279 46.16 28.5213 45.6267 29.8013 44.56C31.1346 43.4933 32.1746 41.7867 32.9213 39.44C33.6679 37.04 34.0413 33.8933 34.0413 30C34.0413 26.0533 33.6679 22.9067 32.9213 20.56C32.1746 18.2133 31.1346 16.5067 29.8013 15.44C28.5213 14.3733 27.0279 13.84 25.3213 13.84C23.6146 13.84 22.0946 14.3733 20.7613 15.44C19.4813 16.5067 18.4413 18.2133 17.6413 20.56C16.8946 22.9067 16.5213 26.0533 16.5213 30C16.5213 33.8933 16.8946 37.04 17.6413 39.44C18.4413 41.7867 19.4813 43.4933 20.7613 44.56C22.0946 45.6267 23.6146 46.16 25.3213 46.16ZM74.9056 59.12C71.0123 59.12 67.119 58.64 63.2256 57.68C59.3856 56.72 56.0256 55.36 53.1456 53.6L58.9056 41.68C61.1456 43.1733 63.6256 44.32 66.3456 45.12C69.119 45.92 71.8123 46.32 74.4256 46.32C77.1456 46.32 79.3056 45.8133 80.9056 44.8C82.5056 43.7867 83.3056 42.3467 83.3056 40.48C83.3056 38.8267 82.639 37.52 81.3056 36.56C79.9723 35.5467 77.7856 35.04 74.7456 35.04H68.1056V25.04L83.1456 8.8L84.6656 14.24H56.0256V2H96.5056V11.92L81.4656 28.16L73.7056 23.76H78.0256C85.0123 23.76 90.2923 25.3333 93.8656 28.48C97.4923 31.5733 99.3056 35.5733 99.3056 40.48C99.3056 43.68 98.4256 46.6933 96.6656 49.52C94.959 52.3467 92.319 54.6667 88.7456 56.48C85.1723 58.24 80.559 59.12 74.9056 59.12Z"/>
</mask>
<path d="M12.5213 55.68L12.2568 56.1044L12.2595 56.106L12.5213 55.68ZM3.80125 45.76L3.35294 45.9814L3.80125 45.76ZM3.80125 14.24L3.35294 14.0186L3.80125 14.24ZM12.5213 4.32L12.2595 3.89395L12.2568 3.89566L12.5213 4.32ZM37.9613 4.32L37.6968 4.74435L37.6995 4.74604L37.9613 4.32ZM46.7613 14.24L46.3129 14.4614L46.7613 14.24ZM46.7613 45.76L46.3129 45.5386L46.7613 45.76ZM37.9613 55.68L37.6995 55.254L37.6968 55.2557L37.9613 55.68ZM29.8013 44.56L29.4888 44.1695L29.4812 44.1759L29.8013 44.56ZM32.9213 39.44L33.3977 39.5916L33.3987 39.5885L32.9213 39.44ZM32.9213 20.56L32.4448 20.7116L32.9213 20.56ZM29.8013 15.44L29.4811 15.8242L29.4889 15.8304L29.8013 15.44ZM20.7613 15.44L20.4488 15.0495L20.4412 15.0559L20.7613 15.44ZM17.6413 20.56L17.1679 20.3986L17.1648 20.4084L17.6413 20.56ZM17.6413 39.44L17.1637 39.5886L17.168 39.6013L17.6413 39.44ZM20.7613 44.56L20.4411 44.9442L20.4489 44.9504L20.7613 44.56ZM25.3213 58.62C24.7639 58.62 24.2143 58.6043 23.6723 58.5729L23.6145 59.5712C24.1762 59.6038 24.7451 59.62 25.3213 59.62V58.62ZM20.4057 58.1769C19.3127 57.9711 18.2542 57.6937 17.2297 57.345L16.9074 58.2916C17.9779 58.656 19.0823 58.9453 20.2206 59.1596L20.4057 58.1769ZM14.2121 56.0608C13.7272 55.8103 13.2509 55.5414 12.783 55.254L12.2595 56.106C12.7483 56.4063 13.2462 56.6874 13.7531 56.9493L14.2121 56.0608ZM12.7857 55.2557C12.3219 54.9666 11.8707 54.6611 11.4321 54.3392L10.8404 55.1454C11.2995 55.4823 11.7716 55.802 12.2568 56.1043L12.7857 55.2557ZM8.95295 52.2117C8.19142 51.4515 7.47749 50.6273 6.81124 49.7387L6.01118 50.3386C6.70514 51.2641 7.45019 52.1245 8.24643 52.9194L8.95295 52.2117ZM5.01893 46.9919C4.7522 46.5215 4.49573 46.0371 4.24957 45.5386L3.35294 45.9814C3.60731 46.4965 3.87267 46.9978 4.14905 47.4852L5.01893 46.9919ZM4.24957 45.5386C3.95954 44.9513 3.68942 44.346 3.43927 43.7226L2.51121 44.0951C2.7707 44.7417 3.05126 45.3705 3.35294 45.9814L4.24957 45.5386ZM2.2189 39.9294C1.90639 38.6795 1.65911 37.3704 1.47746 36.0017L0.486149 36.1332C0.672432 37.5368 0.92651 38.8831 1.24876 40.172L2.2189 39.9294ZM1.14038 32.0082C1.1143 31.3506 1.10125 30.6811 1.10125 30H0.10125C0.10125 30.6939 0.114546 31.3765 0.141165 32.0478L1.14038 32.0082ZM1.10125 30C1.10125 29.3188 1.1143 28.6494 1.14038 27.9918L0.141165 27.9522C0.114546 28.6235 0.10125 29.3061 0.10125 30H1.10125ZM1.47746 23.9983C1.65911 22.6296 1.90639 21.3205 2.2189 20.0706L1.24876 19.828C0.92651 21.1169 0.672432 22.4632 0.486149 23.8668L1.47746 23.9983ZM3.43927 16.2774C3.68942 15.654 3.95954 15.0487 4.24957 14.4614L3.35294 14.0186C3.05126 14.6295 2.7707 15.2583 2.51121 15.9049L3.43927 16.2774ZM4.24957 14.4614C4.49573 13.9629 4.7522 13.4785 5.01894 13.0081L4.14905 12.5148C3.87267 13.0022 3.60731 13.5035 3.35294 14.0186L4.24957 14.4614ZM6.81124 10.2613C7.47749 9.37274 8.19142 8.54852 8.95295 7.78826L8.24643 7.08056C7.45019 7.87547 6.70514 8.73586 6.01118 9.66137L6.81124 10.2613ZM11.4321 5.66075C11.8707 5.33886 12.3219 5.03339 12.7857 4.74434L12.2568 3.89566C11.7716 4.19803 11.2995 4.51767 10.8404 4.8546L11.4321 5.66075ZM12.783 4.74604C13.2509 4.45861 13.7272 4.18966 14.2121 3.93916L13.7531 3.05073C13.2462 3.31262 12.7483 3.5937 12.2595 3.89396L12.783 4.74604ZM17.2297 2.65504C18.2542 2.30627 19.3127 2.02889 20.4057 1.82309L20.2206 0.840362C19.0823 1.0547 17.9779 1.34397 16.9074 1.70839L17.2297 2.65504ZM23.6723 1.42711C24.2143 1.39571 24.7639 1.38 25.3213 1.38V0.379996C24.7451 0.379996 24.1762 0.396245 23.6145 0.428783L23.6723 1.42711ZM25.3213 1.38C25.8721 1.38 26.4153 1.39571 26.9508 1.42708L27.0093 0.428794C26.4538 0.396248 25.8911 0.379996 25.3213 0.379996V1.38ZM30.1783 1.82299C31.2578 2.02877 32.3029 2.30614 33.3139 2.65489L33.64 1.70956C32.5825 1.34476 31.491 1.0552 30.3656 0.840674L30.1783 1.82299ZM36.2895 3.9384C36.767 4.18862 37.2361 4.45726 37.6968 4.74434L38.2257 3.89566C37.744 3.59549 37.2533 3.31447 36.7536 3.05262L36.2895 3.9384ZM37.6995 4.74604C38.1678 5.03366 38.623 5.33751 39.0653 5.6576L39.6516 4.84749C39.1887 4.51253 38.7125 4.19469 38.223 3.89396L37.6995 4.74604ZM41.5691 7.77805C42.3396 8.538 43.0607 9.3619 43.7324 10.2501L44.53 9.64693C43.83 8.72125 43.0771 7.86085 42.2713 7.06609L41.5691 7.77805ZM45.5395 13.0028C45.808 13.4749 46.0659 13.961 46.3129 14.4614L47.2096 14.0186C46.9541 13.5012 46.6871 12.9978 46.4087 12.5084L45.5395 13.0028ZM46.3129 14.4614C46.603 15.0487 46.8731 15.654 47.1232 16.2774L48.0513 15.9049C47.7918 15.2583 47.5112 14.6295 47.2096 14.0186L46.3129 14.4614ZM48.3436 20.0706C48.6561 21.3205 48.9034 22.6296 49.085 23.9983L50.0764 23.8668C49.8901 22.4632 49.636 21.1169 49.3137 19.828L48.3436 20.0706ZM49.4221 27.9918C49.4482 28.6494 49.4613 29.3188 49.4613 30H50.4613C50.4613 29.3061 50.448 28.6235 50.4213 27.9522L49.4221 27.9918ZM49.4613 30C49.4613 30.6811 49.4482 31.3506 49.4221 32.0082L50.4213 32.0478C50.448 31.3765 50.4613 30.6939 50.4613 30H49.4613ZM49.085 36.0017C48.9034 37.3704 48.6561 38.6795 48.3436 39.9294L49.3137 40.172C49.636 38.8831 49.8901 37.5368 50.0764 36.1332L49.085 36.0017ZM47.1232 43.7226C46.8731 44.346 46.603 44.9513 46.3129 45.5386L47.2096 45.9814C47.5112 45.3705 47.7918 44.7417 48.0513 44.0951L47.1232 43.7226ZM46.3129 45.5386C46.0659 46.0389 45.808 46.5251 45.5395 46.9972L46.4087 47.4916C46.6871 47.0022 46.9541 46.4988 47.2096 45.9814L46.3129 45.5386ZM43.7324 49.7499C43.0607 50.6381 42.3396 51.462 41.5691 52.2219L42.2713 52.9339C43.0771 52.1391 43.83 51.2787 44.53 50.3531L43.7324 49.7499ZM39.0653 54.3424C38.623 54.6625 38.1678 54.9663 37.6995 55.254L38.223 56.106C38.7125 55.8053 39.1887 55.4875 39.6516 55.1525L39.0653 54.3424ZM37.6968 55.2557C37.2361 55.5427 36.767 55.8114 36.2895 56.0616L36.7536 56.9474C37.2533 56.6855 37.744 56.4045 38.2257 56.1043L37.6968 55.2557ZM33.3139 57.3451C32.3029 57.6939 31.2578 57.9712 30.1783 58.177L30.3656 59.1593C31.491 58.9448 32.5825 58.6552 33.64 58.2904L33.3139 57.3451ZM26.9508 58.5729C26.4153 58.6043 25.8721 58.62 25.3213 58.62V59.62C25.8911 59.62 26.4538 59.6038 27.0093 59.5712L26.9508 58.5729ZM25.3213 45.66C24.9266 45.66 24.5443 45.6296 24.1742 45.5694L24.0136 46.5564C24.4391 46.6256 24.8751 46.66 25.3213 46.66V45.66ZM22.0259 44.8155C21.6993 44.6313 21.3819 44.4162 21.0736 44.1696L20.4489 44.9504C20.7973 45.2292 21.1592 45.4747 21.5346 45.6865L22.0259 44.8155ZM21.0813 44.1759C20.7391 43.8907 20.4119 43.5529 20.1003 43.1603L19.317 43.7819C19.6669 44.2228 20.0413 44.6109 20.4412 44.9441L21.0813 44.1759ZM18.645 40.6561C18.4582 40.2271 18.2813 39.768 18.1145 39.2787L17.168 39.6013C17.3428 40.1141 17.5294 40.5989 17.7281 41.0552L18.645 40.6561ZM18.1187 39.2915C17.9053 38.6057 17.7222 37.8532 17.5701 37.033L16.5869 37.2153C16.7451 38.0687 16.9372 38.8601 17.1638 39.5885L18.1187 39.2915ZM17.0715 32.3625C17.038 31.6094 17.0213 30.8219 17.0213 30H16.0213C16.0213 30.8355 16.0383 31.6378 16.0725 32.4069L17.0715 32.3625ZM17.0213 30C17.0213 29.1761 17.0377 28.3884 17.0704 27.6367L16.0713 27.5932C16.0379 28.3606 16.0213 29.163 16.0213 30H17.0213ZM17.5642 22.9656C17.7173 22.1401 17.9021 21.3891 18.1177 20.7116L17.1648 20.4084C16.9347 21.1314 16.7405 21.9234 16.5809 22.7833L17.5642 22.9656ZM18.1145 20.7213C18.2813 20.232 18.4582 19.7729 18.645 19.3439L17.7281 18.9448C17.5294 19.4011 17.3428 19.8859 17.168 20.3987L18.1145 20.7213ZM20.1003 16.8397C20.4119 16.4471 20.7391 16.1093 21.0813 15.8241L20.4412 15.0559C20.0413 15.3891 19.6669 15.7772 19.317 16.2181L20.1003 16.8397ZM21.0736 15.8304C21.3819 15.5838 21.6993 15.3687 22.0259 15.1845L21.5346 14.3135C21.1592 14.5253 20.7973 14.7708 20.4489 15.0496L21.0736 15.8304ZM24.1742 14.4306C24.5443 14.3704 24.9266 14.34 25.3213 14.34V13.34C24.8751 13.34 24.4391 13.3744 24.0136 13.4436L24.1742 14.4306ZM25.3213 14.34C25.7117 14.34 26.0882 14.3697 26.451 14.4286L26.6111 13.4415C26.1927 13.3736 25.7626 13.34 25.3213 13.34V14.34ZM28.5573 15.1765C28.8761 15.3609 29.1841 15.5765 29.4812 15.8241L30.1213 15.0559C29.7824 14.7734 29.4279 14.5248 29.058 14.3109L28.5573 15.1765ZM29.4889 15.8304C29.8406 16.1118 30.1732 16.4439 30.4861 16.8287L31.262 16.1977C30.9077 15.7622 30.5252 15.3788 30.1136 15.0496L29.4889 15.8304ZM31.9373 19.3271C32.1189 19.7579 32.2881 20.2193 32.4448 20.7116L33.3977 20.4084C33.2327 19.8899 33.0532 19.3999 32.8587 18.9386L31.9373 19.3271ZM32.4448 20.7116C32.6604 21.3891 32.8452 22.1401 32.9983 22.9656L33.9816 22.7833C33.8221 21.9234 33.6278 21.1314 33.3977 20.4084L32.4448 20.7116ZM33.4921 27.6367C33.5249 28.3884 33.5413 29.1761 33.5413 30H34.5413C34.5413 29.163 34.5246 28.3606 34.4912 27.5932L33.4921 27.6367ZM33.5413 30C33.5413 30.8219 33.5245 31.6094 33.491 32.3625L34.49 32.4069C34.5242 31.6378 34.5413 30.8355 34.5413 30H33.5413ZM32.9924 37.033C32.8403 37.8532 32.6572 38.6057 32.4438 39.2915L33.3987 39.5885C33.6253 38.8601 33.8174 38.0687 33.9756 37.2153L32.9924 37.033ZM32.4448 39.2884C32.2881 39.7807 32.1189 40.2421 31.9373 40.6729L32.8587 41.0614C33.0532 40.6001 33.2327 40.1101 33.3977 39.5916L32.4448 39.2884ZM30.4861 43.1713C30.1732 43.5561 29.8406 43.8882 29.4889 44.1696L30.1136 44.9504C30.5252 44.6212 30.9077 44.2378 31.262 43.8023L30.4861 43.1713ZM29.4812 44.1759C29.1841 44.4235 28.8761 44.6391 28.5573 44.8235L29.058 45.6891C29.4279 45.4752 29.7824 45.2266 30.1213 44.9441L29.4812 44.1759ZM26.451 45.5714C26.0882 45.6303 25.7117 45.66 25.3213 45.66V46.66C25.7626 46.66 26.1927 46.6264 26.6111 46.5585L26.451 45.5714ZM12.5213 55.68L11.9923 56.5287L11.9978 56.5321L12.5213 55.68ZM3.80125 45.76L2.90462 46.2028L3.80125 45.76ZM3.80125 14.24L2.90462 13.7972V13.7972L3.80125 14.24ZM12.5213 4.32L11.9978 3.46791L11.9924 3.47131L12.5213 4.32ZM37.9613 4.32L37.4324 5.1687L37.4378 5.17208L37.9613 4.32ZM46.7613 14.24L45.8646 14.6828L46.7613 14.24ZM46.7613 45.76L45.8646 45.3172H45.8646L46.7613 45.76ZM37.9613 55.68L37.4378 54.8279L37.4324 54.8313L37.9613 55.68ZM29.8013 44.56L29.1766 43.7791L29.1687 43.7854L29.1611 43.7918L29.8013 44.56ZM32.9213 39.44L33.8742 39.7432L33.8761 39.7371L32.9213 39.44ZM32.9213 20.56L31.9683 20.8632L32.9213 20.56ZM29.8013 15.44L29.1611 16.2082L29.1687 16.2146L29.1766 16.2209L29.8013 15.44ZM20.7613 15.44L20.1366 14.6591L20.1287 14.6654L20.1211 14.6718L20.7613 15.44ZM17.6413 20.56L16.6947 20.2373L16.6914 20.247L16.6883 20.2568L17.6413 20.56ZM17.6413 39.44L16.6864 39.7371L16.6904 39.7499L16.6947 39.7627L17.6413 39.44ZM20.7613 44.56L20.1211 45.3282L20.1287 45.3346L20.1366 45.3409L20.7613 44.56ZM25.3213 58.12C24.7733 58.12 24.2334 58.1045 23.7013 58.0737L23.5856 60.0704C24.1572 60.1035 24.7357 60.12 25.3213 60.12V58.12ZM20.4982 57.6855C19.4279 57.484 18.3923 57.2126 17.3909 56.8716L16.7463 58.7649C17.8397 59.1372 18.9672 59.4324 20.1281 59.651L20.4982 57.6855ZM14.4416 55.6166C13.9678 55.3718 13.5021 55.1089 13.0447 54.8279L11.9978 56.5321C12.4971 56.8388 13.0056 57.1259 13.5235 57.3935L14.4416 55.6166ZM13.0501 54.8313C12.597 54.5489 12.1563 54.2505 11.728 53.9362L10.5446 55.5485C11.0139 55.8929 11.4965 56.2197 11.9924 56.5287L13.0501 54.8313ZM9.30621 51.8579C8.56203 51.115 7.86366 50.3088 7.21128 49.4388L5.61114 50.6386C6.31896 51.5826 7.07958 52.461 7.89317 53.2733L9.30621 51.8579ZM5.45388 46.7453C5.19196 46.2834 4.93994 45.8074 4.69788 45.3172L2.90462 46.2028C3.1631 46.7262 3.43291 47.2359 3.71411 47.7318L5.45388 46.7453ZM4.69788 45.3172C4.41368 44.7417 4.14878 44.1482 3.9033 43.5364L2.04718 44.2813C2.31134 44.9396 2.59712 45.5801 2.90462 46.2028L4.69788 45.3172ZM2.70397 39.8082C2.39633 38.5777 2.15246 37.2872 1.97311 35.9359L-0.00950623 36.199C0.17909 37.62 0.436571 38.9849 0.763693 40.2933L2.70397 39.8082ZM1.63999 31.9884C1.61418 31.3376 1.60125 30.6748 1.60125 30H-0.39875C-0.39875 30.7003 -0.385332 31.3895 -0.358444 32.0676L1.63999 31.9884ZM1.60125 30C1.60125 29.3252 1.61418 28.6624 1.63999 28.0116L-0.358444 27.9324C-0.385332 28.6105 -0.39875 29.2997 -0.39875 30H1.60125ZM1.97311 24.0641C2.15246 22.7128 2.39633 21.4223 2.70397 20.1918L0.763693 19.7067C0.436571 21.0151 0.17909 22.38 -0.00950432 23.801L1.97311 24.0641ZM3.9033 16.4636C4.14878 15.8518 4.41368 15.2583 4.69788 14.6828L2.90462 13.7972C2.59712 14.4199 2.31134 15.0604 2.04718 15.7187L3.9033 16.4636ZM4.69788 14.6828C4.93994 14.1926 5.19196 13.7166 5.45388 13.2547L3.71411 12.2682C3.43291 12.7641 3.1631 13.2738 2.90462 13.7972L4.69788 14.6828ZM7.21128 10.5612C7.86366 9.69118 8.56203 8.88504 9.30621 8.1421L7.89317 6.72671C7.07958 7.53895 6.31896 8.41743 5.61114 9.36142L7.21128 10.5612ZM11.728 6.06383C12.1563 5.74946 12.597 5.45108 13.0501 5.16869L11.9924 3.47131C11.4965 3.78034 11.0139 4.10708 10.5446 4.45152L11.728 6.06383ZM13.0447 5.17208C13.5021 4.89106 13.9678 4.62818 14.4416 4.38337L13.5235 2.60652C13.0056 2.8741 12.4971 3.16125 11.9978 3.46792L13.0447 5.17208ZM17.3909 3.12836C18.3923 2.78742 19.4279 2.51598 20.4982 2.31446L20.1281 0.348997C18.9672 0.567599 17.8397 0.862824 16.7463 1.23507L17.3909 3.12836ZM23.7013 1.92627C24.2334 1.89545 24.7733 1.88 25.3213 1.88V-0.120004C24.7357 -0.120004 24.1572 -0.10349 23.5856 -0.0703793L23.7013 1.92627ZM25.3213 1.88C25.8626 1.88 26.396 1.89543 26.9215 1.92623L27.0385 -0.0703497C26.4731 -0.10348 25.9006 -0.120004 25.3213 -0.120004V1.88ZM30.0847 2.31414C31.1412 2.51555 32.1631 2.78682 33.1509 3.12756L33.8031 1.23689C32.7223 0.864079 31.6075 0.568422 30.4592 0.349519L30.0847 2.31414ZM36.0574 4.38129C36.5239 4.6257 36.9822 4.88814 37.4324 5.16869L38.4902 3.47131C37.998 3.1646 37.4965 2.87739 36.9856 2.60973L36.0574 4.38129ZM37.4378 5.17208C37.8954 5.45314 38.3401 5.74999 38.7721 6.06265L39.9447 4.44243C39.4716 4.10005 38.9849 3.77521 38.4847 3.46792L37.4378 5.17208ZM41.218 8.13403C41.9708 8.87657 42.6761 9.68222 43.3336 10.5517L44.9288 9.34535C44.2146 8.40093 43.4459 7.52228 42.6224 6.7101L41.218 8.13403ZM45.1049 13.2501C45.3685 13.7134 45.6217 14.191 45.8646 14.6828L47.6579 13.7972C47.3982 13.2713 47.1267 12.7593 46.8433 12.2611L45.1049 13.2501ZM45.8646 14.6828C46.1488 15.2583 46.4137 15.8518 46.6592 16.4636L48.5153 15.7187C48.2512 15.0604 47.9654 14.4199 47.6579 13.7972L45.8646 14.6828ZM47.8585 20.1918C48.1662 21.4223 48.41 22.7128 48.5894 24.0641L50.572 23.801C50.3834 22.38 50.1259 21.0151 49.7988 19.7067L47.8585 20.1918ZM48.9225 28.0116C48.9483 28.6624 48.9613 29.3252 48.9613 30H50.9613C50.9613 29.2997 50.9478 28.6105 50.9209 27.9324L48.9225 28.0116ZM48.9613 30C48.9613 30.6748 48.9483 31.3376 48.9225 31.9884L50.9209 32.0676C50.9478 31.3895 50.9613 30.7003 50.9613 30H48.9613ZM48.5894 35.9359C48.41 37.2872 48.1662 38.5777 47.8585 39.8082L49.7988 40.2933C50.1259 38.9849 50.3834 37.62 50.572 36.199L48.5894 35.9359ZM46.6592 43.5364C46.4137 44.1481 46.1488 44.7417 45.8646 45.3172L47.6579 46.2028C47.9654 45.5801 48.2512 44.9396 48.5153 44.2813L46.6592 43.5364ZM45.8646 45.3172C45.6217 45.809 45.3685 46.2866 45.1049 46.7499L46.8433 47.7389C47.1267 47.2407 47.3982 46.7287 47.6579 46.2028L45.8646 45.3172ZM43.3336 49.4483C42.6761 50.3178 41.9708 51.1234 41.218 51.866L42.6224 53.2899C43.4459 52.4777 44.2146 51.5991 44.9288 50.6546L43.3336 49.4483ZM38.7721 53.9373C38.3401 54.25 37.8954 54.5469 37.4378 54.8279L38.4847 56.5321C38.9849 56.2248 39.4716 55.9 39.9447 55.5576L38.7721 53.9373ZM37.4324 54.8313C36.9822 55.1119 36.5239 55.3743 36.0574 55.6187L36.9856 57.3903C37.4965 57.1226 37.998 56.8354 38.4902 56.5287L37.4324 54.8313ZM33.1509 56.8724C32.1631 57.2132 31.1412 57.4845 30.0847 57.6859L30.4592 59.6505C31.6075 59.4316 32.7223 59.1359 33.8031 58.7631L33.1509 56.8724ZM26.9215 58.0738C26.396 58.1046 25.8626 58.12 25.3213 58.12V60.12C25.9006 60.12 26.4731 60.1035 27.0385 60.0703L26.9215 58.0738ZM25.3213 45.16C24.9523 45.16 24.597 45.1316 24.2545 45.0759L23.9333 47.0499C24.3864 47.1237 24.8493 47.16 25.3213 47.16V45.16ZM22.2715 44.38C21.9694 44.2095 21.6741 44.0097 21.3859 43.7791L20.1366 45.3409C20.505 45.6357 20.8891 45.8965 21.2889 46.122L22.2715 44.38ZM21.4014 43.7918C21.088 43.5306 20.7844 43.218 20.492 42.8495L18.9254 44.0927C19.2944 44.5578 19.6924 44.971 20.1211 45.3282L21.4014 43.7918ZM19.1034 40.4566C18.9226 40.0412 18.7506 39.595 18.5878 39.1173L16.6947 39.7627C16.8736 40.2872 17.065 40.7848 17.2696 41.2548L19.1034 40.4566ZM18.5961 39.1429C18.3894 38.4785 18.2108 37.7454 18.0617 36.9418L16.0953 37.3065C16.2566 38.1765 16.4531 38.9872 16.6864 39.7371L18.5961 39.1429ZM17.571 32.3402C17.5379 31.5952 17.5213 30.8152 17.5213 30H15.5213C15.5213 30.8422 15.5384 31.652 15.573 32.4291L17.571 32.3402ZM17.5213 30C17.5213 29.1827 17.5375 28.4023 17.5699 27.6584L15.5718 27.5714C15.538 28.3468 15.5213 29.1564 15.5213 30H17.5213ZM18.0558 23.0568C18.2057 22.2484 18.3858 21.518 18.5942 20.8632L16.6883 20.2568C16.451 21.0025 16.252 21.815 16.0893 22.6921L18.0558 23.0568ZM18.5878 20.8827C18.7506 20.405 18.9226 19.9588 19.1034 19.5434L17.2696 18.7452C17.065 19.2152 16.8736 19.7128 16.6947 20.2373L18.5878 20.8827ZM20.492 17.1505C20.7844 16.782 21.088 16.4694 21.4014 16.2082L20.1211 14.6718C19.6924 15.029 19.2944 15.4422 18.9254 15.9073L20.492 17.1505ZM21.3859 16.2209C21.6741 15.9903 21.9694 15.7905 22.2715 15.62L21.2889 13.878C20.8891 14.1035 20.505 14.3643 20.1366 14.6591L21.3859 16.2209ZM24.2545 14.9241C24.597 14.8684 24.9523 14.84 25.3213 14.84V12.84C24.8493 12.84 24.3864 12.8763 23.9333 12.9501L24.2545 14.9241ZM25.3213 14.84C25.6863 14.84 26.0359 14.8678 26.3709 14.9221L26.6912 12.9479C26.245 12.8756 25.7881 12.84 25.3213 12.84V14.84ZM28.307 15.6093C28.6002 15.7789 28.8849 15.9781 29.1611 16.2082L30.4414 14.6718C30.0815 14.3718 29.7038 14.1068 29.3083 13.878L28.307 15.6093ZM29.1766 16.2209C29.4983 16.4783 29.8059 16.7847 30.0982 17.1441L31.6499 15.8822C31.275 15.4213 30.8675 15.0123 30.4259 14.6591L29.1766 16.2209ZM31.4765 19.5213C31.6517 19.9369 31.8158 20.384 31.9683 20.8632L33.8742 20.2568C33.705 19.7252 33.5203 19.2209 33.3195 18.7444L31.4765 19.5213ZM31.9683 20.8632C32.1767 21.518 32.3568 22.2484 32.5067 23.0568L34.4732 22.6921C34.3105 21.815 34.1115 21.0025 33.8742 20.2568L31.9683 20.8632ZM32.9926 27.6584C33.025 28.4023 33.0413 29.1827 33.0413 30H35.0413C35.0413 29.1564 35.0245 28.3468 34.9907 27.5714L32.9926 27.6584ZM33.0413 30C33.0413 30.8152 33.0246 31.5952 32.9915 32.3402L34.9895 32.4291C35.0241 31.652 35.0413 30.8422 35.0413 30H33.0413ZM32.5008 36.9418C32.3517 37.7454 32.1731 38.4785 31.9664 39.1429L33.8761 39.7371C34.1094 38.9872 34.3059 38.1765 34.4672 37.3065L32.5008 36.9418ZM31.9683 39.1368C31.8158 39.616 31.6517 40.0631 31.4765 40.4787L33.3195 41.2556C33.5203 40.7791 33.705 40.2748 33.8742 39.7432L31.9683 39.1368ZM30.0982 42.8559C29.8059 43.2153 29.4983 43.5217 29.1766 43.7791L30.4259 45.3409C30.8675 44.9877 31.275 44.5787 31.6499 44.1178L30.0982 42.8559ZM29.1611 43.7918C28.8849 44.0219 28.6002 44.2211 28.307 44.3907L29.3083 46.122C29.7038 45.8932 30.0815 45.6282 30.4414 45.3282L29.1611 43.7918ZM26.3709 45.0779C26.0359 45.1322 25.6863 45.16 25.3213 45.16V47.16C25.7881 47.16 26.245 47.1244 26.6912 47.0521L26.3709 45.0779ZM63.2256 57.68L63.1044 58.1651L63.1059 58.1655L63.2256 57.68ZM53.1456 53.6L52.6954 53.3825L52.4983 53.7904L52.8849 54.0266L53.1456 53.6ZM58.9056 41.68L59.183 41.264L58.7052 40.9455L58.4554 41.4625L58.9056 41.68ZM66.3456 45.12L66.2045 45.5997L66.207 45.6004L66.3456 45.12ZM80.9056 44.8L81.1731 45.2224L80.9056 44.8ZM81.3056 36.56L81.003 36.9582L81.0135 36.9658L81.3056 36.56ZM68.1056 35.04H67.6056V35.54H68.1056V35.04ZM68.1056 25.04L67.7388 24.7003L67.6056 24.844V25.04H68.1056ZM83.1456 8.8L83.6272 8.66545L83.3865 7.80405L82.7788 8.46026L83.1456 8.8ZM84.6656 14.24V14.74H85.3245L85.1472 14.1054L84.6656 14.24ZM56.0256 14.24H55.5256V14.74H56.0256V14.24ZM56.0256 2V1.5H55.5256V2H56.0256ZM96.5056 2H97.0056V1.5H96.5056V2ZM96.5056 11.92L96.8725 12.2597L97.0056 12.116V11.92H96.5056ZM81.4656 28.16L81.219 28.5949L81.5634 28.7902L81.8325 28.4997L81.4656 28.16ZM73.7056 23.76V23.26H71.8101L73.459 24.1949L73.7056 23.76ZM93.8656 28.48L93.5351 28.8553L93.5411 28.8604L93.8656 28.48ZM96.6656 49.52L96.2411 49.2557L96.2376 49.2616L96.6656 49.52ZM88.7456 56.48L88.9666 56.9286L88.9719 56.9259L88.7456 56.48ZM74.9056 58.62C73.9335 58.62 72.9614 58.5898 71.9893 58.5293L71.9272 59.5273C72.9199 59.5891 73.9128 59.62 74.9056 59.62V58.62ZM66.1993 57.8114C65.2481 57.6348 64.2968 57.4292 63.3453 57.1945L63.1059 58.1655C64.076 58.4047 65.0463 58.6144 66.0167 58.7946L66.1993 57.8114ZM63.3469 57.1949C62.4548 56.9719 61.5895 56.7272 60.751 56.4609L60.4484 57.414C61.3076 57.6869 62.1929 57.9372 63.1044 58.1651L63.3469 57.1949ZM55.7573 54.4664C54.9398 54.0626 54.1562 53.6316 53.4063 53.1734L52.8849 54.0266C53.6612 54.501 54.4711 54.9465 55.3145 55.363L55.7573 54.4664ZM53.5958 53.8175L54.3158 52.3275L53.4154 51.8925L52.6954 53.3825L53.5958 53.8175ZM55.7558 49.3475L57.1958 46.3675L56.2954 45.9325L54.8554 48.9125L55.7558 49.3475ZM58.6358 43.3875L59.3558 41.8975L58.4554 41.4625L57.7354 42.9525L58.6358 43.3875ZM58.6283 42.096C59.2089 42.4831 59.8052 42.8472 60.4172 43.1885L60.9042 42.3151C60.3152 41.9867 59.7414 41.6363 59.183 41.264L58.6283 42.096ZM64.2194 44.9397C64.8669 45.1809 65.5286 45.4009 66.2045 45.5997L66.4867 44.6403C65.8329 44.448 65.1935 44.2354 64.5685 44.0026L64.2194 44.9397ZM66.207 45.6004C66.8829 45.7954 67.5546 45.9671 68.222 46.1154L68.439 45.1392C67.7924 44.9955 67.1408 44.829 66.4842 44.6396L66.207 45.6004ZM72.34 46.738C73.0403 46.7926 73.7355 46.82 74.4256 46.82V45.82C73.762 45.82 73.0927 45.7937 72.4178 45.741L72.34 46.738ZM74.4256 46.82C75.0264 46.82 75.6025 46.7958 76.1536 46.7472L76.0656 45.751C75.5463 45.7969 74.9997 45.82 74.4256 45.82V46.82ZM79.5728 46.0126C80.1509 45.7947 80.6848 45.5317 81.1731 45.2224L80.6381 44.3776C80.2118 44.6476 79.7397 44.881 79.2201 45.0768L79.5728 46.0126ZM81.1731 45.2224C81.5851 44.9615 81.9524 44.6712 82.2727 44.3504L81.5651 43.6439C81.3019 43.9074 80.9937 44.1524 80.6381 44.3776L81.1731 45.2224ZM83.6508 41.8788C83.7548 41.435 83.8056 40.9682 83.8056 40.48H82.8056C82.8056 40.8986 82.7621 41.2884 82.6772 41.6507L83.6508 41.8788ZM83.8056 40.48C83.8056 40.0477 83.7635 39.6324 83.6773 39.2355L82.7001 39.4475C82.7698 39.769 82.8056 40.1128 82.8056 40.48H83.8056ZM82.5325 36.9883C82.2611 36.6847 81.9488 36.407 81.5978 36.1542L81.0135 36.9658C81.3107 37.1798 81.5679 37.4097 81.7871 37.6549L82.5325 36.9883ZM81.6082 36.1619C81.145 35.8099 80.5988 35.5204 79.9764 35.2885L79.6272 36.2256C80.1748 36.4296 80.6311 36.6754 81.0031 36.9581L81.6082 36.1619ZM76.4927 34.6013C75.9426 34.5603 75.3602 34.54 74.7456 34.54V35.54C75.3383 35.54 75.8958 35.5596 76.4184 35.5985L76.4927 34.6013ZM74.7456 34.54H73.0856V35.54H74.7456V34.54ZM69.7656 34.54H68.1056V35.54H69.7656V34.54ZM68.6056 35.04V32.54H67.6056V35.04H68.6056ZM68.6056 27.54V25.04H67.6056V27.54H68.6056ZM68.4725 25.3797L69.7258 24.0264L68.9921 23.3469L67.7388 24.7003L68.4725 25.3797ZM72.2325 21.3197L74.7391 18.6131L74.0054 17.9336L71.4988 20.6403L72.2325 21.3197ZM77.2458 15.9064L79.7525 13.1997L79.0188 12.5203L76.5121 15.2269L77.2458 15.9064ZM82.2591 10.4931L83.5125 9.13974L82.7788 8.46026L81.5254 9.81359L82.2591 10.4931ZM82.6641 8.93455L83.0441 10.2945L84.0072 10.0254L83.6272 8.66545L82.6641 8.93455ZM83.8041 13.0145L84.1841 14.3745L85.1472 14.1054L84.7672 12.7454L83.8041 13.0145ZM84.6656 13.74H82.8756V14.74H84.6656V13.74ZM79.2956 13.74H75.7156V14.74H79.2956V13.74ZM72.1356 13.74H68.5556V14.74H72.1356V13.74ZM64.9756 13.74H61.3956V14.74H64.9756V13.74ZM57.8156 13.74H56.0256V14.74H57.8156V13.74ZM56.5256 14.24V12.71H55.5256V14.24H56.5256ZM56.5256 9.65V6.59H55.5256V9.65H56.5256ZM56.5256 3.53V2H55.5256V3.53H56.5256ZM56.0256 2.5H58.0496V1.5H56.0256V2.5ZM62.0976 2.5H66.1456V1.5H62.0976V2.5ZM70.1936 2.5H74.2416V1.5H70.1936V2.5ZM78.2896 2.5H82.3376V1.5H78.2896V2.5ZM86.3856 2.5H90.4336V1.5H86.3856V2.5ZM94.4816 2.5H96.5056V1.5H94.4816V2.5ZM96.0056 2V4.48H97.0056V2H96.0056ZM96.0056 9.44V11.92H97.0056V9.44H96.0056ZM96.1388 11.5803L94.8854 12.9336L95.6191 13.6131L96.8725 12.2597L96.1388 11.5803ZM92.3788 15.6403L89.8721 18.3469L90.6058 19.0264L93.1125 16.3197L92.3788 15.6403ZM87.3654 21.0536L84.8588 23.7603L85.5925 24.4397L88.0991 21.7331L87.3654 21.0536ZM82.3521 26.4669L81.0988 27.8203L81.8325 28.4997L83.0858 27.1464L82.3521 26.4669ZM81.7122 27.7251L79.7722 26.625L79.279 27.4949L81.219 28.5949L81.7122 27.7251ZM75.8922 24.425L73.9522 23.3251L73.459 24.1949L75.399 25.2949L75.8922 24.425ZM73.7056 24.26H74.7856V23.26H73.7056V24.26ZM76.9456 24.26H78.0256V23.26H76.9456V24.26ZM78.0256 24.26C78.74 24.26 79.4357 24.2766 80.1128 24.3098L80.1618 23.311C79.4675 23.277 78.7555 23.26 78.0256 23.26V24.26ZM84.2466 24.7573C85.688 25.01 87.0198 25.3584 88.2433 25.801L88.5835 24.8607C87.2997 24.3962 85.9112 24.0339 84.4193 23.7724L84.2466 24.7573ZM91.9132 27.6179C92.4899 27.9983 93.0304 28.4108 93.5352 28.8552L94.1961 28.1048C93.6557 27.6289 93.0782 27.1884 92.4638 26.7831L91.9132 27.6179ZM93.5411 28.8604C93.9694 29.2257 94.3709 29.6033 94.7459 29.9933L95.4667 29.3001C95.0681 28.8856 94.6425 28.4854 94.1901 28.0996L93.5411 28.8604ZM96.7512 32.5986C97.3155 33.5377 97.7634 34.5351 98.0952 35.5917L99.0492 35.2921C98.694 34.1609 98.2137 33.0911 97.6084 32.0836L96.7512 32.5986ZM98.7317 38.8238C98.7809 39.3626 98.8056 39.9147 98.8056 40.48H99.8056C99.8056 39.8855 99.7797 39.3031 99.7276 38.7328L98.7317 38.8238ZM98.8056 40.48C98.8056 41.2614 98.7516 42.0306 98.6437 42.7877L99.6337 42.9288C99.7484 42.124 99.8056 41.3077 99.8056 40.48H98.8056ZM97.3407 47.2127C97.0255 47.9034 96.6592 48.5844 96.2412 49.2557L97.0901 49.7843C97.5299 49.0779 97.9168 48.359 98.2505 47.6277L97.3407 47.2127ZM96.2376 49.2616C95.7963 49.9924 95.2901 50.689 94.7186 51.3512L95.4757 52.0046C96.0832 51.3006 96.6226 50.5586 97.0937 49.7784L96.2376 49.2616ZM90.7881 54.7308C90.0816 55.1905 89.3255 55.625 88.5194 56.0341L88.9719 56.9259C89.8078 56.5017 90.5951 56.0495 91.3335 55.569L90.7881 54.7308ZM88.5247 56.0315C88.0183 56.2809 87.4897 56.5125 86.9387 56.7263L87.3004 57.6586C87.8775 57.4347 88.4329 57.1914 88.9665 56.9285L88.5247 56.0315ZM83.6111 57.7376C82.5279 57.9876 81.3793 58.1848 80.165 58.3288L80.2827 59.3218C81.5297 59.1739 82.7142 58.9708 83.8359 58.712L83.6111 57.7376ZM76.665 58.5902C76.0906 58.61 75.5042 58.62 74.9056 58.62V59.62C75.5153 59.62 76.1133 59.6099 76.6996 59.5896L76.665 58.5902ZM63.2256 57.68L62.9831 58.6501L62.9862 58.6509L63.2256 57.68ZM53.1456 53.6L52.2452 53.1649L51.851 53.9808L52.6242 54.4533L53.1456 53.6ZM58.9056 41.68L59.4603 40.8479L58.5049 40.211L58.0052 41.2449L58.9056 41.68ZM66.3456 45.12L66.0635 46.0794L66.0685 46.0808L66.3456 45.12ZM80.9056 44.8L81.4407 45.6448L80.9056 44.8ZM81.3056 36.56L80.7005 37.3562L80.7108 37.364L80.7213 37.3715L81.3056 36.56ZM68.1056 35.04H67.1056V36.04H68.1056V35.04ZM68.1056 25.04L67.3719 24.3605L67.1056 24.6481V25.04H68.1056ZM83.1456 8.8L84.1087 8.5309L83.6274 6.80811L82.4119 8.12052L83.1456 8.8ZM84.6656 14.24V15.24H85.9833L85.6287 13.9709L84.6656 14.24ZM56.0256 14.24H55.0256V15.24H56.0256V14.24ZM56.0256 2V0.999996H55.0256V2H56.0256ZM96.5056 2H97.5056V0.999996H96.5056V2ZM96.5056 11.92L97.2393 12.5995L97.5056 12.3119V11.92H96.5056ZM81.4656 28.16L80.9724 29.0299L81.6612 29.4205L82.1993 28.8395L81.4656 28.16ZM73.7056 23.76V22.76H69.9146L73.2124 24.6299L73.7056 23.76ZM93.8656 28.48L93.2047 29.2305L93.2107 29.2357L93.2167 29.2408L93.8656 28.48ZM96.6656 49.52L95.8167 48.9914L95.8096 49.0031L96.6656 49.52ZM88.7456 56.48L89.1875 57.3772L89.1982 57.3717L88.7456 56.48ZM74.9056 58.12C73.9439 58.12 72.9821 58.0901 72.0203 58.0302L71.8961 60.0264C72.8992 60.0888 73.9024 60.12 74.9056 60.12V58.12ZM66.2906 57.3198C65.3491 57.145 64.4072 56.9414 63.465 56.7091L62.9862 58.6509C63.9656 58.8924 64.9453 59.1042 65.9254 59.2862L66.2906 57.3198ZM63.4682 56.7099C62.5857 56.4893 61.7305 56.2474 60.9024 55.9844L60.297 57.8906C61.1666 58.1667 62.062 58.4199 62.9831 58.6501L63.4682 56.7099ZM55.9787 54.0181C55.1742 53.6207 54.4037 53.1969 53.6671 52.7467L52.6242 54.4533C53.4137 54.9358 54.2367 55.3884 55.0931 55.8113L55.9787 54.0181ZM54.046 54.0351L54.766 52.5451L52.9652 51.6749L52.2452 53.1649L54.046 54.0351ZM56.206 49.5651L57.646 46.5851L55.8452 45.7149L54.4052 48.6949L56.206 49.5651ZM59.086 43.6051L59.806 42.1151L58.0052 41.2449L57.2852 42.7349L59.086 43.6051ZM58.3509 42.5121C58.9426 42.9065 59.5502 43.2775 60.1737 43.6252L61.1477 41.8784C60.5702 41.5564 60.0077 41.2129 59.4603 40.8479L58.3509 42.5121ZM64.0449 45.4083C64.7036 45.6536 65.3765 45.8773 66.0635 46.0794L66.6278 44.1606C65.985 43.9716 65.3568 43.7627 64.743 43.5341L64.0449 45.4083ZM66.0685 46.0808C66.754 46.2786 67.4357 46.4528 68.1136 46.6035L68.5475 44.6511C67.9113 44.5097 67.2697 44.3458 66.6228 44.1592L66.0685 46.0808ZM72.3011 47.2365C73.0141 47.2921 73.7223 47.32 74.4256 47.32V45.32C73.7752 45.32 73.1189 45.2942 72.4567 45.2425L72.3011 47.2365ZM74.4256 47.32C75.0398 47.32 75.6306 47.2953 76.1976 47.2452L76.0217 45.253C75.5182 45.2974 74.9864 45.32 74.4256 45.32V47.32ZM79.7492 46.4804C80.3564 46.2516 80.9213 45.9738 81.4407 45.6448L80.3706 43.9552C79.9754 44.2055 79.5341 44.4242 79.0438 44.609L79.7492 46.4804ZM81.4407 45.6448C81.8808 45.3661 82.2776 45.0531 82.6265 44.7037L81.2113 43.2906C80.9767 43.5255 80.6981 43.7478 80.3706 43.9552L81.4407 45.6448ZM84.1377 41.9928C84.2512 41.5083 84.3056 41.003 84.3056 40.48H82.3056C82.3056 40.8639 82.2657 41.2151 82.1904 41.5367L84.1377 41.9928ZM84.3056 40.48C84.3056 40.0151 84.2603 39.5641 84.166 39.1294L82.2114 39.5536C82.273 39.8374 82.3056 40.1454 82.3056 40.48H84.3056ZM82.9052 36.655C82.6077 36.3223 82.2679 36.0206 81.8899 35.7485L80.7213 37.3715C80.9916 37.5661 81.2213 37.7722 81.4144 37.9882L82.9052 36.655ZM81.9107 35.7638C81.402 35.3772 80.8108 35.0658 80.151 34.82L79.4527 36.6941C79.9628 36.8842 80.3741 37.1081 80.7005 37.3562L81.9107 35.7638ZM76.5299 34.1027C75.966 34.0607 75.3711 34.04 74.7456 34.04V36.04C75.3274 36.04 75.8724 36.0593 76.3813 36.0972L76.5299 34.1027ZM74.7456 34.04H73.0856V36.04H74.7456V34.04ZM69.7656 34.04H68.1056V36.04H69.7656V34.04ZM69.1056 35.04V32.54H67.1056V35.04H69.1056ZM69.1056 27.54V25.04H67.1056V27.54H69.1056ZM68.8393 25.7195L70.0927 24.3661L68.6253 23.0072L67.3719 24.3605L68.8393 25.7195ZM72.5993 21.6595L75.106 18.9528L73.6386 17.5939L71.1319 20.3005L72.5993 21.6595ZM77.6126 16.2461L80.1193 13.5395L78.6519 12.1805L76.1453 14.8872L77.6126 16.2461ZM82.626 10.8328L83.8793 9.47948L82.4119 8.12052L81.1586 9.47385L82.626 10.8328ZM82.1825 9.0691L82.5625 10.4291L84.4887 9.89089L84.1087 8.5309L82.1825 9.0691ZM83.3225 13.1491L83.7025 14.5091L85.6287 13.9709L85.2487 12.6109L83.3225 13.1491ZM84.6656 13.24H82.8756V15.24H84.6656V13.24ZM79.2956 13.24H75.7156V15.24H79.2956V13.24ZM72.1356 13.24H68.5556V15.24H72.1356V13.24ZM64.9756 13.24H61.3956V15.24H64.9756V13.24ZM57.8156 13.24H56.0256V15.24H57.8156V13.24ZM57.0256 14.24V12.71H55.0256V14.24H57.0256ZM57.0256 9.65V6.59H55.0256V9.65H57.0256ZM57.0256 3.53V2H55.0256V3.53H57.0256ZM56.0256 3H58.0496V0.999996H56.0256V3ZM62.0976 3H66.1456V0.999996H62.0976V3ZM70.1936 3H74.2416V0.999996H70.1936V3ZM78.2896 3H82.3376V0.999996H78.2896V3ZM86.3856 3H90.4336V0.999996H86.3856V3ZM94.4816 3H96.5056V0.999996H94.4816V3ZM95.5056 2V4.48H97.5056V2H95.5056ZM95.5056 9.44V11.92H97.5056V9.44H95.5056ZM95.7719 11.2405L94.5186 12.5939L95.986 13.9528L97.2393 12.5995L95.7719 11.2405ZM92.0119 15.3005L89.5053 18.0072L90.9726 19.3661L93.4793 16.6595L92.0119 15.3005ZM86.9986 20.7139L84.4919 23.4205L85.9593 24.7795L88.466 22.0728L86.9986 20.7139ZM81.9853 26.1272L80.7319 27.4805L82.1993 28.8395L83.4527 27.4861L81.9853 26.1272ZM81.9589 27.2901L80.0189 26.1901L79.0324 27.9299L80.9724 29.0299L81.9589 27.2901ZM76.1389 23.9901L74.1989 22.8901L73.2124 24.6299L75.1524 25.7299L76.1389 23.9901ZM73.7056 24.76H74.7856V22.76H73.7056V24.76ZM76.9456 24.76H78.0256V22.76H76.9456V24.76ZM78.0256 24.76C78.7322 24.76 79.4198 24.7764 80.0883 24.8092L80.1862 22.8116C79.4835 22.7772 78.7632 22.76 78.0256 22.76V24.76ZM84.1603 25.2498C85.5764 25.4981 86.8799 25.8395 88.0732 26.2712L88.7536 24.3905C87.4397 23.9151 86.0228 23.5459 84.5056 23.2799L84.1603 25.2498ZM91.6379 28.0352C92.1957 28.4032 92.7178 28.8017 93.2047 29.2305L94.5265 27.7295C93.9684 27.238 93.3724 26.7835 92.7392 26.3658L91.6379 28.0352ZM93.2167 29.2408C93.6328 29.5958 94.0223 29.9622 94.3855 30.3399L95.8271 28.9536C95.4166 28.5267 94.979 28.1153 94.5146 27.7192L93.2167 29.2408ZM96.3226 32.8561C96.8663 33.761 97.2981 34.7222 97.6181 35.7415L99.5263 35.1423C99.1594 33.9737 98.6629 32.8677 98.037 31.8261L96.3226 32.8561ZM98.2338 38.8693C98.2816 39.3924 98.3056 39.9292 98.3056 40.48H100.306C100.306 39.871 100.279 39.2734 100.225 38.6873L98.2338 38.8693ZM98.3056 40.48C98.3056 41.2383 98.2532 41.9839 98.1487 42.7172L100.129 42.9993C100.247 42.1707 100.306 41.3308 100.306 40.48H98.3056ZM96.8858 47.0051C96.5799 47.6756 96.2238 48.3377 95.8167 48.9914L97.5145 50.0486C97.9653 49.3246 98.3625 48.5868 98.7053 47.8353L96.8858 47.0051ZM95.8096 49.0031C95.3831 49.7094 94.8936 50.3831 94.3401 51.0246L95.8542 52.3312C96.4797 51.6065 97.0358 50.8416 97.5217 50.0369L95.8096 49.0031ZM90.5154 54.3117C89.8249 54.7611 89.0843 55.1867 88.2931 55.5882L89.1982 57.3717C90.0489 56.94 90.8518 56.4789 91.6062 55.988L90.5154 54.3117ZM88.3038 55.5829C87.8111 55.8256 87.2958 56.0514 86.7578 56.2602L87.4813 58.1247C88.0713 57.8958 88.6402 57.6467 89.1875 57.3771L88.3038 55.5829ZM83.4987 57.2504C82.4347 57.4959 81.3041 57.6902 80.1061 57.8323L80.3416 59.8183C81.6049 59.6685 82.8074 59.4625 83.9483 59.1992L83.4987 57.2504ZM76.6477 58.0905C76.0793 58.1101 75.4986 58.12 74.9056 58.12V60.12C75.5208 60.12 76.1246 60.1098 76.7169 60.0893L76.6477 58.0905Z" fill="url(#paint0_linear_27_316)" mask="url(#path-1-outside-1_27_316)"/>
</g>
<defs>
<linearGradient id="paint0_linear_27_316" x1="253" y1="57.8" x2="187.138" y2="-100.241" gradientUnits="userSpaceOnUse">
<stop stop-color="white" stop-opacity="0"/>
<stop offset="1" stop-color="white"/>
</linearGradient>
</defs>
</svg>
