<svg width="101" height="60" viewBox="0 0 101 60" fill="none" xmlns="http://www.w3.org/2000/svg">
<g opacity="0.4">
<mask id="path-1-outside-1_27_319" maskUnits="userSpaceOnUse" x="-1" y="-1" width="103" height="62" fill="black">
<rect fill="white" x="-1" y="-1" width="103" height="62"/>
<path d="M25.3213 59.12C20.5213 59.12 16.2546 57.9733 12.5213 55.68C8.84125 53.3867 5.93458 50.08 3.80125 45.76C1.66792 41.44 0.601251 36.1867 0.601251 30C0.601251 23.8133 1.66792 18.56 3.80125 14.24C5.93458 9.92 8.84125 6.61333 12.5213 4.32C16.2546 2.02666 20.5213 0.879996 25.3213 0.879996C30.0679 0.879996 34.2813 2.02666 37.9613 4.32C41.6946 6.61333 44.6279 9.92 46.7613 14.24C48.8946 18.56 49.9613 23.8133 49.9613 30C49.9613 36.1867 48.8946 41.44 46.7613 45.76C44.6279 50.08 41.6946 53.3867 37.9613 55.68C34.2813 57.9733 30.0679 59.12 25.3213 59.12ZM25.3213 46.16C27.0279 46.16 28.5213 45.6267 29.8013 44.56C31.1346 43.4933 32.1746 41.7867 32.9213 39.44C33.6679 37.04 34.0413 33.8933 34.0413 30C34.0413 26.0533 33.6679 22.9067 32.9213 20.56C32.1746 18.2133 31.1346 16.5067 29.8013 15.44C28.5213 14.3733 27.0279 13.84 25.3213 13.84C23.6146 13.84 22.0946 14.3733 20.7613 15.44C19.4813 16.5067 18.4413 18.2133 17.6413 20.56C16.8946 22.9067 16.5213 26.0533 16.5213 30C16.5213 33.8933 16.8946 37.04 17.6413 39.44C18.4413 41.7867 19.4813 43.4933 20.7613 44.56C22.0946 45.6267 23.6146 46.16 25.3213 46.16ZM76.5669 59.12C72.7269 59.12 68.8602 58.64 64.9669 57.68C61.0735 56.72 57.7135 55.36 54.8869 53.6L60.5669 41.68C62.8602 43.1733 65.3402 44.32 68.0069 45.12C70.7269 45.92 73.4202 46.32 76.0869 46.32C78.7535 46.32 80.9135 45.8133 82.5669 44.8C84.2202 43.7333 85.0469 42.2667 85.0469 40.4C85.0469 39.28 84.7269 38.2933 84.0869 37.44C83.4469 36.5333 82.3535 35.8667 80.8069 35.44C79.2602 34.96 77.0469 34.72 74.1669 34.72H58.9669L61.7669 2H97.4469V14.24H67.3669L75.4469 7.28L73.6069 29.36L65.5269 22.4H77.9269C83.4735 22.4 87.9269 23.2 91.2869 24.8C94.6469 26.3467 97.1002 28.4533 98.6469 31.12C100.194 33.7333 100.967 36.6933 100.967 40C100.967 43.3067 100.087 46.4267 98.3269 49.36C96.6202 52.24 93.9802 54.5867 90.4069 56.4C86.8335 58.2133 82.2202 59.12 76.5669 59.12Z"/>
</mask>
<path d="M12.5213 55.68L12.2568 56.1044L12.2595 56.106L12.5213 55.68ZM3.80125 45.76L3.35294 45.9814L3.80125 45.76ZM3.80125 14.24L3.35294 14.0186L3.80125 14.24ZM12.5213 4.32L12.2595 3.89395L12.2568 3.89566L12.5213 4.32ZM37.9613 4.32L37.6968 4.74435L37.6995 4.74604L37.9613 4.32ZM46.7613 14.24L46.3129 14.4614L46.7613 14.24ZM46.7613 45.76L46.3129 45.5386L46.7613 45.76ZM37.9613 55.68L37.6995 55.254L37.6968 55.2557L37.9613 55.68ZM29.8013 44.56L29.4888 44.1695L29.4812 44.1759L29.8013 44.56ZM32.9213 39.44L33.3977 39.5916L33.3987 39.5885L32.9213 39.44ZM32.9213 20.56L32.4448 20.7116L32.9213 20.56ZM29.8013 15.44L29.4811 15.8242L29.4889 15.8304L29.8013 15.44ZM20.7613 15.44L20.4488 15.0495L20.4412 15.0559L20.7613 15.44ZM17.6413 20.56L17.1679 20.3986L17.1648 20.4084L17.6413 20.56ZM17.6413 39.44L17.1637 39.5886L17.168 39.6013L17.6413 39.44ZM20.7613 44.56L20.4411 44.9442L20.4489 44.9504L20.7613 44.56ZM25.3213 58.62C24.7639 58.62 24.2143 58.6043 23.6723 58.5729L23.6145 59.5712C24.1762 59.6038 24.7451 59.62 25.3213 59.62V58.62ZM20.4057 58.1769C19.3127 57.9711 18.2542 57.6937 17.2297 57.345L16.9074 58.2916C17.9779 58.656 19.0823 58.9453 20.2206 59.1596L20.4057 58.1769ZM14.2121 56.0608C13.7272 55.8103 13.2509 55.5414 12.783 55.254L12.2595 56.106C12.7483 56.4063 13.2462 56.6874 13.7531 56.9493L14.2121 56.0608ZM12.7857 55.2557C12.3219 54.9666 11.8707 54.6611 11.4321 54.3392L10.8404 55.1454C11.2995 55.4823 11.7716 55.802 12.2568 56.1043L12.7857 55.2557ZM8.95295 52.2117C8.19142 51.4515 7.47749 50.6273 6.81124 49.7387L6.01118 50.3386C6.70514 51.2641 7.45019 52.1245 8.24643 52.9194L8.95295 52.2117ZM5.01893 46.9919C4.7522 46.5215 4.49573 46.0371 4.24957 45.5386L3.35294 45.9814C3.60731 46.4965 3.87267 46.9978 4.14905 47.4852L5.01893 46.9919ZM4.24957 45.5386C3.95954 44.9513 3.68942 44.346 3.43927 43.7226L2.51121 44.0951C2.7707 44.7417 3.05126 45.3705 3.35294 45.9814L4.24957 45.5386ZM2.2189 39.9294C1.90639 38.6795 1.65911 37.3704 1.47746 36.0017L0.486149 36.1332C0.672432 37.5368 0.92651 38.8831 1.24876 40.172L2.2189 39.9294ZM1.14038 32.0082C1.1143 31.3506 1.10125 30.6811 1.10125 30H0.10125C0.10125 30.6939 0.114546 31.3765 0.141165 32.0478L1.14038 32.0082ZM1.10125 30C1.10125 29.3188 1.1143 28.6494 1.14038 27.9918L0.141165 27.9522C0.114546 28.6235 0.10125 29.3061 0.10125 30H1.10125ZM1.47746 23.9983C1.65911 22.6296 1.90639 21.3205 2.2189 20.0706L1.24876 19.828C0.92651 21.1169 0.672432 22.4632 0.486149 23.8668L1.47746 23.9983ZM3.43927 16.2774C3.68942 15.654 3.95954 15.0487 4.24957 14.4614L3.35294 14.0186C3.05126 14.6295 2.7707 15.2583 2.51121 15.9049L3.43927 16.2774ZM4.24957 14.4614C4.49573 13.9629 4.7522 13.4785 5.01894 13.0081L4.14905 12.5148C3.87267 13.0022 3.60731 13.5035 3.35294 14.0186L4.24957 14.4614ZM6.81124 10.2613C7.47749 9.37274 8.19142 8.54852 8.95295 7.78826L8.24643 7.08056C7.45019 7.87547 6.70514 8.73586 6.01118 9.66137L6.81124 10.2613ZM11.4321 5.66075C11.8707 5.33886 12.3219 5.03339 12.7857 4.74434L12.2568 3.89566C11.7716 4.19803 11.2995 4.51767 10.8404 4.8546L11.4321 5.66075ZM12.783 4.74604C13.2509 4.45861 13.7272 4.18966 14.2121 3.93916L13.7531 3.05073C13.2462 3.31262 12.7483 3.5937 12.2595 3.89396L12.783 4.74604ZM17.2297 2.65504C18.2542 2.30627 19.3127 2.02889 20.4057 1.82309L20.2206 0.840362C19.0823 1.0547 17.9779 1.34397 16.9074 1.70839L17.2297 2.65504ZM23.6723 1.42711C24.2143 1.39571 24.7639 1.38 25.3213 1.38V0.379996C24.7451 0.379996 24.1762 0.396245 23.6145 0.428783L23.6723 1.42711ZM25.3213 1.38C25.8721 1.38 26.4153 1.39571 26.9508 1.42708L27.0093 0.428794C26.4538 0.396248 25.8911 0.379996 25.3213 0.379996V1.38ZM30.1783 1.82299C31.2578 2.02877 32.3029 2.30614 33.3139 2.65489L33.64 1.70956C32.5825 1.34476 31.491 1.0552 30.3656 0.840674L30.1783 1.82299ZM36.2895 3.9384C36.767 4.18862 37.2361 4.45726 37.6968 4.74434L38.2257 3.89566C37.744 3.59549 37.2533 3.31447 36.7536 3.05262L36.2895 3.9384ZM37.6995 4.74604C38.1678 5.03366 38.623 5.33751 39.0653 5.6576L39.6516 4.84749C39.1887 4.51253 38.7125 4.19469 38.223 3.89396L37.6995 4.74604ZM41.5691 7.77805C42.3396 8.538 43.0607 9.3619 43.7324 10.2501L44.53 9.64693C43.83 8.72125 43.0771 7.86085 42.2713 7.06609L41.5691 7.77805ZM45.5395 13.0028C45.808 13.4749 46.0659 13.961 46.3129 14.4614L47.2096 14.0186C46.9541 13.5012 46.6871 12.9978 46.4087 12.5084L45.5395 13.0028ZM46.3129 14.4614C46.603 15.0487 46.8731 15.654 47.1232 16.2774L48.0513 15.9049C47.7918 15.2583 47.5112 14.6295 47.2096 14.0186L46.3129 14.4614ZM48.3436 20.0706C48.6561 21.3205 48.9034 22.6296 49.085 23.9983L50.0764 23.8668C49.8901 22.4632 49.636 21.1169 49.3137 19.828L48.3436 20.0706ZM49.4221 27.9918C49.4482 28.6494 49.4613 29.3188 49.4613 30H50.4613C50.4613 29.3061 50.448 28.6235 50.4213 27.9522L49.4221 27.9918ZM49.4613 30C49.4613 30.6811 49.4482 31.3506 49.4221 32.0082L50.4213 32.0478C50.448 31.3765 50.4613 30.6939 50.4613 30H49.4613ZM49.085 36.0017C48.9034 37.3704 48.6561 38.6795 48.3436 39.9294L49.3137 40.172C49.636 38.8831 49.8901 37.5368 50.0764 36.1332L49.085 36.0017ZM47.1232 43.7226C46.8731 44.346 46.603 44.9513 46.3129 45.5386L47.2096 45.9814C47.5112 45.3705 47.7918 44.7417 48.0513 44.0951L47.1232 43.7226ZM46.3129 45.5386C46.0659 46.0389 45.808 46.5251 45.5395 46.9972L46.4087 47.4916C46.6871 47.0022 46.9541 46.4988 47.2096 45.9814L46.3129 45.5386ZM43.7324 49.7499C43.0607 50.6381 42.3396 51.462 41.5691 52.2219L42.2713 52.9339C43.0771 52.1391 43.83 51.2787 44.53 50.3531L43.7324 49.7499ZM39.0653 54.3424C38.623 54.6625 38.1678 54.9663 37.6995 55.254L38.223 56.106C38.7125 55.8053 39.1887 55.4875 39.6516 55.1525L39.0653 54.3424ZM37.6968 55.2557C37.2361 55.5427 36.767 55.8114 36.2895 56.0616L36.7536 56.9474C37.2533 56.6855 37.744 56.4045 38.2257 56.1043L37.6968 55.2557ZM33.3139 57.3451C32.3029 57.6939 31.2578 57.9712 30.1783 58.177L30.3656 59.1593C31.491 58.9448 32.5825 58.6552 33.64 58.2904L33.3139 57.3451ZM26.9508 58.5729C26.4153 58.6043 25.8721 58.62 25.3213 58.62V59.62C25.8911 59.62 26.4538 59.6038 27.0093 59.5712L26.9508 58.5729ZM25.3213 45.66C24.9266 45.66 24.5443 45.6296 24.1742 45.5694L24.0136 46.5564C24.4391 46.6256 24.8751 46.66 25.3213 46.66V45.66ZM22.0259 44.8155C21.6993 44.6313 21.3819 44.4162 21.0736 44.1696L20.4489 44.9504C20.7973 45.2292 21.1592 45.4747 21.5346 45.6865L22.0259 44.8155ZM21.0813 44.1759C20.7391 43.8907 20.4119 43.5529 20.1003 43.1603L19.317 43.7819C19.6669 44.2228 20.0413 44.6109 20.4412 44.9441L21.0813 44.1759ZM18.645 40.6561C18.4582 40.2271 18.2813 39.768 18.1145 39.2787L17.168 39.6013C17.3428 40.1141 17.5294 40.5989 17.7281 41.0552L18.645 40.6561ZM18.1187 39.2915C17.9053 38.6057 17.7222 37.8532 17.5701 37.033L16.5869 37.2153C16.7451 38.0687 16.9372 38.8601 17.1638 39.5885L18.1187 39.2915ZM17.0715 32.3625C17.038 31.6094 17.0213 30.8219 17.0213 30H16.0213C16.0213 30.8355 16.0383 31.6378 16.0725 32.4069L17.0715 32.3625ZM17.0213 30C17.0213 29.1761 17.0377 28.3884 17.0704 27.6367L16.0713 27.5932C16.0379 28.3606 16.0213 29.163 16.0213 30H17.0213ZM17.5642 22.9656C17.7173 22.1401 17.9021 21.3891 18.1177 20.7116L17.1648 20.4084C16.9347 21.1314 16.7405 21.9234 16.5809 22.7833L17.5642 22.9656ZM18.1145 20.7213C18.2813 20.232 18.4582 19.7729 18.645 19.3439L17.7281 18.9448C17.5294 19.4011 17.3428 19.8859 17.168 20.3987L18.1145 20.7213ZM20.1003 16.8397C20.4119 16.4471 20.7391 16.1093 21.0813 15.8241L20.4412 15.0559C20.0413 15.3891 19.6669 15.7772 19.317 16.2181L20.1003 16.8397ZM21.0736 15.8304C21.3819 15.5838 21.6993 15.3687 22.0259 15.1845L21.5346 14.3135C21.1592 14.5253 20.7973 14.7708 20.4489 15.0496L21.0736 15.8304ZM24.1742 14.4306C24.5443 14.3704 24.9266 14.34 25.3213 14.34V13.34C24.8751 13.34 24.4391 13.3744 24.0136 13.4436L24.1742 14.4306ZM25.3213 14.34C25.7117 14.34 26.0882 14.3697 26.451 14.4286L26.6111 13.4415C26.1927 13.3736 25.7626 13.34 25.3213 13.34V14.34ZM28.5573 15.1765C28.8761 15.3609 29.1841 15.5765 29.4812 15.8241L30.1213 15.0559C29.7824 14.7734 29.4279 14.5248 29.058 14.3109L28.5573 15.1765ZM29.4889 15.8304C29.8406 16.1118 30.1732 16.4439 30.4861 16.8287L31.262 16.1977C30.9077 15.7622 30.5252 15.3788 30.1136 15.0496L29.4889 15.8304ZM31.9373 19.3271C32.1189 19.7579 32.2881 20.2193 32.4448 20.7116L33.3977 20.4084C33.2327 19.8899 33.0532 19.3999 32.8587 18.9386L31.9373 19.3271ZM32.4448 20.7116C32.6604 21.3891 32.8452 22.1401 32.9983 22.9656L33.9816 22.7833C33.8221 21.9234 33.6278 21.1314 33.3977 20.4084L32.4448 20.7116ZM33.4921 27.6367C33.5249 28.3884 33.5413 29.1761 33.5413 30H34.5413C34.5413 29.163 34.5246 28.3606 34.4912 27.5932L33.4921 27.6367ZM33.5413 30C33.5413 30.8219 33.5245 31.6094 33.491 32.3625L34.49 32.4069C34.5242 31.6378 34.5413 30.8355 34.5413 30H33.5413ZM32.9924 37.033C32.8403 37.8532 32.6572 38.6057 32.4438 39.2915L33.3987 39.5885C33.6253 38.8601 33.8174 38.0687 33.9756 37.2153L32.9924 37.033ZM32.4448 39.2884C32.2881 39.7807 32.1189 40.2421 31.9373 40.6729L32.8587 41.0614C33.0532 40.6001 33.2327 40.1101 33.3977 39.5916L32.4448 39.2884ZM30.4861 43.1713C30.1732 43.5561 29.8406 43.8882 29.4889 44.1696L30.1136 44.9504C30.5252 44.6212 30.9077 44.2378 31.262 43.8023L30.4861 43.1713ZM29.4812 44.1759C29.1841 44.4235 28.8761 44.6391 28.5573 44.8235L29.058 45.6891C29.4279 45.4752 29.7824 45.2266 30.1213 44.9441L29.4812 44.1759ZM26.451 45.5714C26.0882 45.6303 25.7117 45.66 25.3213 45.66V46.66C25.7626 46.66 26.1927 46.6264 26.6111 46.5585L26.451 45.5714ZM12.5213 55.68L11.9923 56.5287L11.9978 56.5321L12.5213 55.68ZM3.80125 45.76L2.90462 46.2028L3.80125 45.76ZM3.80125 14.24L2.90462 13.7972V13.7972L3.80125 14.24ZM12.5213 4.32L11.9978 3.46791L11.9924 3.47131L12.5213 4.32ZM37.9613 4.32L37.4324 5.1687L37.4378 5.17208L37.9613 4.32ZM46.7613 14.24L45.8646 14.6828L46.7613 14.24ZM46.7613 45.76L45.8646 45.3172H45.8646L46.7613 45.76ZM37.9613 55.68L37.4378 54.8279L37.4324 54.8313L37.9613 55.68ZM29.8013 44.56L29.1766 43.7791L29.1687 43.7854L29.1611 43.7918L29.8013 44.56ZM32.9213 39.44L33.8742 39.7432L33.8761 39.7371L32.9213 39.44ZM32.9213 20.56L31.9683 20.8632L32.9213 20.56ZM29.8013 15.44L29.1611 16.2082L29.1687 16.2146L29.1766 16.2209L29.8013 15.44ZM20.7613 15.44L20.1366 14.6591L20.1287 14.6654L20.1211 14.6718L20.7613 15.44ZM17.6413 20.56L16.6947 20.2373L16.6914 20.247L16.6883 20.2568L17.6413 20.56ZM17.6413 39.44L16.6864 39.7371L16.6904 39.7499L16.6947 39.7627L17.6413 39.44ZM20.7613 44.56L20.1211 45.3282L20.1287 45.3346L20.1366 45.3409L20.7613 44.56ZM25.3213 58.12C24.7733 58.12 24.2334 58.1045 23.7013 58.0737L23.5856 60.0704C24.1572 60.1035 24.7357 60.12 25.3213 60.12V58.12ZM20.4982 57.6855C19.4279 57.484 18.3923 57.2126 17.3909 56.8716L16.7463 58.7649C17.8397 59.1372 18.9672 59.4324 20.1281 59.651L20.4982 57.6855ZM14.4416 55.6166C13.9678 55.3718 13.5021 55.1089 13.0447 54.8279L11.9978 56.5321C12.4971 56.8388 13.0056 57.1259 13.5235 57.3935L14.4416 55.6166ZM13.0501 54.8313C12.597 54.5489 12.1563 54.2505 11.728 53.9362L10.5446 55.5485C11.0139 55.8929 11.4965 56.2197 11.9924 56.5287L13.0501 54.8313ZM9.30621 51.8579C8.56203 51.115 7.86366 50.3088 7.21128 49.4388L5.61114 50.6386C6.31896 51.5826 7.07958 52.461 7.89317 53.2733L9.30621 51.8579ZM5.45388 46.7453C5.19196 46.2834 4.93994 45.8074 4.69788 45.3172L2.90462 46.2028C3.1631 46.7262 3.43291 47.2359 3.71411 47.7318L5.45388 46.7453ZM4.69788 45.3172C4.41368 44.7417 4.14878 44.1482 3.9033 43.5364L2.04718 44.2813C2.31134 44.9396 2.59712 45.5801 2.90462 46.2028L4.69788 45.3172ZM2.70397 39.8082C2.39633 38.5777 2.15246 37.2872 1.97311 35.9359L-0.00950623 36.199C0.17909 37.62 0.436571 38.9849 0.763693 40.2933L2.70397 39.8082ZM1.63999 31.9884C1.61418 31.3376 1.60125 30.6748 1.60125 30H-0.39875C-0.39875 30.7003 -0.385332 31.3895 -0.358444 32.0676L1.63999 31.9884ZM1.60125 30C1.60125 29.3252 1.61418 28.6624 1.63999 28.0116L-0.358444 27.9324C-0.385332 28.6105 -0.39875 29.2997 -0.39875 30H1.60125ZM1.97311 24.0641C2.15246 22.7128 2.39633 21.4223 2.70397 20.1918L0.763693 19.7067C0.436571 21.0151 0.17909 22.38 -0.00950432 23.801L1.97311 24.0641ZM3.9033 16.4636C4.14878 15.8518 4.41368 15.2583 4.69788 14.6828L2.90462 13.7972C2.59712 14.4199 2.31134 15.0604 2.04718 15.7187L3.9033 16.4636ZM4.69788 14.6828C4.93994 14.1926 5.19196 13.7166 5.45388 13.2547L3.71411 12.2682C3.43291 12.7641 3.1631 13.2738 2.90462 13.7972L4.69788 14.6828ZM7.21128 10.5612C7.86366 9.69118 8.56203 8.88504 9.30621 8.1421L7.89317 6.72671C7.07958 7.53895 6.31896 8.41743 5.61114 9.36142L7.21128 10.5612ZM11.728 6.06383C12.1563 5.74946 12.597 5.45108 13.0501 5.16869L11.9924 3.47131C11.4965 3.78034 11.0139 4.10708 10.5446 4.45152L11.728 6.06383ZM13.0447 5.17208C13.5021 4.89106 13.9678 4.62818 14.4416 4.38337L13.5235 2.60652C13.0056 2.8741 12.4971 3.16125 11.9978 3.46792L13.0447 5.17208ZM17.3909 3.12836C18.3923 2.78742 19.4279 2.51598 20.4982 2.31446L20.1281 0.348997C18.9672 0.567599 17.8397 0.862824 16.7463 1.23507L17.3909 3.12836ZM23.7013 1.92627C24.2334 1.89545 24.7733 1.88 25.3213 1.88V-0.120004C24.7357 -0.120004 24.1572 -0.10349 23.5856 -0.0703793L23.7013 1.92627ZM25.3213 1.88C25.8626 1.88 26.396 1.89543 26.9215 1.92623L27.0385 -0.0703497C26.4731 -0.10348 25.9006 -0.120004 25.3213 -0.120004V1.88ZM30.0847 2.31414C31.1412 2.51555 32.1631 2.78682 33.1509 3.12756L33.8031 1.23689C32.7223 0.864079 31.6075 0.568422 30.4592 0.349519L30.0847 2.31414ZM36.0574 4.38129C36.5239 4.6257 36.9822 4.88814 37.4324 5.16869L38.4902 3.47131C37.998 3.1646 37.4965 2.87739 36.9856 2.60973L36.0574 4.38129ZM37.4378 5.17208C37.8954 5.45314 38.3401 5.74999 38.7721 6.06265L39.9447 4.44243C39.4716 4.10005 38.9849 3.77521 38.4847 3.46792L37.4378 5.17208ZM41.218 8.13403C41.9708 8.87657 42.6761 9.68222 43.3336 10.5517L44.9288 9.34535C44.2146 8.40093 43.4459 7.52228 42.6224 6.7101L41.218 8.13403ZM45.1049 13.2501C45.3685 13.7134 45.6217 14.191 45.8646 14.6828L47.6579 13.7972C47.3982 13.2713 47.1267 12.7593 46.8433 12.2611L45.1049 13.2501ZM45.8646 14.6828C46.1488 15.2583 46.4137 15.8518 46.6592 16.4636L48.5153 15.7187C48.2512 15.0604 47.9654 14.4199 47.6579 13.7972L45.8646 14.6828ZM47.8585 20.1918C48.1662 21.4223 48.41 22.7128 48.5894 24.0641L50.572 23.801C50.3834 22.38 50.1259 21.0151 49.7988 19.7067L47.8585 20.1918ZM48.9225 28.0116C48.9483 28.6624 48.9613 29.3252 48.9613 30H50.9613C50.9613 29.2997 50.9478 28.6105 50.9209 27.9324L48.9225 28.0116ZM48.9613 30C48.9613 30.6748 48.9483 31.3376 48.9225 31.9884L50.9209 32.0676C50.9478 31.3895 50.9613 30.7003 50.9613 30H48.9613ZM48.5894 35.9359C48.41 37.2872 48.1662 38.5777 47.8585 39.8082L49.7988 40.2933C50.1259 38.9849 50.3834 37.62 50.572 36.199L48.5894 35.9359ZM46.6592 43.5364C46.4137 44.1481 46.1488 44.7417 45.8646 45.3172L47.6579 46.2028C47.9654 45.5801 48.2512 44.9396 48.5153 44.2813L46.6592 43.5364ZM45.8646 45.3172C45.6217 45.809 45.3685 46.2866 45.1049 46.7499L46.8433 47.7389C47.1267 47.2407 47.3982 46.7287 47.6579 46.2028L45.8646 45.3172ZM43.3336 49.4483C42.6761 50.3178 41.9708 51.1234 41.218 51.866L42.6224 53.2899C43.4459 52.4777 44.2146 51.5991 44.9288 50.6546L43.3336 49.4483ZM38.7721 53.9373C38.3401 54.25 37.8954 54.5469 37.4378 54.8279L38.4847 56.5321C38.9849 56.2248 39.4716 55.9 39.9447 55.5576L38.7721 53.9373ZM37.4324 54.8313C36.9822 55.1119 36.5239 55.3743 36.0574 55.6187L36.9856 57.3903C37.4965 57.1226 37.998 56.8354 38.4902 56.5287L37.4324 54.8313ZM33.1509 56.8724C32.1631 57.2132 31.1412 57.4845 30.0847 57.6859L30.4592 59.6505C31.6075 59.4316 32.7223 59.1359 33.8031 58.7631L33.1509 56.8724ZM26.9215 58.0738C26.396 58.1046 25.8626 58.12 25.3213 58.12V60.12C25.9006 60.12 26.4731 60.1035 27.0385 60.0703L26.9215 58.0738ZM25.3213 45.16C24.9523 45.16 24.597 45.1316 24.2545 45.0759L23.9333 47.0499C24.3864 47.1237 24.8493 47.16 25.3213 47.16V45.16ZM22.2715 44.38C21.9694 44.2095 21.6741 44.0097 21.3859 43.7791L20.1366 45.3409C20.505 45.6357 20.8891 45.8965 21.2889 46.122L22.2715 44.38ZM21.4014 43.7918C21.088 43.5306 20.7844 43.218 20.492 42.8495L18.9254 44.0927C19.2944 44.5578 19.6924 44.971 20.1211 45.3282L21.4014 43.7918ZM19.1034 40.4566C18.9226 40.0412 18.7506 39.595 18.5878 39.1173L16.6947 39.7627C16.8736 40.2872 17.065 40.7848 17.2696 41.2548L19.1034 40.4566ZM18.5961 39.1429C18.3894 38.4785 18.2108 37.7454 18.0617 36.9418L16.0953 37.3065C16.2566 38.1765 16.4531 38.9872 16.6864 39.7371L18.5961 39.1429ZM17.571 32.3402C17.5379 31.5952 17.5213 30.8152 17.5213 30H15.5213C15.5213 30.8422 15.5384 31.652 15.573 32.4291L17.571 32.3402ZM17.5213 30C17.5213 29.1827 17.5375 28.4023 17.5699 27.6584L15.5718 27.5714C15.538 28.3468 15.5213 29.1564 15.5213 30H17.5213ZM18.0558 23.0568C18.2057 22.2484 18.3858 21.518 18.5942 20.8632L16.6883 20.2568C16.451 21.0025 16.252 21.815 16.0893 22.6921L18.0558 23.0568ZM18.5878 20.8827C18.7506 20.405 18.9226 19.9588 19.1034 19.5434L17.2696 18.7452C17.065 19.2152 16.8736 19.7128 16.6947 20.2373L18.5878 20.8827ZM20.492 17.1505C20.7844 16.782 21.088 16.4694 21.4014 16.2082L20.1211 14.6718C19.6924 15.029 19.2944 15.4422 18.9254 15.9073L20.492 17.1505ZM21.3859 16.2209C21.6741 15.9903 21.9694 15.7905 22.2715 15.62L21.2889 13.878C20.8891 14.1035 20.505 14.3643 20.1366 14.6591L21.3859 16.2209ZM24.2545 14.9241C24.597 14.8684 24.9523 14.84 25.3213 14.84V12.84C24.8493 12.84 24.3864 12.8763 23.9333 12.9501L24.2545 14.9241ZM25.3213 14.84C25.6863 14.84 26.0359 14.8678 26.3709 14.9221L26.6912 12.9479C26.245 12.8756 25.7881 12.84 25.3213 12.84V14.84ZM28.307 15.6093C28.6002 15.7789 28.8849 15.9781 29.1611 16.2082L30.4414 14.6718C30.0815 14.3718 29.7038 14.1068 29.3083 13.878L28.307 15.6093ZM29.1766 16.2209C29.4983 16.4783 29.8059 16.7847 30.0982 17.1441L31.6499 15.8822C31.275 15.4213 30.8675 15.0123 30.4259 14.6591L29.1766 16.2209ZM31.4765 19.5213C31.6517 19.9369 31.8158 20.384 31.9683 20.8632L33.8742 20.2568C33.705 19.7252 33.5203 19.2209 33.3195 18.7444L31.4765 19.5213ZM31.9683 20.8632C32.1767 21.518 32.3568 22.2484 32.5067 23.0568L34.4732 22.6921C34.3105 21.815 34.1115 21.0025 33.8742 20.2568L31.9683 20.8632ZM32.9926 27.6584C33.025 28.4023 33.0413 29.1827 33.0413 30H35.0413C35.0413 29.1564 35.0245 28.3468 34.9907 27.5714L32.9926 27.6584ZM33.0413 30C33.0413 30.8152 33.0246 31.5952 32.9915 32.3402L34.9895 32.4291C35.0241 31.652 35.0413 30.8422 35.0413 30H33.0413ZM32.5008 36.9418C32.3517 37.7454 32.1731 38.4785 31.9664 39.1429L33.8761 39.7371C34.1094 38.9872 34.3059 38.1765 34.4672 37.3065L32.5008 36.9418ZM31.9683 39.1368C31.8158 39.616 31.6517 40.0631 31.4765 40.4787L33.3195 41.2556C33.5203 40.7791 33.705 40.2748 33.8742 39.7432L31.9683 39.1368ZM30.0982 42.8559C29.8059 43.2153 29.4983 43.5217 29.1766 43.7791L30.4259 45.3409C30.8675 44.9877 31.275 44.5787 31.6499 44.1178L30.0982 42.8559ZM29.1611 43.7918C28.8849 44.0219 28.6002 44.2211 28.307 44.3907L29.3083 46.122C29.7038 45.8932 30.0815 45.6282 30.4414 45.3282L29.1611 43.7918ZM26.3709 45.0779C26.0359 45.1322 25.6863 45.16 25.3213 45.16V47.16C25.7881 47.16 26.245 47.1244 26.6912 47.0521L26.3709 45.0779ZM64.9669 57.68L64.8472 58.1655L64.9669 57.68ZM54.8869 53.6L54.4355 53.3849L54.2433 53.7883L54.6226 54.0244L54.8869 53.6ZM60.5669 41.68L60.8397 41.261L60.3612 40.9494L60.1155 41.4649L60.5669 41.68ZM68.0069 45.12L67.8632 45.5989L67.8658 45.5997L68.0069 45.12ZM82.5669 44.8L82.8282 45.2264L82.8379 45.2201L82.5669 44.8ZM84.0869 37.44L83.6784 37.7283L83.6825 37.7342L83.6869 37.74L84.0869 37.44ZM80.8069 35.44L80.6587 35.9175L80.6663 35.9199L80.6739 35.922L80.8069 35.44ZM58.9669 34.72L58.4687 34.6774L58.4223 35.22H58.9669V34.72ZM61.7669 2V1.5H61.3078L61.2687 1.95737L61.7669 2ZM97.4469 2H97.9469V1.5H97.4469V2ZM97.4469 14.24V14.74H97.9469V14.24H97.4469ZM67.3669 14.24L67.0406 13.8612L66.0203 14.74H67.3669V14.24ZM75.4469 7.28L75.9451 7.32152L76.0467 6.10344L75.1206 6.90117L75.4469 7.28ZM73.6069 29.36L73.2805 29.7388L74.0237 30.379L74.1051 29.4015L73.6069 29.36ZM65.5269 22.4V21.9H64.1803L65.2006 22.7788L65.5269 22.4ZM91.2869 24.8L91.0719 25.2515L91.0778 25.2542L91.2869 24.8ZM98.6469 31.12L98.2143 31.3709L98.2166 31.3747L98.6469 31.12ZM98.3269 49.36L97.8981 49.1027L97.8967 49.1051L98.3269 49.36ZM90.4069 56.4L90.1806 55.9541L90.4069 56.4ZM76.5669 58.62C75.6033 58.62 74.638 58.5894 73.671 58.5283L73.6079 59.5263C74.5959 59.5888 75.5822 59.62 76.5669 59.62V58.62ZM67.9213 57.8087C66.9782 57.6327 66.0333 57.428 65.0866 57.1945L64.8472 58.1655C65.8121 58.4034 66.7756 58.6122 67.7378 58.7918L67.9213 57.8087ZM65.0866 57.1945C64.1911 56.9737 63.3248 56.7317 62.4878 56.4686L62.1879 57.4225C63.0459 57.6923 63.9323 57.9399 64.8472 58.1655L65.0866 57.1945ZM57.4934 54.4793C56.6742 54.0724 55.8935 53.6378 55.1512 53.1756L54.6226 54.0244C55.3932 54.5043 56.202 54.9544 57.0485 55.3749L57.4934 54.4793ZM55.3382 53.8151L56.0482 52.3251L55.1455 51.8949L54.4355 53.3849L55.3382 53.8151ZM57.4682 49.3451L58.8882 46.3651L57.9855 45.9349L56.5655 48.9149L57.4682 49.3451ZM60.3082 43.3851L61.0182 41.8951L60.1155 41.4649L59.4055 42.9549L60.3082 43.3851ZM60.294 42.099C60.8797 42.4804 61.4774 42.8395 62.0871 43.1765L62.5708 42.3013C61.9823 41.976 61.4053 41.6293 60.8397 41.261L60.294 42.099ZM65.8827 44.9294C66.5314 45.1743 67.1916 45.3974 67.8632 45.5989L68.1505 44.6411C67.5009 44.4462 66.8627 44.2304 66.2359 43.9938L65.8827 44.9294ZM67.8658 45.5997C68.5389 45.7976 69.2107 45.9716 69.8813 46.1215L70.0994 45.1456C69.4508 45.0006 68.8003 44.8322 68.148 44.6403L67.8658 45.5997ZM74.0017 46.7404C74.6984 46.7934 75.3934 46.82 76.0869 46.82V45.82C75.419 45.82 74.7493 45.7944 74.0777 45.7433L74.0017 46.7404ZM76.0869 46.82C76.6861 46.82 77.2622 46.795 77.815 46.7447L77.7244 45.7488C77.2041 45.7962 76.6584 45.82 76.0869 45.82V46.82ZM81.229 46.0022C81.8014 45.7871 82.3348 45.5287 82.8282 45.2263L82.3056 44.3737C81.8698 44.6408 81.394 44.8719 80.8772 45.0662L81.229 46.0022ZM82.8379 45.2201C83.2547 44.9513 83.6269 44.6556 83.9523 44.3321L83.2473 43.6229C82.9763 43.8923 82.6599 44.145 82.2958 44.3799L82.8379 45.2201ZM85.3811 41.8296C85.4923 41.375 85.5469 40.898 85.5469 40.4H84.5469C84.5469 40.8247 84.5004 41.2214 84.4097 41.5918L85.3811 41.8296ZM85.5469 40.4C85.5469 40.106 85.5265 39.8185 85.4854 39.538L84.496 39.6831C84.5297 39.9133 84.5469 40.1521 84.5469 40.4H85.5469ZM84.9526 37.8783C84.8192 37.622 84.6638 37.3758 84.4869 37.14L83.6869 37.74C83.8319 37.9334 83.958 38.1334 84.0655 38.34L84.9526 37.8783ZM84.4954 37.1517C84.2867 36.8561 84.0379 36.5859 83.751 36.3406L83.101 37.1005C83.329 37.2955 83.5207 37.5049 83.6784 37.7283L84.4954 37.1517ZM81.919 35.281C81.6121 35.1609 81.2855 35.0534 80.9398 34.958L80.6739 35.922C80.9896 36.0091 81.2831 36.106 81.5546 36.2122L81.919 35.281ZM80.9551 34.9625C80.4501 34.8058 79.8842 34.6753 79.2592 34.5697L79.0926 35.5557C79.6831 35.6555 80.2045 35.7766 80.6587 35.9175L80.9551 34.9625ZM75.8611 34.2502C75.3234 34.23 74.7586 34.22 74.1669 34.22V35.22C74.7474 35.22 75.2996 35.2298 75.8237 35.2495L75.8611 34.2502ZM74.1669 34.22H72.2669V35.22H74.1669V34.22ZM68.4669 34.22H64.6669V35.22H68.4669V34.22ZM60.8669 34.22H58.9669V35.22H60.8669V34.22ZM59.465 34.7626L59.6401 32.7176L58.6437 32.6324L58.4687 34.6774L59.465 34.7626ZM59.9901 28.6276L60.34 24.5376L59.3437 24.4524L58.9937 28.5424L59.9901 28.6276ZM60.69 20.4476L61.0401 16.3576L60.0437 16.2724L59.6937 20.3624L60.69 20.4476ZM61.3901 12.2676L61.7401 8.17763L60.7437 8.09237L60.3937 12.1824L61.3901 12.2676ZM62.09 4.08763L62.2651 2.04263L61.2687 1.95737L61.0937 4.00237L62.09 4.08763ZM61.7669 2.5H63.9969V1.5H61.7669V2.5ZM68.4569 2.5H72.9169V1.5H68.4569V2.5ZM77.3769 2.5H81.8369V1.5H77.3769V2.5ZM86.2969 2.5H90.7569V1.5H86.2969V2.5ZM95.2169 2.5H97.4469V1.5H95.2169V2.5ZM96.9469 2V3.53H97.9469V2H96.9469ZM96.9469 6.59V9.65H97.9469V6.59H96.9469ZM96.9469 12.71V14.24H97.9469V12.71H96.9469ZM97.4469 13.74H95.5669V14.74H97.4469V13.74ZM91.8069 13.74H88.0469V14.74H91.8069V13.74ZM84.2869 13.74H80.5269V14.74H84.2869V13.74ZM76.7669 13.74H73.0069V14.74H76.7669V13.74ZM69.2469 13.74H67.3669V14.74H69.2469V13.74ZM67.6932 14.6188L69.7132 12.8788L69.0606 12.1212L67.0406 13.8612L67.6932 14.6188ZM73.7532 9.39883L75.7732 7.65883L75.1206 6.90117L73.1006 8.64117L73.7532 9.39883ZM74.9486 7.23848L74.7953 9.07848L75.7918 9.16152L75.9451 7.32152L74.9486 7.23848ZM74.4886 12.7585L74.1819 16.4385L75.1785 16.5215L75.4851 12.8415L74.4886 12.7585ZM73.8753 20.1185L73.5686 23.7985L74.5651 23.8815L74.8718 20.2015L73.8753 20.1185ZM73.2619 27.4785L73.1086 29.3185L74.1051 29.4015L74.2585 27.5615L73.2619 27.4785ZM73.9332 28.9812L71.9132 27.2412L71.2606 27.9988L73.2805 29.7388L73.9332 28.9812ZM67.8732 23.7612L65.8532 22.0212L65.2006 22.7788L67.2206 24.5188L67.8732 23.7612ZM65.5269 22.9H67.0769V21.9H65.5269V22.9ZM70.1769 22.9H73.2769V21.9H70.1769V22.9ZM76.3769 22.9H77.9269V21.9H76.3769V22.9ZM77.9269 22.9C78.5041 22.9 79.0691 22.9087 79.6218 22.9262L79.6534 21.9267C79.0897 21.9089 78.5142 21.9 77.9269 21.9V22.9ZM82.995 23.1571C84.1719 23.2856 85.2803 23.4619 86.3207 23.6856L86.5309 22.708C85.4536 22.4763 84.311 22.2948 83.1035 22.163L82.995 23.1571ZM89.5379 24.6067C90.074 24.8048 90.5853 25.0197 91.0719 25.2514L91.5018 24.3486C90.9865 24.1032 90.4473 23.8766 89.8843 23.6687L89.5379 24.6067ZM91.0778 25.2542C91.8342 25.6024 92.5417 25.9787 93.2008 26.3828L93.7235 25.5303C93.0284 25.1041 92.2858 24.7094 91.4959 24.3458L91.0778 25.2542ZM96.8423 29.4383C97.3616 30.0449 97.8189 30.689 98.2144 31.3709L99.0794 30.8691C98.653 30.134 98.1604 29.4402 97.6019 28.7879L96.8423 29.4383ZM98.2166 31.3747C98.6007 32.0236 98.9354 32.6944 99.221 33.3871L100.145 33.006C99.8416 32.2688 99.4855 31.5552 99.0772 30.8653L98.2166 31.3747ZM100.337 37.7408C100.424 38.4732 100.467 39.2262 100.467 40H101.467C101.467 39.1888 101.421 38.3966 101.33 37.6236L100.337 37.7408ZM100.467 40C100.467 40.8076 100.413 41.603 100.305 42.3864L101.296 42.5226C101.41 41.6932 101.467 40.8523 101.467 40H100.467ZM99.0019 46.9745C98.6857 47.6938 98.3178 48.4032 97.8981 49.1028L98.7556 49.6172C99.1962 48.8829 99.5836 48.1362 99.9173 47.377L99.0019 46.9745ZM97.8967 49.1051C97.4577 49.8459 96.9547 50.5507 96.3872 51.2197L97.1497 51.8666C97.753 51.1555 98.2889 50.4049 98.757 49.6149L97.8967 49.1051ZM92.4584 54.6407C91.7493 55.1054 90.9902 55.5433 90.1806 55.9541L90.6331 56.8459C91.4734 56.4195 92.2647 55.9633 93.0065 55.477L92.4584 54.6407ZM90.1806 55.9541C89.6761 56.2102 89.1495 56.448 88.6007 56.6676L88.9721 57.596C89.5474 57.3659 90.1011 57.1159 90.6331 56.8459L90.1806 55.9541ZM85.2786 57.709C84.1953 57.9669 83.0465 58.1705 81.8319 58.3192L81.9534 59.3117C83.2016 59.159 84.3874 58.9492 85.5102 58.6818L85.2786 57.709ZM78.3284 58.5892C77.7534 58.6097 77.1662 58.62 76.5669 58.62V59.62C77.1776 59.62 77.7767 59.6095 78.3641 59.5885L78.3284 58.5892ZM64.9669 57.68L64.7275 58.6509L64.9669 57.68ZM54.8869 53.6L53.9841 53.1698L53.5997 53.9766L54.3583 54.4489L54.8869 53.6ZM60.5669 41.68L61.1125 40.842L60.1554 40.2188L59.6641 41.2498L60.5669 41.68ZM68.0069 45.12L67.7195 46.0778L67.7247 46.0794L68.0069 45.12ZM82.5669 44.8L83.0894 45.6526L83.0993 45.6466L83.109 45.6403L82.5669 44.8ZM84.0869 37.44L83.2699 38.0167L83.2782 38.0285L83.2869 38.04L84.0869 37.44ZM80.8069 35.44L80.5105 36.3951L80.5256 36.3998L80.5409 36.404L80.8069 35.44ZM58.9669 34.72L57.9705 34.6347L57.8776 35.72H58.9669V34.72ZM61.7669 2V0.999996H60.8488L60.7705 1.91473L61.7669 2ZM97.4469 2H98.4469V0.999996H97.4469V2ZM97.4469 14.24V15.24H98.4469V14.24H97.4469ZM67.3669 14.24L66.7142 13.4823L64.6737 15.24H67.3669V14.24ZM75.4469 7.28L76.4434 7.36304L76.6464 4.92687L74.7942 6.52233L75.4469 7.28ZM73.6069 29.36L72.9542 30.1177L74.4405 31.3979L74.6034 29.443L73.6069 29.36ZM65.5269 22.4V21.4H62.8337L64.8742 23.1577L65.5269 22.4ZM91.2869 24.8L90.8569 25.7029L90.8687 25.7084L91.2869 24.8ZM98.6469 31.12L97.7818 31.6217L97.7863 31.6293L98.6469 31.12ZM98.3269 49.36L97.4694 48.8455L97.4666 48.8502L98.3269 49.36ZM90.4069 56.4L89.9543 55.5082L90.4069 56.4ZM76.5669 58.12C75.6139 58.12 74.6591 58.0898 73.7025 58.0293L73.5763 60.0253C74.5748 60.0884 75.5716 60.12 76.5669 60.12V58.12ZM68.013 57.3172C67.0794 57.143 66.1439 56.9403 65.2063 56.7091L64.7275 58.6509C65.7015 58.8911 66.6744 59.1019 67.646 59.2833L68.013 57.3172ZM65.2063 56.7091C64.3204 56.4907 63.4643 56.2514 62.6377 55.9916L62.0379 57.8995C62.9064 58.1725 63.8029 58.423 64.7275 58.6509L65.2063 56.7091ZM57.7159 54.0315C56.9103 53.6314 56.1437 53.2045 55.4154 52.7511L54.3583 54.4489C55.1431 54.9375 55.9658 55.3954 56.8261 55.8227L57.7159 54.0315ZM55.7896 54.0302L56.4996 52.5402L54.6941 51.6798L53.9841 53.1698L55.7896 54.0302ZM57.9196 49.5602L59.3396 46.5802L57.5341 45.7198L56.1141 48.6998L57.9196 49.5602ZM60.7596 43.6002L61.4696 42.1102L59.6641 41.2498L58.9541 42.7398L60.7596 43.6002ZM60.0212 42.518C60.6169 42.9059 61.2249 43.2713 61.8452 43.6141L62.8127 41.8637C62.2347 41.5443 61.668 41.2037 61.1125 40.842L60.0212 42.518ZM65.7061 45.3971C66.3658 45.6462 67.0369 45.8731 67.7195 46.0778L68.2942 44.1622C67.6555 43.9706 67.0283 43.7585 66.4125 43.526L65.7061 45.3971ZM67.7247 46.0794C68.4081 46.2804 69.0906 46.4571 69.7722 46.6094L70.2085 44.6576C69.5709 44.5151 68.9311 44.3495 68.289 44.1606L67.7247 46.0794ZM73.9637 47.2389C74.6729 47.293 75.3807 47.32 76.0869 47.32V45.32C75.4318 45.32 74.7747 45.2949 74.1157 45.2447L73.9637 47.2389ZM76.0869 47.32C76.6999 47.32 77.2912 47.2944 77.8603 47.2426L77.6791 45.2509C77.1751 45.2967 76.6445 45.32 76.0869 45.32V47.32ZM81.405 46.4703C82.005 46.2447 82.5672 45.9727 83.0894 45.6526L82.0443 43.9474C81.6374 44.1968 81.1904 44.4143 80.7012 44.5982L81.405 46.4703ZM83.109 45.6403C83.5521 45.3544 83.9522 45.0373 84.3048 44.6867L82.8947 43.2683C82.651 43.5107 82.3624 43.7418 82.0247 43.9597L83.109 45.6403ZM85.8667 41.9485C85.9883 41.4518 86.0469 40.9346 86.0469 40.4H84.0469C84.0469 40.7881 84.0044 41.1446 83.9241 41.4729L85.8667 41.9485ZM86.0469 40.4C86.0469 40.0829 86.0249 39.7711 85.9801 39.4654L84.0013 39.7557C84.0313 39.9607 84.0469 40.1752 84.0469 40.4H86.0469ZM85.3961 37.6475C85.2497 37.3663 85.0797 37.0971 84.8869 36.84L83.2869 38.04C83.416 38.2122 83.5274 38.3891 83.622 38.5709L85.3961 37.6475ZM84.9038 36.8633C84.6698 36.5317 84.3923 36.2311 84.076 35.9606L82.776 37.4805C82.9746 37.6503 83.1377 37.8293 83.2699 38.0167L84.9038 36.8633ZM82.1012 34.8153C81.7766 34.6883 81.4335 34.5755 81.0728 34.476L80.5409 36.404C80.8417 36.487 81.1185 36.5785 81.3725 36.6779L82.1012 34.8153ZM81.1033 34.4849C80.5729 34.3203 79.9847 34.1852 79.3425 34.0767L79.0093 36.0488C79.5826 36.1456 80.0817 36.262 80.5105 36.3951L81.1033 34.4849ZM75.8798 33.7505C75.3353 33.7301 74.7642 33.72 74.1669 33.72V35.72C74.7418 35.72 75.2877 35.7298 75.805 35.7491L75.8798 33.7505ZM74.1669 33.72H72.2669V35.72H74.1669V33.72ZM68.4669 33.72H64.6669V35.72H68.4669V33.72ZM60.8669 33.72H58.9669V35.72H60.8669V33.72ZM59.9632 34.8053L60.1382 32.7603L58.1455 32.5897L57.9705 34.6347L59.9632 34.8053ZM60.4882 28.6703L60.8382 24.5803L58.8455 24.4097L58.4955 28.4997L60.4882 28.6703ZM61.1882 20.4903L61.5382 16.4003L59.5455 16.2297L59.1955 20.3197L61.1882 20.4903ZM61.8882 12.3103L62.2382 8.22026L60.2455 8.04974L59.8955 12.1397L61.8882 12.3103ZM62.5882 4.13026L62.7632 2.08526L60.7705 1.91473L60.5955 3.95973L62.5882 4.13026ZM61.7669 3H63.9969V0.999996H61.7669V3ZM68.4569 3H72.9169V0.999996H68.4569V3ZM77.3769 3H81.8369V0.999996H77.3769V3ZM86.2969 3H90.7569V0.999996H86.2969V3ZM95.2169 3H97.4469V0.999996H95.2169V3ZM96.4469 2V3.53H98.4469V2H96.4469ZM96.4469 6.59V9.65H98.4469V6.59H96.4469ZM96.4469 12.71V14.24H98.4469V12.71H96.4469ZM97.4469 13.24H95.5669V15.24H97.4469V13.24ZM91.8069 13.24H88.0469V15.24H91.8069V13.24ZM84.2869 13.24H80.5269V15.24H84.2869V13.24ZM76.7669 13.24H73.0069V15.24H76.7669V13.24ZM69.2469 13.24H67.3669V15.24H69.2469V13.24ZM68.0195 14.9977L70.0395 13.2577L68.7342 11.7423L66.7142 13.4823L68.0195 14.9977ZM74.0795 9.77766L76.0995 8.03767L74.7942 6.52233L72.7742 8.26233L74.0795 9.77766ZM74.4503 7.19695L74.297 9.03695L76.2901 9.20304L76.4434 7.36304L74.4503 7.19695ZM73.9903 12.717L73.6837 16.397L75.6768 16.563L75.9834 12.883L73.9903 12.717ZM73.377 20.077L73.0703 23.757L75.0634 23.923L75.3701 20.243L73.377 20.077ZM72.7637 27.437L72.6103 29.277L74.6034 29.443L74.7568 27.603L72.7637 27.437ZM74.2595 28.6023L72.2395 26.8623L70.9342 28.3777L72.9542 30.1177L74.2595 28.6023ZM68.1995 23.3823L66.1795 21.6423L64.8742 23.1577L66.8942 24.8977L68.1995 23.3823ZM65.5269 23.4H67.0769V21.4H65.5269V23.4ZM70.1769 23.4H73.2769V21.4H70.1769V23.4ZM76.3769 23.4H77.9269V21.4H76.3769V23.4ZM77.9269 23.4C78.4991 23.4 79.0588 23.4087 79.606 23.4259L79.6691 21.4269C79.1 21.409 78.5192 21.4 77.9269 21.4V23.4ZM82.9408 23.6542C84.1024 23.7809 85.1937 23.9547 86.2155 24.1744L86.636 22.2192C85.5403 21.9835 84.3805 21.7994 83.1577 21.666L82.9408 23.6542ZM89.3646 25.0758C89.8874 25.2689 90.3847 25.478 90.8569 25.7029L91.7168 23.8971C91.1871 23.6449 90.6339 23.4125 90.0576 23.1996L89.3646 25.0758ZM90.8687 25.7084C91.6084 26.0489 92.2984 26.416 92.9395 26.8091L93.9849 25.1041C93.2718 24.6668 92.5115 24.2629 91.705 23.8916L90.8687 25.7084ZM96.4625 29.7635C96.9623 30.3472 97.4018 30.9665 97.7818 31.6217L99.5119 30.6183C99.0701 29.8565 98.5597 29.1378 97.9817 28.4627L96.4625 29.7635ZM97.7863 31.6293C98.1583 32.2578 98.4823 32.9072 98.7587 33.5776L100.608 32.8154C100.295 32.056 99.9279 31.321 99.5074 30.6107L97.7863 31.6293ZM99.8405 37.7994C99.9246 38.5115 99.9669 39.2449 99.9669 40H101.967C101.967 39.1701 101.92 38.3583 101.827 37.565L99.8405 37.7994ZM99.9669 40C99.9669 40.7852 99.9144 41.5579 99.8099 42.3183L101.791 42.5907C101.908 41.7383 101.967 40.8746 101.967 40H99.9669ZM98.5442 46.7733C98.2367 47.4727 97.8786 48.1634 97.4694 48.8455L99.1844 49.8745C99.6354 49.1228 100.033 48.3574 100.375 47.5783L98.5442 46.7733ZM97.4666 48.8502C97.0422 49.5664 96.5555 50.2483 96.0059 50.8962L97.531 52.19C98.1522 51.4579 98.7045 50.6844 99.1872 49.8698L97.4666 48.8502ZM92.1843 54.2225C91.4916 54.6765 90.7486 55.1052 89.9543 55.5082L90.8594 57.2917C91.7151 56.8575 92.5224 56.3922 93.2806 55.8952L92.1843 54.2225ZM89.9543 55.5082C89.4636 55.7573 88.9506 55.9891 88.4149 56.2034L89.1578 58.0603C89.7463 57.8248 90.3136 57.5687 90.8594 57.2917L89.9543 55.5082ZM85.1628 57.2226C84.0992 57.4758 82.9689 57.6762 81.7711 57.8229L82.0141 59.808C83.2792 59.6532 84.4834 59.4403 85.626 59.1682L85.1628 57.2226ZM78.3106 58.0895C77.7417 58.1098 77.1605 58.12 76.5669 58.12V60.12C77.1834 60.12 77.7884 60.1094 78.382 60.0882L78.3106 58.0895Z" fill="url(#paint0_linear_27_319)" mask="url(#path-1-outside-1_27_319)"/>
</g>
<defs>
<linearGradient id="paint0_linear_27_319" x1="253" y1="57.8" x2="187.138" y2="-100.241" gradientUnits="userSpaceOnUse">
<stop stop-color="white" stop-opacity="0"/>
<stop offset="1" stop-color="white"/>
</linearGradient>
</defs>
</svg>
