<svg width="29" height="28" viewBox="0 0 29 28" fill="none" xmlns="http://www.w3.org/2000/svg">
<g clip-path="url(#clip0_32_3040)">
<path opacity="0.932" fill-rule="evenodd" clip-rule="evenodd" d="M17.9263 -0.0273438C18.6815 -0.0273438 19.4368 -0.0273438 20.1919 -0.0273438C23.4448 0.3987 25.9464 1.94818 27.6968 4.62109C28.2963 5.63795 28.7211 6.71349 28.9712 7.84766C28.9712 9.01431 28.9712 10.181 28.9712 11.3477C28.06 15.2082 25.6433 17.733 21.7212 18.9219C21.42 18.9892 21.1178 19.053 20.815 19.1133C20.3717 19.0599 20.2111 18.8229 20.3335 18.4023C20.3996 18.3385 20.4657 18.2748 20.5318 18.2109C24.5949 17.314 27.0588 14.8986 27.9234 10.9648C28.3392 7.70197 27.2725 4.99493 24.7232 2.84375C21.8759 0.759134 18.7796 0.339863 15.4341 1.58594C12.3327 2.9879 10.5296 5.33035 10.025 8.61328C10.0061 8.94141 9.98717 9.26953 9.96831 9.59766C9.96219 9.9044 9.80173 10.0503 9.48687 10.0352C9.34946 10.0404 9.22671 10.004 9.1187 9.92578C8.96923 6.70507 10.187 4.07093 12.772 2.02344C14.2974 0.885943 16.0155 0.20235 17.9263 -0.0273438Z" fill="white"/>
<path opacity="0.956" fill-rule="evenodd" clip-rule="evenodd" d="M17.8703 1.72257C18.6688 1.69714 19.4618 1.72449 20.2492 1.8046C20.2847 1.84563 20.313 1.89121 20.3342 1.94132C20.3625 2.45141 20.3719 2.96182 20.3625 3.47257C21.0088 3.44886 21.6507 3.47621 22.2883 3.5546C23.1121 4.03817 23.3104 4.70354 22.883 5.55069C22.7176 5.74713 22.5193 5.90206 22.2883 6.01554C21.0458 6.08668 19.7997 6.12316 18.55 6.12491C17.7659 6.2992 17.5299 6.74583 17.842 7.46475C17.9518 7.60727 18.0934 7.70751 18.2668 7.76554C18.8871 7.83187 19.5101 7.86835 20.1359 7.87491C21.7109 8.2289 22.6832 9.16772 23.0529 10.6913C23.2662 12.4947 22.5394 13.7982 20.8723 14.6015C20.7062 14.6641 20.5363 14.7096 20.3625 14.7382C20.3719 15.2854 20.3625 15.8323 20.3342 16.3788C20.3059 16.4791 20.2398 16.5429 20.1359 16.5702C19.3376 16.6229 18.5447 16.6047 17.757 16.5155C17.7216 16.4745 17.6933 16.4289 17.6721 16.3788C17.6438 15.8687 17.6344 15.3583 17.6438 14.8476C16.9975 14.8712 16.3555 14.8439 15.718 14.7655C14.8941 14.2819 14.6959 13.6166 15.1232 12.7694C15.2887 12.573 15.4869 12.4181 15.718 12.3046C16.9604 12.2334 18.2065 12.197 19.4563 12.1952C20.2404 12.0209 20.4764 11.5743 20.1643 10.8554C20.0545 10.7129 19.9129 10.6126 19.7395 10.5546C19.138 10.4885 18.5339 10.4521 17.927 10.4452C16.2684 10.1017 15.2772 9.12643 14.9533 7.51944C14.7747 5.75823 15.5016 4.4913 17.134 3.71866C17.3001 3.65605 17.47 3.61048 17.6438 3.58194C17.6344 3.03476 17.6438 2.48788 17.6721 1.94132C17.7112 1.84013 17.7772 1.76721 17.8703 1.72257ZM18.55 2.59757C18.8521 2.59757 19.1542 2.59757 19.4563 2.59757C19.4469 3.10831 19.4563 3.61872 19.4846 4.12882C19.5058 4.17892 19.5341 4.2245 19.5695 4.26553C20.2816 4.33637 20.999 4.37283 21.7219 4.37491C22.1097 4.47693 22.2135 4.7048 22.0334 5.0585C21.9401 5.12506 21.8362 5.17063 21.7219 5.19522C20.5136 5.21345 19.3052 5.23168 18.0969 5.24991C17.0242 5.59745 16.5805 6.31752 16.7658 7.41007C16.9452 8.09366 17.3889 8.52203 18.0969 8.69522C18.7215 8.70895 19.3446 8.74543 19.966 8.8046C21.3177 9.15263 22.0352 10.0003 22.1184 11.3476C21.9992 12.7844 21.2063 13.6503 19.7395 13.9452C19.6383 13.9882 19.5533 14.0519 19.4846 14.1366C19.4563 14.665 19.4469 15.1936 19.4563 15.7226C19.1542 15.7226 18.8521 15.7226 18.55 15.7226C18.5594 15.2118 18.55 14.7014 18.5217 14.1913C18.5005 14.1412 18.4722 14.0956 18.4367 14.0546C17.7246 13.9838 17.0072 13.9473 16.2844 13.9452C15.8966 13.8432 15.7927 13.6153 15.9729 13.2616C16.0662 13.1951 16.17 13.1495 16.2844 13.1249C17.4927 13.1067 18.7011 13.0884 19.9094 13.0702C20.982 12.7227 21.4258 12.0026 21.2404 10.9101C21.0611 10.2265 20.6174 9.79811 19.9094 9.62491C19.2847 9.61118 18.6617 9.57471 18.0402 9.51554C16.6885 9.1675 15.971 8.31985 15.8879 6.97257C16.007 5.53571 16.8 4.66985 18.2668 4.37491C18.368 4.33201 18.4529 4.2682 18.5217 4.1835C18.55 3.65517 18.5594 3.12653 18.55 2.59757Z" fill="white"/>
<path opacity="0.96" fill-rule="evenodd" clip-rule="evenodd" d="M6.54214 4.78521C6.75494 4.76174 6.95319 4.7982 7.13687 4.89459C7.21498 5.14265 7.2433 5.39786 7.22183 5.66021C7.44919 5.65114 7.67575 5.66027 7.90152 5.68756C8.07235 5.77118 8.14785 5.90789 8.12808 6.09771C8.13352 6.23039 8.0958 6.34889 8.0148 6.45318C7.75788 6.5286 7.49354 6.55594 7.22183 6.53522C7.23123 6.75473 7.22178 6.97348 7.19351 7.19147C7.10691 7.3564 6.96531 7.4293 6.76871 7.41022C6.6313 7.41547 6.50856 7.37904 6.40054 7.30084C6.32244 7.05278 6.29412 6.79755 6.31558 6.53522C6.08823 6.54429 5.86166 6.53516 5.63589 6.50787C5.46507 6.42425 5.38954 6.28754 5.40933 6.09771C5.40387 5.96504 5.44163 5.84654 5.52261 5.74225C5.77953 5.66683 6.04388 5.63949 6.31558 5.66021C6.30618 5.44071 6.31564 5.22196 6.3439 5.00396C6.38298 4.90278 6.44903 4.82986 6.54214 4.78521Z" fill="white"/>
<path opacity="0.969" fill-rule="evenodd" clip-rule="evenodd" d="M16.2842 27.9726C13.4521 27.9726 10.6201 27.9726 7.78809 27.9726C7.00831 27.7408 6.2248 27.5039 5.4375 27.2617C5.41862 27.4258 5.39974 27.5898 5.38086 27.7539C5.34179 27.8551 5.27571 27.928 5.18262 27.9726C3.52116 27.9726 1.8597 27.9726 0.198242 27.9726C0.103841 27.9179 0.0283203 27.8451 -0.0283203 27.7539C-0.0283203 24.3997 -0.0283203 21.0455 -0.0283203 17.6914C0.0179231 17.6015 0.093444 17.5377 0.198242 17.5C1.8597 17.4635 3.52116 17.4635 5.18262 17.5C5.28646 17.5273 5.35254 17.5911 5.38086 17.6914C5.39098 17.8583 5.4193 18.0224 5.46582 18.1836C6.01761 17.8604 6.44242 17.4229 6.74023 16.8711C7.34442 14.8294 7.94855 12.7877 8.55273 10.7461C8.5972 10.6484 8.66324 10.5664 8.75098 10.5C10.4135 10.4639 11.4048 11.2386 11.7246 12.8242C11.7341 13.0247 11.7435 13.2252 11.7529 13.4258C11.6583 14.485 11.545 15.5423 11.4131 16.5976C13.49 16.5885 15.5668 16.5976 17.6436 16.625C18.7162 16.9725 19.1599 17.6926 18.9746 18.7851C18.8516 19.25 18.5779 19.6055 18.1533 19.8515C18.6703 20.583 18.6797 21.3213 18.1816 22.0664C18.0379 22.2234 17.8775 22.3602 17.7002 22.4765C18.2172 23.208 18.2266 23.9463 17.7285 24.6914C17.5848 24.8484 17.4244 24.9852 17.2471 25.1015C17.8624 26.048 17.7491 26.9048 16.9072 27.6719C16.6943 27.7746 16.4867 27.8749 16.2842 27.9726ZM9.37402 11.457C10.1778 11.641 10.6404 12.1332 10.7617 12.9336C10.7181 14.3095 10.5765 15.6767 10.3369 17.0351C10.3774 17.1615 10.434 17.28 10.5068 17.3906C12.7299 17.4629 14.9578 17.4993 17.1904 17.5C17.9746 17.6743 18.2105 18.1209 17.8984 18.8398C17.7887 18.9823 17.6471 19.0826 17.4736 19.1406C16.551 19.2093 15.6259 19.2458 14.6982 19.25C14.5944 19.2773 14.5283 19.3411 14.5 19.4414C14.4622 19.5872 14.4622 19.733 14.5 19.8789C14.5283 19.9791 14.5944 20.0429 14.6982 20.0703C15.3779 20.0885 16.0576 20.1068 16.7373 20.125C17.5214 20.2993 17.7574 20.7459 17.4453 21.4648C17.2604 21.6771 17.0245 21.7956 16.7373 21.8203C15.9066 21.8385 15.0759 21.8568 14.2451 21.875C14.1413 21.9023 14.0752 21.9661 14.0469 22.0664C14.0091 22.2122 14.0091 22.358 14.0469 22.5039C14.0752 22.6041 14.1413 22.6679 14.2451 22.6953C14.9248 22.7135 15.6045 22.7318 16.2842 22.75C17.0683 22.9243 17.3043 23.3709 16.9922 24.0898C16.8073 24.3021 16.5713 24.4206 16.2842 24.4453C15.4534 24.4635 14.6227 24.4818 13.792 24.5C13.6882 24.5273 13.6221 24.5911 13.5938 24.6914C13.556 24.8372 13.556 24.983 13.5938 25.1289C13.6221 25.2291 13.6882 25.2929 13.792 25.3203C14.4717 25.3385 15.1514 25.3568 15.8311 25.375C16.5019 25.476 16.7756 25.8497 16.6523 26.4961C16.505 26.8544 16.2313 27.0458 15.8311 27.0703C13.2822 27.1068 10.7334 27.1068 8.18457 27.0703C7.26546 26.7983 6.34035 26.5522 5.40918 26.332C5.40918 23.944 5.40918 21.556 5.40918 19.1679C6.06581 19.0283 6.6039 18.7002 7.02344 18.1836C7.27345 17.9016 7.48115 17.5917 7.64648 17.2539C8.22847 15.3222 8.80428 13.3899 9.37402 11.457ZM0.87793 18.3476C2.08626 18.3476 3.2946 18.3476 4.50293 18.3476C4.50293 21.2643 4.50293 24.181 4.50293 27.0976C3.2946 27.0976 2.08626 27.0976 0.87793 27.0976C0.87793 24.181 0.87793 21.2643 0.87793 18.3476Z" fill="white"/>
<path opacity="0.96" fill-rule="evenodd" clip-rule="evenodd" d="M23.3078 20.9727C23.5206 20.9493 23.7188 20.9857 23.9025 21.0821C23.9806 21.3302 24.0089 21.5854 23.9875 21.8477C24.2148 21.8386 24.4414 21.8478 24.6671 21.8751C24.838 21.9587 24.9135 22.0954 24.8937 22.2852C24.8991 22.4179 24.8614 22.5364 24.7804 22.6407C24.5235 22.7161 24.2592 22.7434 23.9875 22.7227C23.9969 22.9422 23.9874 23.161 23.9591 23.379C23.8725 23.5439 23.7309 23.6168 23.5343 23.5977C23.3969 23.603 23.2742 23.5665 23.1662 23.4883C23.0881 23.2403 23.0597 22.985 23.0812 22.7227C22.8538 22.7318 22.6273 22.7227 22.4015 22.6954C22.2307 22.6118 22.1552 22.475 22.175 22.2852C22.1695 22.1525 22.2072 22.034 22.2882 21.9297C22.5452 21.8543 22.8095 21.827 23.0812 21.8477C23.0718 21.6282 23.0813 21.4094 23.1095 21.1915C23.1486 21.0903 23.2146 21.0173 23.3078 20.9727Z" fill="white"/>
</g>
<defs>
<clipPath id="clip0_32_3040">
<rect width="29" height="28" fill="white"/>
</clipPath>
</defs>
</svg>
